%TF.GenerationSoftware,KiCad,Pcbnew,(5.1.6)-1*%
%TF.CreationDate,2020-11-27T09:17:25-06:00*%
%TF.ProjectId,zero-percent-keyboard,7a65726f-2d70-4657-9263-656e742d6b65,rev?*%
%TF.SameCoordinates,Original*%
%TF.FileFunction,Soldermask,Bot*%
%TF.FilePolarity,Negative*%
%FSLAX46Y46*%
G04 Gerber Fmt 4.6, Leading zero omitted, Abs format (unit mm)*
G04 Created by KiCad (PCBNEW (5.1.6)-1) date 2020-11-27 09:17:25*
%MOMM*%
%LPD*%
G01*
G04 APERTURE LIST*
%ADD10C,2.350000*%
%ADD11C,4.087800*%
%ADD12C,1.850000*%
%ADD13C,3.148000*%
%ADD14R,1.000000X1.300000*%
%ADD15R,2.200000X1.900000*%
%ADD16C,0.100000*%
%ADD17R,1.100000X1.800000*%
%ADD18O,1.208000X2.316000*%
%ADD19C,0.750000*%
G04 APERTURE END LIST*
D10*
%TO.C,MX82*%
X170625120Y-131334410D03*
D11*
X168085120Y-136414410D03*
D10*
X164275120Y-133874410D03*
D12*
X163005120Y-136414410D03*
X173165120Y-136414410D03*
D13*
X118085220Y-143399410D03*
X218085020Y-143399410D03*
D11*
X118085220Y-128159410D03*
X218085020Y-128159410D03*
%TD*%
D10*
%TO.C,MX80*%
X75374720Y-131334410D03*
D11*
X72834720Y-136414410D03*
D10*
X69024720Y-133874410D03*
D12*
X67754720Y-136414410D03*
X77914720Y-136414410D03*
%TD*%
D10*
%TO.C,MX76*%
X315881980Y-112284330D03*
D11*
X313341980Y-117364330D03*
D10*
X309531980Y-114824330D03*
D12*
X308261980Y-117364330D03*
X318421980Y-117364330D03*
%TD*%
D10*
%TO.C,MX75*%
X289688120Y-112284330D03*
D11*
X287148120Y-117364330D03*
D10*
X283338120Y-114824330D03*
D12*
X282068120Y-117364330D03*
X292228120Y-117364330D03*
%TD*%
D14*
%TO.C,D75*%
X290197000Y-123063000D03*
X293497000Y-123063000D03*
%TD*%
D15*
%TO.C,X1*%
X213868000Y-141859000D03*
X210968000Y-141859000D03*
X210968000Y-139659000D03*
X213868000Y-139659000D03*
%TD*%
D16*
%TO.C,U1*%
G36*
X200253413Y-129493940D02*
G01*
X199793794Y-129953559D01*
X198662423Y-128822188D01*
X199122042Y-128362569D01*
X200253413Y-129493940D01*
G37*
G36*
X199687728Y-130059626D02*
G01*
X199228109Y-130519245D01*
X198096738Y-129387874D01*
X198556357Y-128928255D01*
X199687728Y-130059626D01*
G37*
G36*
X199122043Y-130625311D02*
G01*
X198662424Y-131084930D01*
X197531053Y-129953559D01*
X197990672Y-129493940D01*
X199122043Y-130625311D01*
G37*
G36*
X198556357Y-131190996D02*
G01*
X198096738Y-131650615D01*
X196965367Y-130519244D01*
X197424986Y-130059625D01*
X198556357Y-131190996D01*
G37*
G36*
X197990672Y-131756682D02*
G01*
X197531053Y-132216301D01*
X196399682Y-131084930D01*
X196859301Y-130625311D01*
X197990672Y-131756682D01*
G37*
G36*
X197424986Y-132322367D02*
G01*
X196965367Y-132781986D01*
X195833996Y-131650615D01*
X196293615Y-131190996D01*
X197424986Y-132322367D01*
G37*
G36*
X196859301Y-132888053D02*
G01*
X196399682Y-133347672D01*
X195268311Y-132216301D01*
X195727930Y-131756682D01*
X196859301Y-132888053D01*
G37*
G36*
X196293615Y-133453738D02*
G01*
X195833996Y-133913357D01*
X194702625Y-132781986D01*
X195162244Y-132322367D01*
X196293615Y-133453738D01*
G37*
G36*
X195727930Y-134019424D02*
G01*
X195268311Y-134479043D01*
X194136940Y-133347672D01*
X194596559Y-132888053D01*
X195727930Y-134019424D01*
G37*
G36*
X195162245Y-134585109D02*
G01*
X194702626Y-135044728D01*
X193571255Y-133913357D01*
X194030874Y-133453738D01*
X195162245Y-134585109D01*
G37*
G36*
X194596559Y-135150794D02*
G01*
X194136940Y-135610413D01*
X193005569Y-134479042D01*
X193465188Y-134019423D01*
X194596559Y-135150794D01*
G37*
G36*
X194136940Y-136423587D02*
G01*
X194596559Y-136883206D01*
X193465188Y-138014577D01*
X193005569Y-137554958D01*
X194136940Y-136423587D01*
G37*
G36*
X194702626Y-136989272D02*
G01*
X195162245Y-137448891D01*
X194030874Y-138580262D01*
X193571255Y-138120643D01*
X194702626Y-136989272D01*
G37*
G36*
X195268311Y-137554957D02*
G01*
X195727930Y-138014576D01*
X194596559Y-139145947D01*
X194136940Y-138686328D01*
X195268311Y-137554957D01*
G37*
G36*
X195833996Y-138120643D02*
G01*
X196293615Y-138580262D01*
X195162244Y-139711633D01*
X194702625Y-139252014D01*
X195833996Y-138120643D01*
G37*
G36*
X196399682Y-138686328D02*
G01*
X196859301Y-139145947D01*
X195727930Y-140277318D01*
X195268311Y-139817699D01*
X196399682Y-138686328D01*
G37*
G36*
X196965367Y-139252014D02*
G01*
X197424986Y-139711633D01*
X196293615Y-140843004D01*
X195833996Y-140383385D01*
X196965367Y-139252014D01*
G37*
G36*
X197531053Y-139817699D02*
G01*
X197990672Y-140277318D01*
X196859301Y-141408689D01*
X196399682Y-140949070D01*
X197531053Y-139817699D01*
G37*
G36*
X198096738Y-140383385D02*
G01*
X198556357Y-140843004D01*
X197424986Y-141974375D01*
X196965367Y-141514756D01*
X198096738Y-140383385D01*
G37*
G36*
X198662424Y-140949070D02*
G01*
X199122043Y-141408689D01*
X197990672Y-142540060D01*
X197531053Y-142080441D01*
X198662424Y-140949070D01*
G37*
G36*
X199228109Y-141514755D02*
G01*
X199687728Y-141974374D01*
X198556357Y-143105745D01*
X198096738Y-142646126D01*
X199228109Y-141514755D01*
G37*
G36*
X199793794Y-142080441D02*
G01*
X200253413Y-142540060D01*
X199122042Y-143671431D01*
X198662423Y-143211812D01*
X199793794Y-142080441D01*
G37*
G36*
X202657577Y-143211812D02*
G01*
X202197958Y-143671431D01*
X201066587Y-142540060D01*
X201526206Y-142080441D01*
X202657577Y-143211812D01*
G37*
G36*
X203223262Y-142646126D02*
G01*
X202763643Y-143105745D01*
X201632272Y-141974374D01*
X202091891Y-141514755D01*
X203223262Y-142646126D01*
G37*
G36*
X203788947Y-142080441D02*
G01*
X203329328Y-142540060D01*
X202197957Y-141408689D01*
X202657576Y-140949070D01*
X203788947Y-142080441D01*
G37*
G36*
X204354633Y-141514756D02*
G01*
X203895014Y-141974375D01*
X202763643Y-140843004D01*
X203223262Y-140383385D01*
X204354633Y-141514756D01*
G37*
G36*
X204920318Y-140949070D02*
G01*
X204460699Y-141408689D01*
X203329328Y-140277318D01*
X203788947Y-139817699D01*
X204920318Y-140949070D01*
G37*
G36*
X205486004Y-140383385D02*
G01*
X205026385Y-140843004D01*
X203895014Y-139711633D01*
X204354633Y-139252014D01*
X205486004Y-140383385D01*
G37*
G36*
X206051689Y-139817699D02*
G01*
X205592070Y-140277318D01*
X204460699Y-139145947D01*
X204920318Y-138686328D01*
X206051689Y-139817699D01*
G37*
G36*
X206617375Y-139252014D02*
G01*
X206157756Y-139711633D01*
X205026385Y-138580262D01*
X205486004Y-138120643D01*
X206617375Y-139252014D01*
G37*
G36*
X207183060Y-138686328D02*
G01*
X206723441Y-139145947D01*
X205592070Y-138014576D01*
X206051689Y-137554957D01*
X207183060Y-138686328D01*
G37*
G36*
X207748745Y-138120643D02*
G01*
X207289126Y-138580262D01*
X206157755Y-137448891D01*
X206617374Y-136989272D01*
X207748745Y-138120643D01*
G37*
G36*
X208314431Y-137554958D02*
G01*
X207854812Y-138014577D01*
X206723441Y-136883206D01*
X207183060Y-136423587D01*
X208314431Y-137554958D01*
G37*
G36*
X207854812Y-134019423D02*
G01*
X208314431Y-134479042D01*
X207183060Y-135610413D01*
X206723441Y-135150794D01*
X207854812Y-134019423D01*
G37*
G36*
X207289126Y-133453738D02*
G01*
X207748745Y-133913357D01*
X206617374Y-135044728D01*
X206157755Y-134585109D01*
X207289126Y-133453738D01*
G37*
G36*
X206723441Y-132888053D02*
G01*
X207183060Y-133347672D01*
X206051689Y-134479043D01*
X205592070Y-134019424D01*
X206723441Y-132888053D01*
G37*
G36*
X206157756Y-132322367D02*
G01*
X206617375Y-132781986D01*
X205486004Y-133913357D01*
X205026385Y-133453738D01*
X206157756Y-132322367D01*
G37*
G36*
X205592070Y-131756682D02*
G01*
X206051689Y-132216301D01*
X204920318Y-133347672D01*
X204460699Y-132888053D01*
X205592070Y-131756682D01*
G37*
G36*
X205026385Y-131190996D02*
G01*
X205486004Y-131650615D01*
X204354633Y-132781986D01*
X203895014Y-132322367D01*
X205026385Y-131190996D01*
G37*
G36*
X204460699Y-130625311D02*
G01*
X204920318Y-131084930D01*
X203788947Y-132216301D01*
X203329328Y-131756682D01*
X204460699Y-130625311D01*
G37*
G36*
X203895014Y-130059625D02*
G01*
X204354633Y-130519244D01*
X203223262Y-131650615D01*
X202763643Y-131190996D01*
X203895014Y-130059625D01*
G37*
G36*
X203329328Y-129493940D02*
G01*
X203788947Y-129953559D01*
X202657576Y-131084930D01*
X202197957Y-130625311D01*
X203329328Y-129493940D01*
G37*
G36*
X202763643Y-128928255D02*
G01*
X203223262Y-129387874D01*
X202091891Y-130519245D01*
X201632272Y-130059626D01*
X202763643Y-128928255D01*
G37*
G36*
X202197958Y-128362569D02*
G01*
X202657577Y-128822188D01*
X201526206Y-129953559D01*
X201066587Y-129493940D01*
X202197958Y-128362569D01*
G37*
%TD*%
D17*
%TO.C,SW1*%
X223715500Y-132740000D03*
X223715500Y-139040000D03*
X227515500Y-132740000D03*
X227515500Y-139040000D03*
%TD*%
%TO.C,R6*%
G36*
G01*
X220565238Y-136281000D02*
X221521762Y-136281000D01*
G75*
G02*
X221793500Y-136552738I0J-271738D01*
G01*
X221793500Y-137259262D01*
G75*
G02*
X221521762Y-137531000I-271738J0D01*
G01*
X220565238Y-137531000D01*
G75*
G02*
X220293500Y-137259262I0J271738D01*
G01*
X220293500Y-136552738D01*
G75*
G02*
X220565238Y-136281000I271738J0D01*
G01*
G37*
G36*
G01*
X220565238Y-134231000D02*
X221521762Y-134231000D01*
G75*
G02*
X221793500Y-134502738I0J-271738D01*
G01*
X221793500Y-135209262D01*
G75*
G02*
X221521762Y-135481000I-271738J0D01*
G01*
X220565238Y-135481000D01*
G75*
G02*
X220293500Y-135209262I0J271738D01*
G01*
X220293500Y-134502738D01*
G75*
G02*
X220565238Y-134231000I271738J0D01*
G01*
G37*
%TD*%
%TO.C,R5*%
G36*
G01*
X304897262Y-36430000D02*
X303940738Y-36430000D01*
G75*
G02*
X303669000Y-36158262I0J271738D01*
G01*
X303669000Y-35451738D01*
G75*
G02*
X303940738Y-35180000I271738J0D01*
G01*
X304897262Y-35180000D01*
G75*
G02*
X305169000Y-35451738I0J-271738D01*
G01*
X305169000Y-36158262D01*
G75*
G02*
X304897262Y-36430000I-271738J0D01*
G01*
G37*
G36*
G01*
X304897262Y-38480000D02*
X303940738Y-38480000D01*
G75*
G02*
X303669000Y-38208262I0J271738D01*
G01*
X303669000Y-37501738D01*
G75*
G02*
X303940738Y-37230000I271738J0D01*
G01*
X304897262Y-37230000D01*
G75*
G02*
X305169000Y-37501738I0J-271738D01*
G01*
X305169000Y-38208262D01*
G75*
G02*
X304897262Y-38480000I-271738J0D01*
G01*
G37*
%TD*%
%TO.C,R4*%
G36*
G01*
X298801262Y-36439000D02*
X297844738Y-36439000D01*
G75*
G02*
X297573000Y-36167262I0J271738D01*
G01*
X297573000Y-35460738D01*
G75*
G02*
X297844738Y-35189000I271738J0D01*
G01*
X298801262Y-35189000D01*
G75*
G02*
X299073000Y-35460738I0J-271738D01*
G01*
X299073000Y-36167262D01*
G75*
G02*
X298801262Y-36439000I-271738J0D01*
G01*
G37*
G36*
G01*
X298801262Y-38489000D02*
X297844738Y-38489000D01*
G75*
G02*
X297573000Y-38217262I0J271738D01*
G01*
X297573000Y-37510738D01*
G75*
G02*
X297844738Y-37239000I271738J0D01*
G01*
X298801262Y-37239000D01*
G75*
G02*
X299073000Y-37510738I0J-271738D01*
G01*
X299073000Y-38217262D01*
G75*
G02*
X298801262Y-38489000I-271738J0D01*
G01*
G37*
%TD*%
%TO.C,R3*%
G36*
G01*
X300833262Y-36439000D02*
X299876738Y-36439000D01*
G75*
G02*
X299605000Y-36167262I0J271738D01*
G01*
X299605000Y-35460738D01*
G75*
G02*
X299876738Y-35189000I271738J0D01*
G01*
X300833262Y-35189000D01*
G75*
G02*
X301105000Y-35460738I0J-271738D01*
G01*
X301105000Y-36167262D01*
G75*
G02*
X300833262Y-36439000I-271738J0D01*
G01*
G37*
G36*
G01*
X300833262Y-38489000D02*
X299876738Y-38489000D01*
G75*
G02*
X299605000Y-38217262I0J271738D01*
G01*
X299605000Y-37510738D01*
G75*
G02*
X299876738Y-37239000I271738J0D01*
G01*
X300833262Y-37239000D01*
G75*
G02*
X301105000Y-37510738I0J-271738D01*
G01*
X301105000Y-38217262D01*
G75*
G02*
X300833262Y-38489000I-271738J0D01*
G01*
G37*
%TD*%
%TO.C,R2*%
G36*
G01*
X302865262Y-36439000D02*
X301908738Y-36439000D01*
G75*
G02*
X301637000Y-36167262I0J271738D01*
G01*
X301637000Y-35460738D01*
G75*
G02*
X301908738Y-35189000I271738J0D01*
G01*
X302865262Y-35189000D01*
G75*
G02*
X303137000Y-35460738I0J-271738D01*
G01*
X303137000Y-36167262D01*
G75*
G02*
X302865262Y-36439000I-271738J0D01*
G01*
G37*
G36*
G01*
X302865262Y-38489000D02*
X301908738Y-38489000D01*
G75*
G02*
X301637000Y-38217262I0J271738D01*
G01*
X301637000Y-37510738D01*
G75*
G02*
X301908738Y-37239000I271738J0D01*
G01*
X302865262Y-37239000D01*
G75*
G02*
X303137000Y-37510738I0J-271738D01*
G01*
X303137000Y-38217262D01*
G75*
G02*
X302865262Y-38489000I-271738J0D01*
G01*
G37*
%TD*%
%TO.C,R1*%
G36*
G01*
X191317340Y-137046975D02*
X190640976Y-137723340D01*
G75*
G02*
X190256680Y-137723340I-192148J192148D01*
G01*
X189757092Y-137223752D01*
G75*
G02*
X189757092Y-136839456I192148J192148D01*
G01*
X190433456Y-136163092D01*
G75*
G02*
X190817752Y-136163092I192148J-192148D01*
G01*
X191317340Y-136662680D01*
G75*
G02*
X191317340Y-137046976I-192148J-192148D01*
G01*
G37*
G36*
G01*
X192766908Y-138496543D02*
X192090544Y-139172908D01*
G75*
G02*
X191706248Y-139172908I-192148J192148D01*
G01*
X191206660Y-138673320D01*
G75*
G02*
X191206660Y-138289024I192148J192148D01*
G01*
X191883024Y-137612660D01*
G75*
G02*
X192267320Y-137612660I192148J-192148D01*
G01*
X192766908Y-138112248D01*
G75*
G02*
X192766908Y-138496544I-192148J-192148D01*
G01*
G37*
%TD*%
D10*
%TO.C,MX89*%
X353982140Y-131334410D03*
D11*
X351442140Y-136414410D03*
D10*
X347632140Y-133874410D03*
D12*
X346362140Y-136414410D03*
X356522140Y-136414410D03*
%TD*%
D10*
%TO.C,MX88*%
X334932060Y-131334410D03*
D11*
X332392060Y-136414410D03*
D10*
X328582060Y-133874410D03*
D12*
X327312060Y-136414410D03*
X337472060Y-136414410D03*
%TD*%
D10*
%TO.C,MX87*%
X315881980Y-131334410D03*
D11*
X313341980Y-136414410D03*
D10*
X309531980Y-133874410D03*
D12*
X308261980Y-136414410D03*
X318421980Y-136414410D03*
%TD*%
D10*
%TO.C,MX86*%
X296831900Y-131334410D03*
D11*
X294291900Y-136414410D03*
D10*
X290481900Y-133874410D03*
D12*
X289211900Y-136414410D03*
X299371900Y-136414410D03*
%TD*%
D10*
%TO.C,MX85*%
X277781820Y-131334410D03*
D11*
X275241820Y-136414410D03*
D10*
X271431820Y-133874410D03*
D12*
X270161820Y-136414410D03*
X280321820Y-136414410D03*
%TD*%
D10*
%TO.C,MX84*%
X258731740Y-131334410D03*
D11*
X256191740Y-136414410D03*
D10*
X252381740Y-133874410D03*
D12*
X251111740Y-136414410D03*
X261271740Y-136414410D03*
%TD*%
D10*
%TO.C,MX83*%
X239681660Y-131334410D03*
D11*
X237141660Y-136414410D03*
D10*
X233331660Y-133874410D03*
D12*
X232061660Y-136414410D03*
X242221660Y-136414410D03*
%TD*%
D10*
%TO.C,MX81*%
X99187320Y-131334410D03*
D11*
X96647320Y-136414410D03*
D10*
X92837320Y-133874410D03*
D12*
X91567320Y-136414410D03*
X101727320Y-136414410D03*
%TD*%
D10*
%TO.C,MX79*%
X51562120Y-131334410D03*
D11*
X49022120Y-136414410D03*
D10*
X45212120Y-133874410D03*
D12*
X43942120Y-136414410D03*
X54102120Y-136414410D03*
%TD*%
D10*
%TO.C,MX78*%
X353982140Y-112284330D03*
D11*
X351442140Y-117364330D03*
D10*
X347632140Y-114824330D03*
D12*
X346362140Y-117364330D03*
X356522140Y-117364330D03*
%TD*%
D10*
%TO.C,MX77*%
X334932060Y-112284330D03*
D11*
X332392060Y-117364330D03*
D10*
X328582060Y-114824330D03*
D12*
X327312060Y-117364330D03*
X337472060Y-117364330D03*
%TD*%
D10*
%TO.C,MX74*%
X263494260Y-112284330D03*
D11*
X260954260Y-117364330D03*
D10*
X257144260Y-114824330D03*
D12*
X255874260Y-117364330D03*
X266034260Y-117364330D03*
%TD*%
D10*
%TO.C,MX73*%
X244444180Y-112284330D03*
D11*
X241904180Y-117364330D03*
D10*
X238094180Y-114824330D03*
D12*
X236824180Y-117364330D03*
X246984180Y-117364330D03*
%TD*%
D10*
%TO.C,MX72*%
X225394100Y-112284330D03*
D11*
X222854100Y-117364330D03*
D10*
X219044100Y-114824330D03*
D12*
X217774100Y-117364330D03*
X227934100Y-117364330D03*
%TD*%
D10*
%TO.C,MX71*%
X206344020Y-112284330D03*
D11*
X203804020Y-117364330D03*
D10*
X199994020Y-114824330D03*
D12*
X198724020Y-117364330D03*
X208884020Y-117364330D03*
%TD*%
D10*
%TO.C,MX70*%
X187293940Y-112284330D03*
D11*
X184753940Y-117364330D03*
D10*
X180943940Y-114824330D03*
D12*
X179673940Y-117364330D03*
X189833940Y-117364330D03*
%TD*%
D10*
%TO.C,MX69*%
X168243860Y-112284330D03*
D11*
X165703860Y-117364330D03*
D10*
X161893860Y-114824330D03*
D12*
X160623860Y-117364330D03*
X170783860Y-117364330D03*
%TD*%
D10*
%TO.C,MX68*%
X149193780Y-112284330D03*
D11*
X146653780Y-117364330D03*
D10*
X142843780Y-114824330D03*
D12*
X141573780Y-117364330D03*
X151733780Y-117364330D03*
%TD*%
D10*
%TO.C,MX67*%
X130143700Y-112284330D03*
D11*
X127603700Y-117364330D03*
D10*
X123793700Y-114824330D03*
D12*
X122523700Y-117364330D03*
X132683700Y-117364330D03*
%TD*%
D10*
%TO.C,MX66*%
X111093620Y-112284330D03*
D11*
X108553620Y-117364330D03*
D10*
X104743620Y-114824330D03*
D12*
X103473620Y-117364330D03*
X113633620Y-117364330D03*
%TD*%
D10*
%TO.C,MX65*%
X92043540Y-112284330D03*
D11*
X89503540Y-117364330D03*
D10*
X85693540Y-114824330D03*
D12*
X84423540Y-117364330D03*
X94583540Y-117364330D03*
%TD*%
D10*
%TO.C,MX64*%
X61087160Y-112284330D03*
D11*
X58547160Y-117364330D03*
D10*
X54737160Y-114824330D03*
D12*
X53467160Y-117364330D03*
X63627160Y-117364330D03*
D13*
X46640910Y-110379330D03*
X70453410Y-110379330D03*
D11*
X46640910Y-125619330D03*
X70453410Y-125619330D03*
%TD*%
D10*
%TO.C,MX63*%
X353982140Y-93234250D03*
D11*
X351442140Y-98314250D03*
D10*
X347632140Y-95774250D03*
D12*
X346362140Y-98314250D03*
X356522140Y-98314250D03*
%TD*%
D10*
%TO.C,MX62*%
X334932060Y-93234250D03*
D11*
X332392060Y-98314250D03*
D10*
X328582060Y-95774250D03*
D12*
X327312060Y-98314250D03*
X337472060Y-98314250D03*
%TD*%
D10*
%TO.C,MX61*%
X303975680Y-93234250D03*
D11*
X301435680Y-98314250D03*
D10*
X297625680Y-95774250D03*
D12*
X296355680Y-98314250D03*
X306515680Y-98314250D03*
D13*
X289529430Y-91329250D03*
X313341930Y-91329250D03*
D11*
X289529430Y-106569250D03*
X313341930Y-106569250D03*
%TD*%
D10*
%TO.C,MX60*%
X273019300Y-93234250D03*
D11*
X270479300Y-98314250D03*
D10*
X266669300Y-95774250D03*
D12*
X265399300Y-98314250D03*
X275559300Y-98314250D03*
%TD*%
D10*
%TO.C,MX59*%
X253969220Y-93234250D03*
D11*
X251429220Y-98314250D03*
D10*
X247619220Y-95774250D03*
D12*
X246349220Y-98314250D03*
X256509220Y-98314250D03*
%TD*%
D10*
%TO.C,MX58*%
X234919140Y-93234250D03*
D11*
X232379140Y-98314250D03*
D10*
X228569140Y-95774250D03*
D12*
X227299140Y-98314250D03*
X237459140Y-98314250D03*
%TD*%
D10*
%TO.C,MX57*%
X215869060Y-93234250D03*
D11*
X213329060Y-98314250D03*
D10*
X209519060Y-95774250D03*
D12*
X208249060Y-98314250D03*
X218409060Y-98314250D03*
%TD*%
D10*
%TO.C,MX56*%
X196818980Y-93234250D03*
D11*
X194278980Y-98314250D03*
D10*
X190468980Y-95774250D03*
D12*
X189198980Y-98314250D03*
X199358980Y-98314250D03*
%TD*%
D10*
%TO.C,MX55*%
X177768900Y-93234250D03*
D11*
X175228900Y-98314250D03*
D10*
X171418900Y-95774250D03*
D12*
X170148900Y-98314250D03*
X180308900Y-98314250D03*
%TD*%
D10*
%TO.C,MX54*%
X158718820Y-93234250D03*
D11*
X156178820Y-98314250D03*
D10*
X152368820Y-95774250D03*
D12*
X151098820Y-98314250D03*
X161258820Y-98314250D03*
%TD*%
D10*
%TO.C,MX53*%
X139668740Y-93234250D03*
D11*
X137128740Y-98314250D03*
D10*
X133318740Y-95774250D03*
D12*
X132048740Y-98314250D03*
X142208740Y-98314250D03*
%TD*%
D10*
%TO.C,MX52*%
X120618660Y-93234250D03*
D11*
X118078660Y-98314250D03*
D10*
X114268660Y-95774250D03*
D12*
X112998660Y-98314250D03*
X123158660Y-98314250D03*
%TD*%
D10*
%TO.C,MX51*%
X101568580Y-93234250D03*
D11*
X99028580Y-98314250D03*
D10*
X95218580Y-95774250D03*
D12*
X93948580Y-98314250D03*
X104108580Y-98314250D03*
%TD*%
D10*
%TO.C,MX50*%
X82518500Y-93234250D03*
D11*
X79978500Y-98314250D03*
D10*
X76168500Y-95774250D03*
D12*
X74898500Y-98314250D03*
X85058500Y-98314250D03*
%TD*%
D10*
%TO.C,MX49*%
X56324640Y-93234250D03*
D11*
X53784640Y-98314250D03*
D10*
X49974640Y-95774250D03*
D12*
X48704640Y-98314250D03*
X58864640Y-98314250D03*
%TD*%
D10*
%TO.C,MX48*%
X353982140Y-74184170D03*
D11*
X351442140Y-79264170D03*
D10*
X347632140Y-76724170D03*
D12*
X346362140Y-79264170D03*
X356522140Y-79264170D03*
%TD*%
D10*
%TO.C,MX47*%
X334932060Y-74184170D03*
D11*
X332392060Y-79264170D03*
D10*
X328582060Y-76724170D03*
D12*
X327312060Y-79264170D03*
X337472060Y-79264170D03*
%TD*%
D10*
%TO.C,MX46*%
X311119460Y-74184170D03*
D11*
X308579460Y-79264170D03*
D10*
X304769460Y-76724170D03*
D12*
X303499460Y-79264170D03*
X313659460Y-79264170D03*
%TD*%
D10*
%TO.C,MX45*%
X287306860Y-74184170D03*
D11*
X284766860Y-79264170D03*
D10*
X280956860Y-76724170D03*
D12*
X279686860Y-79264170D03*
X289846860Y-79264170D03*
%TD*%
D10*
%TO.C,MX44*%
X268256780Y-74184170D03*
D11*
X265716780Y-79264170D03*
D10*
X261906780Y-76724170D03*
D12*
X260636780Y-79264170D03*
X270796780Y-79264170D03*
%TD*%
D10*
%TO.C,MX43*%
X249206700Y-74184170D03*
D11*
X246666700Y-79264170D03*
D10*
X242856700Y-76724170D03*
D12*
X241586700Y-79264170D03*
X251746700Y-79264170D03*
%TD*%
D10*
%TO.C,MX42*%
X230156620Y-74184170D03*
D11*
X227616620Y-79264170D03*
D10*
X223806620Y-76724170D03*
D12*
X222536620Y-79264170D03*
X232696620Y-79264170D03*
%TD*%
D10*
%TO.C,MX41*%
X211106540Y-74184170D03*
D11*
X208566540Y-79264170D03*
D10*
X204756540Y-76724170D03*
D12*
X203486540Y-79264170D03*
X213646540Y-79264170D03*
%TD*%
D10*
%TO.C,MX40*%
X192056460Y-74184170D03*
D11*
X189516460Y-79264170D03*
D10*
X185706460Y-76724170D03*
D12*
X184436460Y-79264170D03*
X194596460Y-79264170D03*
%TD*%
D10*
%TO.C,MX39*%
X173006380Y-74184170D03*
D11*
X170466380Y-79264170D03*
D10*
X166656380Y-76724170D03*
D12*
X165386380Y-79264170D03*
X175546380Y-79264170D03*
%TD*%
D10*
%TO.C,MX38*%
X153956300Y-74184170D03*
D11*
X151416300Y-79264170D03*
D10*
X147606300Y-76724170D03*
D12*
X146336300Y-79264170D03*
X156496300Y-79264170D03*
%TD*%
D10*
%TO.C,MX37*%
X134906220Y-74184170D03*
D11*
X132366220Y-79264170D03*
D10*
X128556220Y-76724170D03*
D12*
X127286220Y-79264170D03*
X137446220Y-79264170D03*
%TD*%
D10*
%TO.C,MX36*%
X115856140Y-74184170D03*
D11*
X113316140Y-79264170D03*
D10*
X109506140Y-76724170D03*
D12*
X108236140Y-79264170D03*
X118396140Y-79264170D03*
%TD*%
D10*
%TO.C,MX35*%
X96806060Y-74184170D03*
D11*
X94266060Y-79264170D03*
D10*
X90456060Y-76724170D03*
D12*
X89186060Y-79264170D03*
X99346060Y-79264170D03*
%TD*%
D10*
%TO.C,MX34*%
X77755980Y-74184170D03*
D11*
X75215980Y-79264170D03*
D10*
X71405980Y-76724170D03*
D12*
X70135980Y-79264170D03*
X80295980Y-79264170D03*
%TD*%
D10*
%TO.C,MX33*%
X53943380Y-74184170D03*
D11*
X51403380Y-79264170D03*
D10*
X47593380Y-76724170D03*
D12*
X46323380Y-79264170D03*
X56483380Y-79264170D03*
%TD*%
D10*
%TO.C,MX32*%
X353982140Y-55134090D03*
D11*
X351442140Y-60214090D03*
D10*
X347632140Y-57674090D03*
D12*
X346362140Y-60214090D03*
X356522140Y-60214090D03*
%TD*%
D10*
%TO.C,MX31*%
X334932060Y-55134090D03*
D11*
X332392060Y-60214090D03*
D10*
X328582060Y-57674090D03*
D12*
X327312060Y-60214090D03*
X337472060Y-60214090D03*
%TD*%
D10*
%TO.C,MX30*%
X306356940Y-55134090D03*
D11*
X303816940Y-60214090D03*
D10*
X300006940Y-57674090D03*
D12*
X298736940Y-60214090D03*
X308896940Y-60214090D03*
D13*
X291910690Y-53229090D03*
X315723190Y-53229090D03*
D11*
X291910690Y-68469090D03*
X315723190Y-68469090D03*
%TD*%
D10*
%TO.C,MX29*%
X277781820Y-55134090D03*
D11*
X275241820Y-60214090D03*
D10*
X271431820Y-57674090D03*
D12*
X270161820Y-60214090D03*
X280321820Y-60214090D03*
%TD*%
D10*
%TO.C,MX28*%
X258731740Y-55134090D03*
D11*
X256191740Y-60214090D03*
D10*
X252381740Y-57674090D03*
D12*
X251111740Y-60214090D03*
X261271740Y-60214090D03*
%TD*%
D10*
%TO.C,MX27*%
X239681660Y-55134090D03*
D11*
X237141660Y-60214090D03*
D10*
X233331660Y-57674090D03*
D12*
X232061660Y-60214090D03*
X242221660Y-60214090D03*
%TD*%
D10*
%TO.C,MX26*%
X220631580Y-55134090D03*
D11*
X218091580Y-60214090D03*
D10*
X214281580Y-57674090D03*
D12*
X213011580Y-60214090D03*
X223171580Y-60214090D03*
%TD*%
D10*
%TO.C,MX25*%
X201581500Y-55134090D03*
D11*
X199041500Y-60214090D03*
D10*
X195231500Y-57674090D03*
D12*
X193961500Y-60214090D03*
X204121500Y-60214090D03*
%TD*%
D10*
%TO.C,MX24*%
X182531420Y-55134090D03*
D11*
X179991420Y-60214090D03*
D10*
X176181420Y-57674090D03*
D12*
X174911420Y-60214090D03*
X185071420Y-60214090D03*
%TD*%
D10*
%TO.C,MX23*%
X163481340Y-55134090D03*
D11*
X160941340Y-60214090D03*
D10*
X157131340Y-57674090D03*
D12*
X155861340Y-60214090D03*
X166021340Y-60214090D03*
%TD*%
D10*
%TO.C,MX22*%
X144431260Y-55134090D03*
D11*
X141891260Y-60214090D03*
D10*
X138081260Y-57674090D03*
D12*
X136811260Y-60214090D03*
X146971260Y-60214090D03*
%TD*%
D10*
%TO.C,MX21*%
X125381180Y-55134090D03*
D11*
X122841180Y-60214090D03*
D10*
X119031180Y-57674090D03*
D12*
X117761180Y-60214090D03*
X127921180Y-60214090D03*
%TD*%
D10*
%TO.C,MX20*%
X106331100Y-55134090D03*
D11*
X103791100Y-60214090D03*
D10*
X99981100Y-57674090D03*
D12*
X98711100Y-60214090D03*
X108871100Y-60214090D03*
%TD*%
D10*
%TO.C,MX19*%
X87281020Y-55134090D03*
D11*
X84741020Y-60214090D03*
D10*
X80931020Y-57674090D03*
D12*
X79661020Y-60214090D03*
X89821020Y-60214090D03*
%TD*%
D10*
%TO.C,MX18*%
X68230940Y-55134090D03*
D11*
X65690940Y-60214090D03*
D10*
X61880940Y-57674090D03*
D12*
X60610940Y-60214090D03*
X70770940Y-60214090D03*
%TD*%
D10*
%TO.C,MX17*%
X49180860Y-55134090D03*
D11*
X46640860Y-60214090D03*
D10*
X42830860Y-57674090D03*
D12*
X41560860Y-60214090D03*
X51720860Y-60214090D03*
%TD*%
D10*
%TO.C,MX16*%
X353982140Y-36084010D03*
D11*
X351442140Y-41164010D03*
D10*
X347632140Y-38624010D03*
D12*
X346362140Y-41164010D03*
X356522140Y-41164010D03*
%TD*%
D10*
%TO.C,MX15*%
X334932060Y-36084010D03*
D11*
X332392060Y-41164010D03*
D10*
X328582060Y-38624010D03*
D12*
X327312060Y-41164010D03*
X337472060Y-41164010D03*
%TD*%
D10*
%TO.C,MX14*%
X315881980Y-36084010D03*
D11*
X313341980Y-41164010D03*
D10*
X309531980Y-38624010D03*
D12*
X308261980Y-41164010D03*
X318421980Y-41164010D03*
%TD*%
D10*
%TO.C,MX13*%
X292069380Y-36084010D03*
D11*
X289529380Y-41164010D03*
D10*
X285719380Y-38624010D03*
D12*
X284449380Y-41164010D03*
X294609380Y-41164010D03*
%TD*%
D10*
%TO.C,MX12*%
X273019300Y-36084010D03*
D11*
X270479300Y-41164010D03*
D10*
X266669300Y-38624010D03*
D12*
X265399300Y-41164010D03*
X275559300Y-41164010D03*
%TD*%
D10*
%TO.C,MX11*%
X253969220Y-36084010D03*
D11*
X251429220Y-41164010D03*
D10*
X247619220Y-38624010D03*
D12*
X246349220Y-41164010D03*
X256509220Y-41164010D03*
%TD*%
D10*
%TO.C,MX10*%
X234919140Y-36084010D03*
D11*
X232379140Y-41164010D03*
D10*
X228569140Y-38624010D03*
D12*
X227299140Y-41164010D03*
X237459140Y-41164010D03*
%TD*%
D10*
%TO.C,MX9*%
X211106540Y-36084010D03*
D11*
X208566540Y-41164010D03*
D10*
X204756540Y-38624010D03*
D12*
X203486540Y-41164010D03*
X213646540Y-41164010D03*
%TD*%
D10*
%TO.C,MX8*%
X192056460Y-36084010D03*
D11*
X189516460Y-41164010D03*
D10*
X185706460Y-38624010D03*
D12*
X184436460Y-41164010D03*
X194596460Y-41164010D03*
%TD*%
D10*
%TO.C,MX7*%
X173006380Y-36084010D03*
D11*
X170466380Y-41164010D03*
D10*
X166656380Y-38624010D03*
D12*
X165386380Y-41164010D03*
X175546380Y-41164010D03*
%TD*%
D10*
%TO.C,MX6*%
X153956300Y-36084010D03*
D11*
X151416300Y-41164010D03*
D10*
X147606300Y-38624010D03*
D12*
X146336300Y-41164010D03*
X156496300Y-41164010D03*
%TD*%
D10*
%TO.C,MX5*%
X130143700Y-36084010D03*
D11*
X127603700Y-41164010D03*
D10*
X123793700Y-38624010D03*
D12*
X122523700Y-41164010D03*
X132683700Y-41164010D03*
%TD*%
D10*
%TO.C,MX4*%
X111093620Y-36084010D03*
D11*
X108553620Y-41164010D03*
D10*
X104743620Y-38624010D03*
D12*
X103473620Y-41164010D03*
X113633620Y-41164010D03*
%TD*%
D10*
%TO.C,MX3*%
X92043540Y-36084010D03*
D11*
X89503540Y-41164010D03*
D10*
X85693540Y-38624010D03*
D12*
X84423540Y-41164010D03*
X94583540Y-41164010D03*
%TD*%
D10*
%TO.C,MX2*%
X72993460Y-36084010D03*
D11*
X70453460Y-41164010D03*
D10*
X66643460Y-38624010D03*
D12*
X65373460Y-41164010D03*
X75533460Y-41164010D03*
%TD*%
D10*
%TO.C,MX1*%
X49180860Y-36084010D03*
D11*
X46640860Y-41164010D03*
D10*
X42830860Y-38624010D03*
D12*
X41560860Y-41164010D03*
X51720860Y-41164010D03*
%TD*%
D18*
%TO.C,J1*%
X305689000Y-29337000D03*
X297039000Y-29337000D03*
X297039000Y-32717000D03*
X305689000Y-32717000D03*
D19*
X304339000Y-32347000D03*
X303489000Y-32347000D03*
X302639000Y-32347000D03*
X301789000Y-32347000D03*
X300939000Y-32347000D03*
X300089000Y-32347000D03*
X299239000Y-32347000D03*
X298389000Y-32347000D03*
X298389000Y-33697000D03*
X299239000Y-33697000D03*
X300089000Y-33697000D03*
X300939000Y-33697000D03*
X301789000Y-33697000D03*
X302639000Y-33697000D03*
X303489000Y-33697000D03*
X304339000Y-33697000D03*
%TD*%
%TO.C,F1*%
G36*
G01*
X302872544Y-42725500D02*
X304187456Y-42725500D01*
G75*
G02*
X304455000Y-42993044I0J-267544D01*
G01*
X304455000Y-43982956D01*
G75*
G02*
X304187456Y-44250500I-267544J0D01*
G01*
X302872544Y-44250500D01*
G75*
G02*
X302605000Y-43982956I0J267544D01*
G01*
X302605000Y-42993044D01*
G75*
G02*
X302872544Y-42725500I267544J0D01*
G01*
G37*
G36*
G01*
X302872544Y-39750500D02*
X304187456Y-39750500D01*
G75*
G02*
X304455000Y-40018044I0J-267544D01*
G01*
X304455000Y-41007956D01*
G75*
G02*
X304187456Y-41275500I-267544J0D01*
G01*
X302872544Y-41275500D01*
G75*
G02*
X302605000Y-41007956I0J267544D01*
G01*
X302605000Y-40018044D01*
G75*
G02*
X302872544Y-39750500I267544J0D01*
G01*
G37*
%TD*%
D14*
%TO.C,D89*%
X354457000Y-142113000D03*
X357757000Y-142113000D03*
%TD*%
%TO.C,D88*%
X335281000Y-142113000D03*
X338581000Y-142113000D03*
%TD*%
%TO.C,D87*%
X316231000Y-142113000D03*
X319531000Y-142113000D03*
%TD*%
%TO.C,D86*%
X297181000Y-142113000D03*
X300481000Y-142113000D03*
%TD*%
%TO.C,D85*%
X278259000Y-142113000D03*
X281559000Y-142113000D03*
%TD*%
%TO.C,D84*%
X259081000Y-142113000D03*
X262381000Y-142113000D03*
%TD*%
%TO.C,D83*%
X240031000Y-142113000D03*
X243331000Y-142113000D03*
%TD*%
%TO.C,D82*%
X170943000Y-142113000D03*
X174243000Y-142113000D03*
%TD*%
%TO.C,D81*%
X99569000Y-142113000D03*
X102869000Y-142113000D03*
%TD*%
%TO.C,D80*%
X75693000Y-142113000D03*
X78993000Y-142113000D03*
%TD*%
%TO.C,D79*%
X52071000Y-142113000D03*
X55371000Y-142113000D03*
%TD*%
%TO.C,D78*%
X354331000Y-123063000D03*
X357631000Y-123063000D03*
%TD*%
%TO.C,D77*%
X335281000Y-123063000D03*
X338581000Y-123063000D03*
%TD*%
%TO.C,D76*%
X316231000Y-123063000D03*
X319531000Y-123063000D03*
%TD*%
%TO.C,D74*%
X263907000Y-123063000D03*
X267207000Y-123063000D03*
%TD*%
%TO.C,D73*%
X244857000Y-123063000D03*
X248157000Y-123063000D03*
%TD*%
%TO.C,D72*%
X225807000Y-123063000D03*
X229107000Y-123063000D03*
%TD*%
%TO.C,D71*%
X206757000Y-123063000D03*
X210057000Y-123063000D03*
%TD*%
%TO.C,D70*%
X187707000Y-123063000D03*
X191007000Y-123063000D03*
%TD*%
%TO.C,D69*%
X168657000Y-123063000D03*
X171957000Y-123063000D03*
%TD*%
%TO.C,D68*%
X149735000Y-123063000D03*
X153035000Y-123063000D03*
%TD*%
%TO.C,D67*%
X130557000Y-123063000D03*
X133857000Y-123063000D03*
%TD*%
%TO.C,D66*%
X111635000Y-123063000D03*
X114935000Y-123063000D03*
%TD*%
%TO.C,D65*%
X92583000Y-123063000D03*
X95883000Y-123063000D03*
%TD*%
%TO.C,D64*%
X61469000Y-123063000D03*
X64769000Y-123063000D03*
%TD*%
%TO.C,D63*%
X354331000Y-104013000D03*
X357631000Y-104013000D03*
%TD*%
%TO.C,D62*%
X335407000Y-104013000D03*
X338707000Y-104013000D03*
%TD*%
%TO.C,D61*%
X304293000Y-104013000D03*
X307593000Y-104013000D03*
%TD*%
%TO.C,D60*%
X273431000Y-104013000D03*
X276731000Y-104013000D03*
%TD*%
%TO.C,D59*%
X254383000Y-104013000D03*
X257683000Y-104013000D03*
%TD*%
%TO.C,D58*%
X235333000Y-104013000D03*
X238633000Y-104013000D03*
%TD*%
%TO.C,D57*%
X216283000Y-104013000D03*
X219583000Y-104013000D03*
%TD*%
%TO.C,D56*%
X197231000Y-104013000D03*
X200531000Y-104013000D03*
%TD*%
%TO.C,D55*%
X178183000Y-104013000D03*
X181483000Y-104013000D03*
%TD*%
%TO.C,D54*%
X159133000Y-104013000D03*
X162433000Y-104013000D03*
%TD*%
%TO.C,D53*%
X140209000Y-104013000D03*
X143509000Y-104013000D03*
%TD*%
%TO.C,D52*%
X121033000Y-104013000D03*
X124333000Y-104013000D03*
%TD*%
%TO.C,D51*%
X101983000Y-104013000D03*
X105283000Y-104013000D03*
%TD*%
%TO.C,D50*%
X82933000Y-104013000D03*
X86233000Y-104013000D03*
%TD*%
%TO.C,D49*%
X56771000Y-104013000D03*
X60071000Y-104013000D03*
%TD*%
%TO.C,D48*%
X354331000Y-84963000D03*
X357631000Y-84963000D03*
%TD*%
%TO.C,D47*%
X335409000Y-84963000D03*
X338709000Y-84963000D03*
%TD*%
%TO.C,D46*%
X311531000Y-84963000D03*
X314831000Y-84963000D03*
%TD*%
%TO.C,D45*%
X287783000Y-84963000D03*
X291083000Y-84963000D03*
%TD*%
%TO.C,D44*%
X268607000Y-84963000D03*
X271907000Y-84963000D03*
%TD*%
%TO.C,D43*%
X249557000Y-84963000D03*
X252857000Y-84963000D03*
%TD*%
%TO.C,D42*%
X230507000Y-84963000D03*
X233807000Y-84963000D03*
%TD*%
%TO.C,D41*%
X211583000Y-84963000D03*
X214883000Y-84963000D03*
%TD*%
%TO.C,D40*%
X192533000Y-84963000D03*
X195833000Y-84963000D03*
%TD*%
%TO.C,D39*%
X173357000Y-84963000D03*
X176657000Y-84963000D03*
%TD*%
%TO.C,D38*%
X154307000Y-84963000D03*
X157607000Y-84963000D03*
%TD*%
%TO.C,D37*%
X135383000Y-84963000D03*
X138683000Y-84963000D03*
%TD*%
%TO.C,D36*%
X116207000Y-84963000D03*
X119507000Y-84963000D03*
%TD*%
%TO.C,D35*%
X97157000Y-84963000D03*
X100457000Y-84963000D03*
%TD*%
%TO.C,D34*%
X78107000Y-84963000D03*
X81407000Y-84963000D03*
%TD*%
%TO.C,D33*%
X54357000Y-84963000D03*
X57657000Y-84963000D03*
%TD*%
%TO.C,D32*%
X354459000Y-65913000D03*
X357759000Y-65913000D03*
%TD*%
%TO.C,D31*%
X335281000Y-65913000D03*
X338581000Y-65913000D03*
%TD*%
%TO.C,D30*%
X306833000Y-65913000D03*
X310133000Y-65913000D03*
%TD*%
%TO.C,D29*%
X278131000Y-65913000D03*
X281431000Y-65913000D03*
%TD*%
%TO.C,D28*%
X259207000Y-65913000D03*
X262507000Y-65913000D03*
%TD*%
%TO.C,D27*%
X240159000Y-65913000D03*
X243459000Y-65913000D03*
%TD*%
%TO.C,D26*%
X221107000Y-65913000D03*
X224407000Y-65913000D03*
%TD*%
%TO.C,D25*%
X202059000Y-65913000D03*
X205359000Y-65913000D03*
%TD*%
%TO.C,D24*%
X182881000Y-65913000D03*
X186181000Y-65913000D03*
%TD*%
%TO.C,D23*%
X163959000Y-65913000D03*
X167259000Y-65913000D03*
%TD*%
%TO.C,D22*%
X144781000Y-65913000D03*
X148081000Y-65913000D03*
%TD*%
%TO.C,D21*%
X125859000Y-65913000D03*
X129159000Y-65913000D03*
%TD*%
%TO.C,D20*%
X106809000Y-65913000D03*
X110109000Y-65913000D03*
%TD*%
%TO.C,D19*%
X87759000Y-65913000D03*
X91059000Y-65913000D03*
%TD*%
%TO.C,D18*%
X68709000Y-65913000D03*
X72009000Y-65913000D03*
%TD*%
%TO.C,D17*%
X49659000Y-65913000D03*
X52959000Y-65913000D03*
%TD*%
%TO.C,D16*%
X354459000Y-46863000D03*
X357759000Y-46863000D03*
%TD*%
%TO.C,D15*%
X335409000Y-46863000D03*
X338709000Y-46863000D03*
%TD*%
%TO.C,D14*%
X316231000Y-46863000D03*
X319531000Y-46863000D03*
%TD*%
%TO.C,D13*%
X292483000Y-46863000D03*
X295783000Y-46863000D03*
%TD*%
%TO.C,D12*%
X273433000Y-46863000D03*
X276733000Y-46863000D03*
%TD*%
%TO.C,D11*%
X254383000Y-46863000D03*
X257683000Y-46863000D03*
%TD*%
%TO.C,D10*%
X235333000Y-46863000D03*
X238633000Y-46863000D03*
%TD*%
%TO.C,D9*%
X211583000Y-46863000D03*
X214883000Y-46863000D03*
%TD*%
%TO.C,D8*%
X192407000Y-46863000D03*
X195707000Y-46863000D03*
%TD*%
%TO.C,D7*%
X173357000Y-46863000D03*
X176657000Y-46863000D03*
%TD*%
%TO.C,D6*%
X154307000Y-46863000D03*
X157607000Y-46863000D03*
%TD*%
%TO.C,D5*%
X130557000Y-46863000D03*
X133857000Y-46863000D03*
%TD*%
%TO.C,D4*%
X111507000Y-46863000D03*
X114807000Y-46863000D03*
%TD*%
%TO.C,D3*%
X92457000Y-46863000D03*
X95757000Y-46863000D03*
%TD*%
%TO.C,D2*%
X73407000Y-46863000D03*
X76707000Y-46863000D03*
%TD*%
%TO.C,D1*%
X49531000Y-46863000D03*
X52831000Y-46863000D03*
%TD*%
%TO.C,C8*%
G36*
G01*
X208055738Y-142631000D02*
X209012262Y-142631000D01*
G75*
G02*
X209284000Y-142902738I0J-271738D01*
G01*
X209284000Y-143609262D01*
G75*
G02*
X209012262Y-143881000I-271738J0D01*
G01*
X208055738Y-143881000D01*
G75*
G02*
X207784000Y-143609262I0J271738D01*
G01*
X207784000Y-142902738D01*
G75*
G02*
X208055738Y-142631000I271738J0D01*
G01*
G37*
G36*
G01*
X208055738Y-140581000D02*
X209012262Y-140581000D01*
G75*
G02*
X209284000Y-140852738I0J-271738D01*
G01*
X209284000Y-141559262D01*
G75*
G02*
X209012262Y-141831000I-271738J0D01*
G01*
X208055738Y-141831000D01*
G75*
G02*
X207784000Y-141559262I0J271738D01*
G01*
X207784000Y-140852738D01*
G75*
G02*
X208055738Y-140581000I271738J0D01*
G01*
G37*
%TD*%
%TO.C,C7*%
G36*
G01*
X212969000Y-136681738D02*
X212969000Y-137638262D01*
G75*
G02*
X212697262Y-137910000I-271738J0D01*
G01*
X211990738Y-137910000D01*
G75*
G02*
X211719000Y-137638262I0J271738D01*
G01*
X211719000Y-136681738D01*
G75*
G02*
X211990738Y-136410000I271738J0D01*
G01*
X212697262Y-136410000D01*
G75*
G02*
X212969000Y-136681738I0J-271738D01*
G01*
G37*
G36*
G01*
X215019000Y-136681738D02*
X215019000Y-137638262D01*
G75*
G02*
X214747262Y-137910000I-271738J0D01*
G01*
X214040738Y-137910000D01*
G75*
G02*
X213769000Y-137638262I0J271738D01*
G01*
X213769000Y-136681738D01*
G75*
G02*
X214040738Y-136410000I271738J0D01*
G01*
X214747262Y-136410000D01*
G75*
G02*
X215019000Y-136681738I0J-271738D01*
G01*
G37*
%TD*%
%TO.C,C6*%
G36*
G01*
X202964124Y-126595759D02*
X202287760Y-127272124D01*
G75*
G02*
X201903464Y-127272124I-192148J192148D01*
G01*
X201403876Y-126772536D01*
G75*
G02*
X201403876Y-126388240I192148J192148D01*
G01*
X202080240Y-125711876D01*
G75*
G02*
X202464536Y-125711876I192148J-192148D01*
G01*
X202964124Y-126211464D01*
G75*
G02*
X202964124Y-126595760I-192148J-192148D01*
G01*
G37*
G36*
G01*
X204413692Y-128045327D02*
X203737328Y-128721692D01*
G75*
G02*
X203353032Y-128721692I-192148J192148D01*
G01*
X202853444Y-128222104D01*
G75*
G02*
X202853444Y-127837808I192148J192148D01*
G01*
X203529808Y-127161444D01*
G75*
G02*
X203914104Y-127161444I192148J-192148D01*
G01*
X204413692Y-127661032D01*
G75*
G02*
X204413692Y-128045328I-192148J-192148D01*
G01*
G37*
%TD*%
%TO.C,C5*%
G36*
G01*
X210843241Y-135347556D02*
X210166876Y-134671192D01*
G75*
G02*
X210166876Y-134286896I192148J192148D01*
G01*
X210666464Y-133787308D01*
G75*
G02*
X211050760Y-133787308I192148J-192148D01*
G01*
X211727124Y-134463672D01*
G75*
G02*
X211727124Y-134847968I-192148J-192148D01*
G01*
X211227536Y-135347556D01*
G75*
G02*
X210843240Y-135347556I-192148J192148D01*
G01*
G37*
G36*
G01*
X209393673Y-136797124D02*
X208717308Y-136120760D01*
G75*
G02*
X208717308Y-135736464I192148J192148D01*
G01*
X209216896Y-135236876D01*
G75*
G02*
X209601192Y-135236876I192148J-192148D01*
G01*
X210277556Y-135913240D01*
G75*
G02*
X210277556Y-136297536I-192148J-192148D01*
G01*
X209777968Y-136797124D01*
G75*
G02*
X209393672Y-136797124I-192148J192148D01*
G01*
G37*
%TD*%
%TO.C,C4*%
G36*
G01*
X197282191Y-127669444D02*
X197958556Y-128345808D01*
G75*
G02*
X197958556Y-128730104I-192148J-192148D01*
G01*
X197458968Y-129229692D01*
G75*
G02*
X197074672Y-129229692I-192148J192148D01*
G01*
X196398308Y-128553328D01*
G75*
G02*
X196398308Y-128169032I192148J192148D01*
G01*
X196897896Y-127669444D01*
G75*
G02*
X197282192Y-127669444I192148J-192148D01*
G01*
G37*
G36*
G01*
X198731759Y-126219876D02*
X199408124Y-126896240D01*
G75*
G02*
X199408124Y-127280536I-192148J-192148D01*
G01*
X198908536Y-127780124D01*
G75*
G02*
X198524240Y-127780124I-192148J192148D01*
G01*
X197847876Y-127103760D01*
G75*
G02*
X197847876Y-126719464I192148J192148D01*
G01*
X198347464Y-126219876D01*
G75*
G02*
X198731760Y-126219876I192148J-192148D01*
G01*
G37*
%TD*%
%TO.C,C3*%
G36*
G01*
X191059191Y-133892444D02*
X191735556Y-134568808D01*
G75*
G02*
X191735556Y-134953104I-192148J-192148D01*
G01*
X191235968Y-135452692D01*
G75*
G02*
X190851672Y-135452692I-192148J192148D01*
G01*
X190175308Y-134776328D01*
G75*
G02*
X190175308Y-134392032I192148J192148D01*
G01*
X190674896Y-133892444D01*
G75*
G02*
X191059192Y-133892444I192148J-192148D01*
G01*
G37*
G36*
G01*
X192508759Y-132442876D02*
X193185124Y-133119240D01*
G75*
G02*
X193185124Y-133503536I-192148J-192148D01*
G01*
X192685536Y-134003124D01*
G75*
G02*
X192301240Y-134003124I-192148J192148D01*
G01*
X191624876Y-133326760D01*
G75*
G02*
X191624876Y-132942464I192148J192148D01*
G01*
X192124464Y-132442876D01*
G75*
G02*
X192508760Y-132442876I192148J-192148D01*
G01*
G37*
%TD*%
%TO.C,C2*%
G36*
G01*
X196196000Y-143793738D02*
X196196000Y-144750262D01*
G75*
G02*
X195924262Y-145022000I-271738J0D01*
G01*
X195217738Y-145022000D01*
G75*
G02*
X194946000Y-144750262I0J271738D01*
G01*
X194946000Y-143793738D01*
G75*
G02*
X195217738Y-143522000I271738J0D01*
G01*
X195924262Y-143522000D01*
G75*
G02*
X196196000Y-143793738I0J-271738D01*
G01*
G37*
G36*
G01*
X198246000Y-143793738D02*
X198246000Y-144750262D01*
G75*
G02*
X197974262Y-145022000I-271738J0D01*
G01*
X197267738Y-145022000D01*
G75*
G02*
X196996000Y-144750262I0J271738D01*
G01*
X196996000Y-143793738D01*
G75*
G02*
X197267738Y-143522000I271738J0D01*
G01*
X197974262Y-143522000D01*
G75*
G02*
X198246000Y-143793738I0J-271738D01*
G01*
G37*
%TD*%
%TO.C,C1*%
G36*
G01*
X207033241Y-129558124D02*
X206356876Y-128881760D01*
G75*
G02*
X206356876Y-128497464I192148J192148D01*
G01*
X206856464Y-127997876D01*
G75*
G02*
X207240760Y-127997876I192148J-192148D01*
G01*
X207917124Y-128674240D01*
G75*
G02*
X207917124Y-129058536I-192148J-192148D01*
G01*
X207417536Y-129558124D01*
G75*
G02*
X207033240Y-129558124I-192148J192148D01*
G01*
G37*
G36*
G01*
X205583673Y-131007692D02*
X204907308Y-130331328D01*
G75*
G02*
X204907308Y-129947032I192148J192148D01*
G01*
X205406896Y-129447444D01*
G75*
G02*
X205791192Y-129447444I192148J-192148D01*
G01*
X206467556Y-130123808D01*
G75*
G02*
X206467556Y-130508104I-192148J-192148D01*
G01*
X205967968Y-131007692D01*
G75*
G02*
X205583672Y-131007692I-192148J192148D01*
G01*
G37*
%TD*%
M02*
