M48
; DRILL file {KiCad (5.1.6)-1} date 11/27/20 09:17:20
; FORMAT={-:-/ absolute / inch / decimal}
; #@! TF.CreationDate,2020-11-27T09:17:20-06:00
; #@! TF.GenerationSoftware,Kicad,Pcbnew,(5.1.6)-1
; #@! TF.FileFunction,NonPlated,1,2,NPTH
FMAT,2
INCH
T1C0.0689
T2C0.1200
T3C0.1570
%
G90
G05
T1
X4.4488Y-3.8706
X4.8488Y-3.8706
X9.5113Y-3.1206
X9.9113Y-3.1206
X5.3863Y-2.3706
X5.7863Y-2.3706
X3.605Y-5.3706
X4.005Y-5.3706
X9.1363Y-2.3706
X9.5363Y-2.3706
X6.6988Y-3.8706
X7.0988Y-3.8706
X12.1363Y-1.6206
X12.5363Y-1.6206
X10.4488Y-3.8706
X10.8488Y-3.8706
X6.4175Y-5.3706
X6.8175Y-5.3706
X11.1988Y-1.6206
X11.5988Y-1.6206
X11.0113Y-3.1206
X11.4113Y-3.1206
X5.9488Y-3.8706
X6.3488Y-3.8706
X11.9488Y-3.1206
X12.3488Y-3.1206
X9.8863Y-5.3706
X10.2863Y-5.3706
X6.1363Y-2.3706
X6.5363Y-2.3706
X2.7613Y-3.1206
X3.1613Y-3.1206
X5.7613Y-1.6206
X6.1613Y-1.6206
X8.1988Y-3.8706
X8.5988Y-3.8706
X12.8863Y-4.6206
X13.2863Y-4.6206
X8.9488Y-1.6206
X9.3488Y-1.6206
X12.8863Y-3.8706
X13.2863Y-3.8706
X4.0738Y-1.6206
X4.4738Y-1.6206
X8.0113Y-3.1206
X8.4113Y-3.1206
X5.1988Y-3.8706
X5.5988Y-3.8706
X3.6988Y-3.8706
X4.0988Y-3.8706
X12.8863Y-2.3706
X13.2863Y-2.3706
X6.8863Y-2.3706
X7.2863Y-2.3706
X11.6675Y-3.8706
X12.0675Y-3.8706
X11.105Y-4.6206
X11.505Y-4.6206
X3.5113Y-3.1206
X3.9113Y-3.1206
X10.4488Y-1.6206
X10.8488Y-1.6206
X7.4488Y-3.8706
X7.8488Y-3.8706
X13.6363Y-4.6206
X14.0363Y-4.6206
X8.0113Y-1.6206
X8.4113Y-1.6206
X6.3238Y-4.6206
X6.7238Y-4.6206
X11.3863Y-5.3706
X11.7863Y-5.3706
X1.6363Y-2.3706
X2.0363Y-2.3706
X10.2613Y-3.1206
X10.6613Y-3.1206
X5.0113Y-3.1206
X5.4113Y-3.1206
X1.9175Y-3.8706
X2.3175Y-3.8706
X3.1363Y-2.3706
X3.5363Y-2.3706
X8.3863Y-2.3706
X8.7863Y-2.3706
X13.6363Y-3.8706
X14.0363Y-3.8706
X1.8238Y-3.1206
X2.2238Y-3.1206
X12.8863Y-1.6206
X13.2863Y-1.6206
X8.9488Y-3.8706
X9.3488Y-3.8706
X10.6363Y-5.3706
X11.0363Y-5.3706
X1.6363Y-1.6206
X2.0363Y-1.6206
X7.8238Y-4.6206
X8.2238Y-4.6206
X10.0738Y-4.6206
X10.4738Y-4.6206
X7.2613Y-1.6206
X7.6613Y-1.6206
X12.8863Y-3.1206
X13.2863Y-3.1206
X5.7613Y-3.1206
X6.1613Y-3.1206
X6.5113Y-3.1206
X6.9113Y-3.1206
X9.3238Y-4.6206
X9.7238Y-4.6206
X4.2613Y-3.1206
X4.6613Y-3.1206
X13.6363Y-2.3706
X14.0363Y-2.3706
X3.3238Y-4.6206
X3.7238Y-4.6206
X9.8863Y-2.3706
X10.2863Y-2.3706
X13.6363Y-1.6206
X14.0363Y-1.6206
X9.6988Y-3.8706
X10.0988Y-3.8706
X1.73Y-5.3706
X2.13Y-5.3706
X2.5738Y-1.6206
X2.9738Y-1.6206
X2.105Y-4.6206
X2.505Y-4.6206
X6.5113Y-1.6206
X6.9113Y-1.6206
X2.9488Y-3.8706
X3.3488Y-3.8706
X7.2613Y-3.1206
X7.6613Y-3.1206
X9.1363Y-5.3706
X9.5363Y-5.3706
X3.8863Y-2.3706
X4.2863Y-2.3706
X11.7613Y-2.3706
X12.1613Y-2.3706
X4.0738Y-4.6206
X4.4738Y-4.6206
X10.6363Y-2.3706
X11.0363Y-2.3706
X2.3863Y-2.3706
X2.7863Y-2.3706
X5.5738Y-4.6206
X5.9738Y-4.6206
X3.3238Y-1.6206
X3.7238Y-1.6206
X4.8238Y-4.6206
X5.2238Y-4.6206
X12.8863Y-5.3706
X13.2863Y-5.3706
X13.6363Y-3.1206
X14.0363Y-3.1206
X8.7613Y-3.1206
X9.1613Y-3.1206
X13.6363Y-5.3706
X14.0363Y-5.3706
X12.1363Y-5.3706
X12.5363Y-5.3706
X4.6363Y-2.3706
X5.0363Y-2.3706
X7.6363Y-2.3706
X8.0363Y-2.3706
X8.5738Y-4.6206
X8.9738Y-4.6206
X2.6675Y-5.3706
X3.0675Y-5.3706
X9.6988Y-1.6206
X10.0988Y-1.6206
X7.0738Y-4.6206
X7.4738Y-4.6206
X12.1363Y-4.6206
X12.5363Y-4.6206
X4.8238Y-1.6206
X5.2238Y-1.6206
T2
X11.3988Y-3.5956
X1.8363Y-4.3456
X2.7738Y-4.3456
X11.4925Y-2.0956
X12.43Y-2.0956
X4.649Y-5.6456
X8.586Y-5.6456
X12.3363Y-3.5956
T3
X8.2113Y-3.1206
X5.3988Y-3.8706
X3.8988Y-3.8706
X13.0863Y-2.3706
X7.0863Y-2.3706
X11.3988Y-4.1956
X11.8675Y-3.8706
X12.3363Y-4.1956
X11.305Y-4.6206
X3.7113Y-3.1206
X10.6488Y-1.6206
X7.6488Y-3.8706
X13.8363Y-4.6206
X8.2113Y-1.6206
X6.5238Y-4.6206
X11.5863Y-5.3706
X1.8363Y-2.3706
X10.4613Y-3.1206
X5.2113Y-3.1206
X2.1175Y-3.8706
X3.3363Y-2.3706
X8.5863Y-2.3706
X13.8363Y-3.8706
X2.0238Y-3.1206
X13.0863Y-1.6206
X9.1488Y-3.8706
X10.8363Y-5.3706
X1.8363Y-1.6206
X8.0238Y-4.6206
X10.2738Y-4.6206
X7.4613Y-1.6206
X13.0863Y-3.1206
X5.9613Y-3.1206
X6.7113Y-3.1206
X9.5238Y-4.6206
X4.4613Y-3.1206
X13.8363Y-2.3706
X3.5238Y-4.6206
X10.0863Y-2.3706
X13.8363Y-1.6206
X9.8988Y-3.8706
X1.93Y-5.3706
X2.7738Y-1.6206
X1.8363Y-4.9456
X2.305Y-4.6206
X2.7738Y-4.9456
X6.7113Y-1.6206
X3.1488Y-3.8706
X7.4613Y-3.1206
X9.3363Y-5.3706
X4.0863Y-2.3706
X11.4925Y-2.6956
X11.9613Y-2.3706
X12.43Y-2.6956
X4.2738Y-4.6206
X10.8363Y-2.3706
X2.5863Y-2.3706
X5.7738Y-4.6206
X3.5238Y-1.6206
X5.0238Y-4.6206
X13.0863Y-5.3706
X13.8363Y-3.1206
X8.9613Y-3.1206
X13.8363Y-5.3706
X12.3363Y-5.3706
X4.8363Y-2.3706
X7.8363Y-2.3706
X8.7738Y-4.6206
X2.8675Y-5.3706
X9.8988Y-1.6206
X7.2738Y-4.6206
X12.3363Y-4.6206
X5.0238Y-1.6206
X4.6488Y-3.8706
X9.7113Y-3.1206
X5.5863Y-2.3706
X3.805Y-5.3706
X9.3363Y-2.3706
X6.8988Y-3.8706
X12.3363Y-1.6206
X10.6488Y-3.8706
X4.649Y-5.0456
X6.6175Y-5.3706
X8.586Y-5.0456
X11.3988Y-1.6206
X11.2113Y-3.1206
X6.1488Y-3.8706
X12.1488Y-3.1206
X10.0863Y-5.3706
X6.3363Y-2.3706
X2.9613Y-3.1206
X5.9613Y-1.6206
X8.3988Y-3.8706
X13.0863Y-4.6206
X9.1488Y-1.6206
X13.0863Y-3.8706
X4.2738Y-1.6206
T0
M30
