M48
; DRILL file {KiCad (5.1.6)-1} date 11/27/20 09:17:20
; FORMAT={-:-/ absolute / inch / decimal}
; #@! TF.CreationDate,2020-11-27T09:17:20-06:00
; #@! TF.GenerationSoftware,Kicad,Pcbnew,(5.1.6)-1
; #@! TF.FileFunction,Plated,1,2,PTH
FMAT,2
INCH
T1C0.0157
T2C0.0236
T3C0.0579
%
G90
G05
T1
X2.0Y-5.25
X2.1Y-5.25
X2.93Y-5.51
X3.03Y-5.51
X3.085Y-4.87
X3.085Y-4.96
X3.87Y-5.51
X3.97Y-5.51
X6.68Y-5.51
X6.78Y-5.51
X7.0825Y-5.24
X7.0825Y-5.4825
X7.3958Y-5.3442
X7.4236Y-5.3164
X7.4515Y-5.2885
X7.4793Y-5.2607
X7.5072Y-5.2328
X7.535Y-5.205
X7.5867Y-5.4898
X7.6Y-5.705
X7.616Y-5.516
X7.69Y-5.0575
X7.835Y-5.685
X7.855Y-4.965
X7.9Y-5.675
X7.9925Y-5.66
X8.0325Y-5.66
X8.05Y-5.415
X8.065Y-4.995
X8.0719Y-5.66
X8.1112Y-5.6581
X8.1248Y-5.1798
X8.15Y-5.64
X8.165Y-5.49
X8.215Y-5.385
X8.235Y-5.285
X8.305Y-5.4165
X8.3061Y-5.0994
X8.3061Y-5.1388
X8.3061Y-5.1781
X8.3061Y-5.2175
X8.335Y-4.9014
X8.335Y-4.9586
X8.34Y-5.26
X8.375Y-4.9586
X10.64Y-4.865
X10.64Y-4.95
X10.705Y-4.915
X10.88Y-4.165
X10.9Y-4.915
X11.105Y-4.165
X11.555Y-2.585
X11.63Y-3.415
X11.73Y-1.915
X11.745Y-1.365
X11.7844Y-1.365
X11.825Y-2.665
X11.855Y-3.415
X11.905Y-1.37
X11.945Y-1.915
X12.015Y-1.595
X11.7476Y-1.2735
X11.7476Y-1.3267
X11.7811Y-1.2735
X11.7811Y-1.3267
X11.8145Y-1.2735
X11.8145Y-1.3267
X11.848Y-1.2735
X11.848Y-1.3267
X11.8815Y-1.2735
X11.8815Y-1.3267
X11.9149Y-1.2735
X11.9149Y-1.3267
X11.9484Y-1.2735
X11.9484Y-1.3267
X11.9819Y-1.2735
X11.9819Y-1.3267
T3
X11.0613Y-3.0206
X11.3113Y-2.9206
X5.9988Y-3.7706
X6.2488Y-3.6706
X11.9988Y-3.0206
X12.2488Y-2.9206
X9.9363Y-5.2706
X10.1863Y-5.1706
X6.1863Y-2.2706
X6.4363Y-2.1706
X2.8113Y-3.0206
X3.0613Y-2.9206
X5.8113Y-1.5206
X6.0613Y-1.4206
X8.2488Y-3.7706
X8.4988Y-3.6706
X12.9363Y-4.5206
X13.1863Y-4.4206
X8.9988Y-1.5206
X9.2488Y-1.4206
X12.9363Y-3.7706
X13.1863Y-3.6706
X4.1238Y-1.5206
X4.3738Y-1.4206
X8.0613Y-3.0206
X8.3113Y-2.9206
X5.2488Y-3.7706
X5.4988Y-3.6706
X3.7488Y-3.7706
X3.9988Y-3.6706
X12.9363Y-2.2706
X13.1863Y-2.1706
X6.9363Y-2.2706
X7.1863Y-2.1706
X11.7175Y-3.7706
X11.9675Y-3.6706
X11.155Y-4.5206
X11.405Y-4.4206
X3.5613Y-3.0206
X3.8113Y-2.9206
X10.4988Y-1.5206
X10.7488Y-1.4206
X7.4988Y-3.7706
X7.7488Y-3.6706
X13.6863Y-4.5206
X13.9363Y-4.4206
X8.0613Y-1.5206
X8.3113Y-1.4206
X6.3738Y-4.5206
X6.6238Y-4.4206
X11.4363Y-5.2706
X11.6863Y-5.1706
X1.6863Y-2.2706
X1.9363Y-2.1706
X10.3113Y-3.0206
X10.5613Y-2.9206
X5.0613Y-3.0206
X5.3113Y-2.9206
X1.9675Y-3.7706
X2.2175Y-3.6706
X3.1863Y-2.2706
X3.4363Y-2.1706
X8.4363Y-2.2706
X8.6863Y-2.1706
X13.6863Y-3.7706
X13.9363Y-3.6706
X1.8738Y-3.0206
X2.1238Y-2.9206
X12.9363Y-1.5206
X13.1863Y-1.4206
X8.9988Y-3.7706
X9.2488Y-3.6706
X10.6863Y-5.2706
X10.9363Y-5.1706
X1.6863Y-1.5206
X1.9363Y-1.4206
X7.8738Y-4.5206
X8.1238Y-4.4206
X10.1238Y-4.5206
X10.3738Y-4.4206
X7.3113Y-1.5206
X7.5613Y-1.4206
X12.9363Y-3.0206
X13.1863Y-2.9206
X5.8113Y-3.0206
X6.0613Y-2.9206
X6.5613Y-3.0206
X6.8113Y-2.9206
X9.3738Y-4.5206
X9.6238Y-4.4206
X4.3113Y-3.0206
X4.5613Y-2.9206
X13.6863Y-2.2706
X13.9363Y-2.1706
X3.3738Y-4.5206
X3.6238Y-4.4206
X9.9363Y-2.2706
X10.1863Y-2.1706
X13.6863Y-1.5206
X13.9363Y-1.4206
X9.7488Y-3.7706
X9.9988Y-3.6706
X1.78Y-5.2706
X2.03Y-5.1706
X2.6238Y-1.5206
X2.8738Y-1.4206
X2.155Y-4.5206
X2.405Y-4.4206
X6.5613Y-1.5206
X6.8113Y-1.4206
X2.9988Y-3.7706
X3.2488Y-3.6706
X7.3113Y-3.0206
X7.5613Y-2.9206
X9.1863Y-5.2706
X9.4363Y-5.1706
X3.9363Y-2.2706
X4.1863Y-2.1706
X11.8113Y-2.2706
X12.0613Y-2.1706
X4.1238Y-4.5206
X4.3738Y-4.4206
X10.6863Y-2.2706
X10.9363Y-2.1706
X2.4363Y-2.2706
X2.6863Y-2.1706
X5.6238Y-4.5206
X5.8738Y-4.4206
X3.3738Y-1.5206
X3.6238Y-1.4206
X4.8738Y-4.5206
X5.1238Y-4.4206
X12.9363Y-5.2706
X13.1863Y-5.1706
X13.6863Y-3.0206
X13.9363Y-2.9206
X8.8113Y-3.0206
X9.0613Y-2.9206
X13.6863Y-5.2706
X13.9363Y-5.1706
X12.1863Y-5.2706
X12.4363Y-5.1706
X4.6863Y-2.2706
X4.9363Y-2.1706
X7.6863Y-2.2706
X7.9363Y-2.1706
X8.6238Y-4.5206
X8.8738Y-4.4206
X2.7175Y-5.2706
X2.9675Y-5.1706
X9.7488Y-1.5206
X9.9988Y-1.4206
X7.1238Y-4.5206
X7.3738Y-4.4206
X12.1863Y-4.5206
X12.4363Y-4.4206
X4.8738Y-1.5206
X5.1238Y-1.4206
X4.4988Y-3.7706
X4.7488Y-3.6706
X9.5613Y-3.0206
X9.8113Y-2.9206
X5.4363Y-2.2706
X5.6863Y-2.1706
X3.655Y-5.2706
X3.905Y-5.1706
X9.1863Y-2.2706
X9.4363Y-2.1706
X6.7488Y-3.7706
X6.9988Y-3.6706
X12.1863Y-1.5206
X12.4363Y-1.4206
X10.4988Y-3.7706
X10.7488Y-3.6706
X6.4675Y-5.2706
X6.7175Y-5.1706
X11.2488Y-1.5206
X11.4988Y-1.4206
T2
G00X11.6944Y-1.1707
M15
G01X11.6944Y-1.1393
M16
G05
G00X11.6944Y-1.3176
M15
G01X11.6944Y-1.2585
M16
G05
G00X12.035Y-1.1707
M15
G01X12.035Y-1.1393
M16
G05
G00X12.035Y-1.3176
M15
G01X12.035Y-1.2585
M16
G05
T0
M30
