  0
SECTION
  2
HEADER
  9
$ACADVER
  1
AC1009
  9
$EXTMIN
 10
0.0
 20
0.0
 30
0.0
  9
$EXTMAX
 10
1000.0
 20
1000.0
 30
0.0
  9
$FILLMODE
 70
 0
  9
$SPLFRAME
 70
 1
  0
ENDSEC
  0
SECTION
  2
TABLES
  0
TABLE
  2
LAYER
 70
1
  0
LAYER
  2
0
 70
     0
 62
     7
  6
CONTINUOUS
  0
ENDTAB
  0
ENDSEC
  0
SECTION
  2
ENTITIES
  0
LINE
  8
0
 62
     0
 10
337.946
 20
139.958
 30
0.0
 11
338.103
 21
139.951
 31
0.0
  0
LINE
  8
0
 62
     0
 10
338.103
 20
139.951
 30
0.0
 11
338.259
 21
139.933
 31
0.0
  0
LINE
  8
0
 62
     0
 10
338.259
 20
139.933
 30
0.0
 11
338.413
 21
139.902
 31
0.0
  0
LINE
  8
0
 62
     0
 10
338.413
 20
139.902
 30
0.0
 11
338.565
 21
139.86
 31
0.0
  0
LINE
  8
0
 62
     0
 10
338.565
 20
139.86
 30
0.0
 11
338.712
 21
139.805
 31
0.0
  0
LINE
  8
0
 62
     0
 10
338.712
 20
139.805
 30
0.0
 11
338.854
 21
139.74
 31
0.0
  0
LINE
  8
0
 62
     0
 10
338.854
 20
139.74
 30
0.0
 11
338.991
 21
139.663
 31
0.0
  0
LINE
  8
0
 62
     0
 10
338.991
 20
139.663
 30
0.0
 11
339.121
 21
139.576
 31
0.0
  0
LINE
  8
0
 62
     0
 10
339.121
 20
139.576
 30
0.0
 11
339.244
 21
139.478
 31
0.0
  0
LINE
  8
0
 62
     0
 10
339.244
 20
139.478
 30
0.0
 11
339.36
 21
139.372
 31
0.0
  0
LINE
  8
0
 62
     0
 10
339.36
 20
139.372
 30
0.0
 11
339.466
 21
139.256
 31
0.0
  0
LINE
  8
0
 62
     0
 10
339.466
 20
139.256
 30
0.0
 11
339.565
 21
139.134
 31
0.0
  0
LINE
  8
0
 62
     0
 10
339.565
 20
139.134
 30
0.0
 11
339.652
 21
139.003
 31
0.0
  0
LINE
  8
0
 62
     0
 10
339.652
 20
139.003
 30
0.0
 11
339.729
 21
138.865
 31
0.0
  0
LINE
  8
0
 62
     0
 10
339.729
 20
138.865
 30
0.0
 11
339.794
 21
138.723
 31
0.0
  0
LINE
  8
0
 62
     0
 10
339.794
 20
138.723
 30
0.0
 11
339.849
 21
138.577
 31
0.0
  0
LINE
  8
0
 62
     0
 10
339.849
 20
138.577
 30
0.0
 11
339.89
 21
138.424
 31
0.0
  0
LINE
  8
0
 62
     0
 10
339.89
 20
138.424
 30
0.0
 11
339.922
 21
138.271
 31
0.0
  0
LINE
  8
0
 62
     0
 10
339.922
 20
138.271
 30
0.0
 11
339.94
 21
138.114
 31
0.0
  0
LINE
  8
0
 62
     0
 10
339.94
 20
138.114
 30
0.0
 11
339.947
 21
137.957
 31
0.0
  0
LINE
  8
0
 62
     0
 10
339.947
 20
137.957
 30
0.0
 11
339.947
 21
2.13183
 31
0.0
  0
LINE
  8
0
 62
     0
 10
339.947
 20
2.13183
 30
0.0
 11
339.94
 21
1.97473
 31
0.0
  0
LINE
  8
0
 62
     0
 10
339.94
 20
1.97473
 30
0.0
 11
339.922
 21
1.81901
 31
0.0
  0
LINE
  8
0
 62
     0
 10
339.922
 20
1.81901
 30
0.0
 11
339.89
 21
1.66467
 31
0.0
  0
LINE
  8
0
 62
     0
 10
339.89
 20
1.66467
 30
0.0
 11
339.849
 21
1.51309
 31
0.0
  0
LINE
  8
0
 62
     0
 10
339.849
 20
1.51309
 30
0.0
 11
339.794
 21
1.36563
 31
0.0
  0
LINE
  8
0
 62
     0
 10
339.794
 20
1.36563
 30
0.0
 11
339.729
 21
1.2237
 31
0.0
  0
LINE
  8
0
 62
     0
 10
339.729
 20
1.2237
 30
0.0
 11
339.652
 21
1.08727
 31
0.0
  0
LINE
  8
0
 62
     0
 10
339.652
 20
1.08727
 30
0.0
 11
339.565
 21
0.956359
 31
0.0
  0
LINE
  8
0
 62
     0
 10
339.565
 20
0.956359
 30
0.0
 11
339.466
 21
0.833713
 31
0.0
  0
LINE
  8
0
 62
     0
 10
339.466
 20
0.833713
 30
0.0
 11
339.36
 21
0.717959
 31
0.0
  0
LINE
  8
0
 62
     0
 10
339.36
 20
0.717959
 30
0.0
 11
339.244
 21
0.611851
 31
0.0
  0
LINE
  8
0
 62
     0
 10
339.244
 20
0.611851
 30
0.0
 11
339.121
 21
0.512632
 31
0.0
  0
LINE
  8
0
 62
     0
 10
339.121
 20
0.512632
 30
0.0
 11
338.991
 21
0.425813
 31
0.0
  0
LINE
  8
0
 62
     0
 10
338.991
 20
0.425813
 30
0.0
 11
338.854
 21
0.348644
 31
0.0
  0
LINE
  8
0
 62
     0
 10
338.854
 20
0.348644
 30
0.0
 11
338.712
 21
0.283876
 31
0.0
  0
LINE
  8
0
 62
     0
 10
338.712
 20
0.283876
 30
0.0
 11
338.565
 21
0.228755
 31
0.0
  0
LINE
  8
0
 62
     0
 10
338.565
 20
0.228755
 30
0.0
 11
338.413
 21
0.187413
 31
0.0
  0
LINE
  8
0
 62
     0
 10
338.413
 20
0.187413
 30
0.0
 11
338.259
 21
0.155718
 31
0.0
  0
LINE
  8
0
 62
     0
 10
338.259
 20
0.155718
 30
0.0
 11
338.103
 21
0.137804
 31
0.0
  0
LINE
  8
0
 62
     0
 10
338.103
 20
0.137804
 30
0.0
 11
337.946
 21
0.130914
 31
0.0
  0
LINE
  8
0
 62
     0
 10
337.946
 20
0.130914
 30
0.0
 11
2.096
 21
0.130914
 31
0.0
  0
LINE
  8
0
 62
     0
 10
2.096
 20
0.130914
 30
0.0
 11
1.9389
 21
0.137804
 31
0.0
  0
LINE
  8
0
 62
     0
 10
1.9389
 20
0.137804
 30
0.0
 11
1.7818
 21
0.155718
 31
0.0
  0
LINE
  8
0
 62
     0
 10
1.7818
 20
0.155718
 30
0.0
 11
1.62884
 21
0.187413
 31
0.0
  0
LINE
  8
0
 62
     0
 10
1.62884
 20
0.187413
 30
0.0
 11
1.47588
 21
0.228755
 31
0.0
  0
LINE
  8
0
 62
     0
 10
1.47588
 20
0.228755
 30
0.0
 11
1.32981
 21
0.283876
 31
0.0
  0
LINE
  8
0
 62
     0
 10
1.32981
 20
0.283876
 30
0.0
 11
1.18787
 21
0.348644
 31
0.0
  0
LINE
  8
0
 62
     0
 10
1.18787
 20
0.348644
 30
0.0
 11
1.05006
 21
0.425813
 31
0.0
  0
LINE
  8
0
 62
     0
 10
1.05006
 20
0.425813
 30
0.0
 11
0.919152
 21
0.512632
 31
0.0
  0
LINE
  8
0
 62
     0
 10
0.919152
 20
0.512632
 30
0.0
 11
0.796505
 21
0.611851
 31
0.0
  0
LINE
  8
0
 62
     0
 10
0.796505
 20
0.611851
 30
0.0
 11
0.680752
 21
0.717959
 31
0.0
  0
LINE
  8
0
 62
     0
 10
0.680752
 20
0.717959
 30
0.0
 11
0.574643
 21
0.833713
 31
0.0
  0
LINE
  8
0
 62
     0
 10
0.574643
 20
0.833713
 30
0.0
 11
0.4768
 21
0.956359
 31
0.0
  0
LINE
  8
0
 62
     0
 10
0.4768
 20
0.956359
 30
0.0
 11
0.389985
 21
1.08727
 31
0.0
  0
LINE
  8
0
 62
     0
 10
0.389985
 20
1.08727
 30
0.0
 11
0.312815
 21
1.2237
 31
0.0
  0
LINE
  8
0
 62
     0
 10
0.312815
 20
1.2237
 30
0.0
 11
0.248047
 21
1.36563
 31
0.0
  0
LINE
  8
0
 62
     0
 10
0.248047
 20
1.36563
 30
0.0
 11
0.192925
 21
1.51309
 31
0.0
  0
LINE
  8
0
 62
     0
 10
0.192925
 20
1.51309
 30
0.0
 11
0.150206
 21
1.66467
 31
0.0
  0
LINE
  8
0
 62
     0
 10
0.150206
 20
1.66467
 30
0.0
 11
0.119889
 21
1.81901
 31
0.0
  0
LINE
  8
0
 62
     0
 10
0.119889
 20
1.81901
 30
0.0
 11
0.101975
 21
1.97473
 31
0.0
  0
LINE
  8
0
 62
     0
 10
0.101975
 20
1.97473
 30
0.0
 11
0.0950846
 21
2.13183
 31
0.0
  0
LINE
  8
0
 62
     0
 10
0.0950846
 20
2.13183
 30
0.0
 11
0.0950846
 21
137.957
 31
0.0
  0
LINE
  8
0
 62
     0
 10
0.0950846
 20
137.957
 30
0.0
 11
0.101975
 21
138.114
 31
0.0
  0
LINE
  8
0
 62
     0
 10
0.101975
 20
138.114
 30
0.0
 11
0.119889
 21
138.271
 31
0.0
  0
LINE
  8
0
 62
     0
 10
0.119889
 20
138.271
 30
0.0
 11
0.150206
 21
138.424
 31
0.0
  0
LINE
  8
0
 62
     0
 10
0.150206
 20
138.424
 30
0.0
 11
0.192925
 21
138.577
 31
0.0
  0
LINE
  8
0
 62
     0
 10
0.192925
 20
138.577
 30
0.0
 11
0.248047
 21
138.723
 31
0.0
  0
LINE
  8
0
 62
     0
 10
0.248047
 20
138.723
 30
0.0
 11
0.312815
 21
138.865
 31
0.0
  0
LINE
  8
0
 62
     0
 10
0.312815
 20
138.865
 30
0.0
 11
0.389985
 21
139.003
 31
0.0
  0
LINE
  8
0
 62
     0
 10
0.389985
 20
139.003
 30
0.0
 11
0.4768
 21
139.134
 31
0.0
  0
LINE
  8
0
 62
     0
 10
0.4768
 20
139.134
 30
0.0
 11
0.574643
 21
139.256
 31
0.0
  0
LINE
  8
0
 62
     0
 10
0.574643
 20
139.256
 30
0.0
 11
0.680752
 21
139.372
 31
0.0
  0
LINE
  8
0
 62
     0
 10
0.680752
 20
139.372
 30
0.0
 11
0.796505
 21
139.478
 31
0.0
  0
LINE
  8
0
 62
     0
 10
0.796505
 20
139.478
 30
0.0
 11
0.919152
 21
139.576
 31
0.0
  0
LINE
  8
0
 62
     0
 10
0.919152
 20
139.576
 30
0.0
 11
1.05006
 21
139.663
 31
0.0
  0
LINE
  8
0
 62
     0
 10
1.05006
 20
139.663
 30
0.0
 11
1.18787
 21
139.74
 31
0.0
  0
LINE
  8
0
 62
     0
 10
1.18787
 20
139.74
 30
0.0
 11
1.32981
 21
139.805
 31
0.0
  0
LINE
  8
0
 62
     0
 10
1.32981
 20
139.805
 30
0.0
 11
1.47588
 21
139.86
 31
0.0
  0
LINE
  8
0
 62
     0
 10
1.47588
 20
139.86
 30
0.0
 11
1.62884
 21
139.902
 31
0.0
  0
LINE
  8
0
 62
     0
 10
1.62884
 20
139.902
 30
0.0
 11
1.7818
 21
139.933
 31
0.0
  0
LINE
  8
0
 62
     0
 10
1.7818
 20
139.933
 30
0.0
 11
1.9389
 21
139.951
 31
0.0
  0
LINE
  8
0
 62
     0
 10
1.9389
 20
139.951
 30
0.0
 11
2.096
 21
139.958
 31
0.0
  0
LINE
  8
0
 62
     0
 10
2.096
 20
139.958
 30
0.0
 11
337.946
 21
139.958
 31
0.0
  0
LINE
  8
0
 62
     0
 10
3.63114
 20
5.55763
 30
0.0
 11
3.21359
 21
5.34539
 31
0.0
  0
LINE
  8
0
 62
     0
 10
3.21359
 20
5.34539
 30
0.0
 11
2.88148
 21
5.01329
 31
0.0
  0
LINE
  8
0
 62
     0
 10
2.88148
 20
5.01329
 30
0.0
 11
2.66788
 21
4.59574
 31
0.0
  0
LINE
  8
0
 62
     0
 10
2.66788
 20
4.59574
 30
0.0
 11
2.59485
 21
4.13135
 31
0.0
  0
LINE
  8
0
 62
     0
 10
2.59485
 20
4.13135
 30
0.0
 11
2.66788
 21
3.66832
 31
0.0
  0
LINE
  8
0
 62
     0
 10
2.66788
 20
3.66832
 30
0.0
 11
2.88148
 21
3.25079
 31
0.0
  0
LINE
  8
0
 62
     0
 10
2.88148
 20
3.25079
 30
0.0
 11
3.21359
 21
2.91869
 31
0.0
  0
LINE
  8
0
 62
     0
 10
3.21359
 20
2.91869
 30
0.0
 11
3.63114
 21
2.70509
 31
0.0
  0
LINE
  8
0
 62
     0
 10
3.63114
 20
2.70509
 30
0.0
 11
4.09554
 21
2.63067
 31
0.0
  0
LINE
  8
0
 62
     0
 10
4.09554
 20
2.63067
 30
0.0
 11
4.55856
 21
2.70509
 31
0.0
  0
LINE
  8
0
 62
     0
 10
4.55856
 20
2.70509
 30
0.0
 11
4.97611
 21
2.91869
 31
0.0
  0
LINE
  8
0
 62
     0
 10
4.97611
 20
2.91869
 30
0.0
 11
5.30821
 21
3.25079
 31
0.0
  0
LINE
  8
0
 62
     0
 10
5.30821
 20
3.25079
 30
0.0
 11
5.52178
 21
3.66832
 31
0.0
  0
LINE
  8
0
 62
     0
 10
5.52178
 20
3.66832
 30
0.0
 11
5.59484
 21
4.13135
 31
0.0
  0
LINE
  8
0
 62
     0
 10
5.59484
 20
4.13135
 30
0.0
 11
5.52178
 21
4.59574
 31
0.0
  0
LINE
  8
0
 62
     0
 10
5.52178
 20
4.59574
 30
0.0
 11
5.30821
 21
5.01329
 31
0.0
  0
LINE
  8
0
 62
     0
 10
5.30821
 20
5.01329
 30
0.0
 11
4.97611
 21
5.34539
 31
0.0
  0
LINE
  8
0
 62
     0
 10
4.97611
 20
5.34539
 30
0.0
 11
4.55856
 21
5.55763
 31
0.0
  0
LINE
  8
0
 62
     0
 10
4.55856
 20
5.55763
 30
0.0
 11
4.09554
 21
5.63065
 31
0.0
  0
LINE
  8
0
 62
     0
 10
4.09554
 20
5.63065
 30
0.0
 11
3.63114
 21
5.55763
 31
0.0
  0
LINE
  8
0
 62
     0
 10
114.249
 20
5.55763
 30
0.0
 11
113.83
 21
5.34539
 31
0.0
  0
LINE
  8
0
 62
     0
 10
113.83
 20
5.34539
 30
0.0
 11
113.498
 21
5.01329
 31
0.0
  0
LINE
  8
0
 62
     0
 10
113.498
 20
5.01329
 30
0.0
 11
113.286
 21
4.59574
 31
0.0
  0
LINE
  8
0
 62
     0
 10
113.286
 20
4.59574
 30
0.0
 11
113.213
 21
4.13135
 31
0.0
  0
LINE
  8
0
 62
     0
 10
113.213
 20
4.13135
 30
0.0
 11
113.286
 21
3.66832
 31
0.0
  0
LINE
  8
0
 62
     0
 10
113.286
 20
3.66832
 30
0.0
 11
113.498
 21
3.25079
 31
0.0
  0
LINE
  8
0
 62
     0
 10
113.498
 20
3.25079
 30
0.0
 11
113.83
 21
2.91869
 31
0.0
  0
LINE
  8
0
 62
     0
 10
113.83
 20
2.91869
 30
0.0
 11
114.249
 21
2.70509
 31
0.0
  0
LINE
  8
0
 62
     0
 10
114.249
 20
2.70509
 30
0.0
 11
114.712
 21
2.63067
 31
0.0
  0
LINE
  8
0
 62
     0
 10
114.712
 20
2.63067
 30
0.0
 11
115.175
 21
2.70509
 31
0.0
  0
LINE
  8
0
 62
     0
 10
115.175
 20
2.70509
 30
0.0
 11
115.594
 21
2.91869
 31
0.0
  0
LINE
  8
0
 62
     0
 10
115.594
 20
2.91869
 30
0.0
 11
115.926
 21
3.25079
 31
0.0
  0
LINE
  8
0
 62
     0
 10
115.926
 20
3.25079
 30
0.0
 11
116.138
 21
3.66832
 31
0.0
  0
LINE
  8
0
 62
     0
 10
116.138
 20
3.66832
 30
0.0
 11
116.213
 21
4.13135
 31
0.0
  0
LINE
  8
0
 62
     0
 10
116.213
 20
4.13135
 30
0.0
 11
116.138
 21
4.59574
 31
0.0
  0
LINE
  8
0
 62
     0
 10
116.138
 20
4.59574
 30
0.0
 11
115.926
 21
5.01329
 31
0.0
  0
LINE
  8
0
 62
     0
 10
115.926
 20
5.01329
 30
0.0
 11
115.594
 21
5.34539
 31
0.0
  0
LINE
  8
0
 62
     0
 10
115.594
 20
5.34539
 30
0.0
 11
115.175
 21
5.55763
 31
0.0
  0
LINE
  8
0
 62
     0
 10
115.175
 20
5.55763
 30
0.0
 11
114.712
 21
5.63065
 31
0.0
  0
LINE
  8
0
 62
     0
 10
114.712
 20
5.63065
 30
0.0
 11
114.249
 21
5.55763
 31
0.0
  0
LINE
  8
0
 62
     0
 10
224.865
 20
5.55763
 30
0.0
 11
224.448
 21
5.34539
 31
0.0
  0
LINE
  8
0
 62
     0
 10
224.448
 20
5.34539
 30
0.0
 11
224.116
 21
5.01329
 31
0.0
  0
LINE
  8
0
 62
     0
 10
224.116
 20
5.01329
 30
0.0
 11
223.902
 21
4.59574
 31
0.0
  0
LINE
  8
0
 62
     0
 10
223.902
 20
4.59574
 30
0.0
 11
223.829
 21
4.13135
 31
0.0
  0
LINE
  8
0
 62
     0
 10
223.829
 20
4.13135
 30
0.0
 11
223.902
 21
3.66832
 31
0.0
  0
LINE
  8
0
 62
     0
 10
223.902
 20
3.66832
 30
0.0
 11
224.116
 21
3.25079
 31
0.0
  0
LINE
  8
0
 62
     0
 10
224.116
 20
3.25079
 30
0.0
 11
224.448
 21
2.91869
 31
0.0
  0
LINE
  8
0
 62
     0
 10
224.448
 20
2.91869
 30
0.0
 11
224.865
 21
2.70509
 31
0.0
  0
LINE
  8
0
 62
     0
 10
224.865
 20
2.70509
 30
0.0
 11
225.33
 21
2.63067
 31
0.0
  0
LINE
  8
0
 62
     0
 10
225.33
 20
2.63067
 30
0.0
 11
225.793
 21
2.70509
 31
0.0
  0
LINE
  8
0
 62
     0
 10
225.793
 20
2.70509
 30
0.0
 11
226.211
 21
2.91869
 31
0.0
  0
LINE
  8
0
 62
     0
 10
226.211
 20
2.91869
 30
0.0
 11
226.543
 21
3.25079
 31
0.0
  0
LINE
  8
0
 62
     0
 10
226.543
 20
3.25079
 30
0.0
 11
226.755
 21
3.66832
 31
0.0
  0
LINE
  8
0
 62
     0
 10
226.755
 20
3.66832
 30
0.0
 11
226.829
 21
4.13135
 31
0.0
  0
LINE
  8
0
 62
     0
 10
226.829
 20
4.13135
 30
0.0
 11
226.755
 21
4.59574
 31
0.0
  0
LINE
  8
0
 62
     0
 10
226.755
 20
4.59574
 30
0.0
 11
226.543
 21
5.01329
 31
0.0
  0
LINE
  8
0
 62
     0
 10
226.543
 20
5.01329
 30
0.0
 11
226.211
 21
5.34539
 31
0.0
  0
LINE
  8
0
 62
     0
 10
226.211
 20
5.34539
 30
0.0
 11
225.793
 21
5.55763
 31
0.0
  0
LINE
  8
0
 62
     0
 10
225.793
 20
5.55763
 30
0.0
 11
225.33
 21
5.63065
 31
0.0
  0
LINE
  8
0
 62
     0
 10
225.33
 20
5.63065
 30
0.0
 11
224.865
 21
5.55763
 31
0.0
  0
LINE
  8
0
 62
     0
 10
335.482
 20
5.55763
 30
0.0
 11
335.064
 21
5.34539
 31
0.0
  0
LINE
  8
0
 62
     0
 10
335.064
 20
5.34539
 30
0.0
 11
334.732
 21
5.01329
 31
0.0
  0
LINE
  8
0
 62
     0
 10
334.732
 20
5.01329
 30
0.0
 11
334.52
 21
4.59574
 31
0.0
  0
LINE
  8
0
 62
     0
 10
334.52
 20
4.59574
 30
0.0
 11
334.447
 21
4.13135
 31
0.0
  0
LINE
  8
0
 62
     0
 10
334.447
 20
4.13135
 30
0.0
 11
334.52
 21
3.66832
 31
0.0
  0
LINE
  8
0
 62
     0
 10
334.52
 20
3.66832
 30
0.0
 11
334.732
 21
3.25079
 31
0.0
  0
LINE
  8
0
 62
     0
 10
334.732
 20
3.25079
 30
0.0
 11
335.064
 21
2.91869
 31
0.0
  0
LINE
  8
0
 62
     0
 10
335.064
 20
2.91869
 30
0.0
 11
335.482
 21
2.70509
 31
0.0
  0
LINE
  8
0
 62
     0
 10
335.482
 20
2.70509
 30
0.0
 11
335.946
 21
2.63067
 31
0.0
  0
LINE
  8
0
 62
     0
 10
335.946
 20
2.63067
 30
0.0
 11
336.41
 21
2.70509
 31
0.0
  0
LINE
  8
0
 62
     0
 10
336.41
 20
2.70509
 30
0.0
 11
336.827
 21
2.91869
 31
0.0
  0
LINE
  8
0
 62
     0
 10
336.827
 20
2.91869
 30
0.0
 11
337.159
 21
3.25079
 31
0.0
  0
LINE
  8
0
 62
     0
 10
337.159
 20
3.25079
 30
0.0
 11
337.373
 21
3.66832
 31
0.0
  0
LINE
  8
0
 62
     0
 10
337.373
 20
3.66832
 30
0.0
 11
337.447
 21
4.13135
 31
0.0
  0
LINE
  8
0
 62
     0
 10
337.447
 20
4.13135
 30
0.0
 11
337.373
 21
4.59574
 31
0.0
  0
LINE
  8
0
 62
     0
 10
337.373
 20
4.59574
 30
0.0
 11
337.159
 21
5.01329
 31
0.0
  0
LINE
  8
0
 62
     0
 10
337.159
 20
5.01329
 30
0.0
 11
336.827
 21
5.34539
 31
0.0
  0
LINE
  8
0
 62
     0
 10
336.827
 20
5.34539
 30
0.0
 11
336.41
 21
5.55763
 31
0.0
  0
LINE
  8
0
 62
     0
 10
336.41
 20
5.55763
 30
0.0
 11
335.946
 21
5.63065
 31
0.0
  0
LINE
  8
0
 62
     0
 10
335.946
 20
5.63065
 30
0.0
 11
335.482
 21
5.55763
 31
0.0
  0
LINE
  8
0
 62
     0
 10
132.063
 20
24.6572
 30
0.0
 11
132.063
 21
19.9567
 31
0.0
  0
LINE
  8
0
 62
     0
 10
132.063
 20
19.9567
 30
0.0
 11
92.4387
 21
19.9567
 31
0.0
  0
LINE
  8
0
 62
     0
 10
92.4387
 20
19.9567
 30
0.0
 11
92.4387
 21
23.1869
 31
0.0
  0
LINE
  8
0
 62
     0
 10
92.4387
 20
23.1869
 30
0.0
 11
85.689
 21
23.1869
 31
0.0
  0
LINE
  8
0
 62
     0
 10
85.689
 20
23.1869
 30
0.0
 11
85.689
 21
19.9567
 31
0.0
  0
LINE
  8
0
 62
     0
 10
85.689
 20
19.9567
 30
0.0
 11
84.8639
 21
19.9567
 31
0.0
  0
LINE
  8
0
 62
     0
 10
84.8639
 20
19.9567
 30
0.0
 11
84.8639
 21
17.1579
 31
0.0
  0
LINE
  8
0
 62
     0
 10
84.8639
 20
17.1579
 30
0.0
 11
85.689
 21
17.1579
 31
0.0
  0
LINE
  8
0
 62
     0
 10
85.689
 20
17.1579
 30
0.0
 11
85.689
 21
10.8879
 31
0.0
  0
LINE
  8
0
 62
     0
 10
85.689
 20
10.8879
 30
0.0
 11
87.413
 21
10.8879
 31
0.0
  0
LINE
  8
0
 62
     0
 10
87.413
 20
10.8879
 30
0.0
 11
87.413
 21
9.6876
 31
0.0
  0
LINE
  8
0
 62
     0
 10
87.413
 20
9.6876
 30
0.0
 11
90.7136
 21
9.6876
 31
0.0
  0
LINE
  8
0
 62
     0
 10
90.7136
 20
9.6876
 30
0.0
 11
90.7136
 21
10.8879
 31
0.0
  0
LINE
  8
0
 62
     0
 10
90.7136
 20
10.8879
 30
0.0
 11
92.4387
 21
10.8879
 31
0.0
  0
LINE
  8
0
 62
     0
 10
92.4387
 20
10.8879
 30
0.0
 11
92.4387
 21
15.3569
 31
0.0
  0
LINE
  8
0
 62
     0
 10
92.4387
 20
15.3569
 30
0.0
 11
132.063
 21
15.3569
 31
0.0
  0
LINE
  8
0
 62
     0
 10
132.063
 20
15.3569
 30
0.0
 11
132.063
 21
10.6577
 31
0.0
  0
LINE
  8
0
 62
     0
 10
132.063
 20
10.6577
 30
0.0
 11
146.064
 21
10.6577
 31
0.0
  0
LINE
  8
0
 62
     0
 10
146.064
 20
10.6577
 30
0.0
 11
146.064
 21
15.3569
 31
0.0
  0
LINE
  8
0
 62
     0
 10
146.064
 20
15.3569
 30
0.0
 11
185.688
 21
15.3569
 31
0.0
  0
LINE
  8
0
 62
     0
 10
185.688
 20
15.3569
 30
0.0
 11
185.688
 21
10.8879
 31
0.0
  0
LINE
  8
0
 62
     0
 10
185.688
 20
10.8879
 30
0.0
 11
187.413
 21
10.8879
 31
0.0
  0
LINE
  8
0
 62
     0
 10
187.413
 20
10.8879
 30
0.0
 11
187.413
 21
9.6876
 31
0.0
  0
LINE
  8
0
 62
     0
 10
187.413
 20
9.6876
 30
0.0
 11
190.713
 21
9.6876
 31
0.0
  0
LINE
  8
0
 62
     0
 10
190.713
 20
9.6876
 30
0.0
 11
190.713
 21
10.8879
 31
0.0
  0
LINE
  8
0
 62
     0
 10
190.713
 20
10.8879
 30
0.0
 11
192.439
 21
10.8879
 31
0.0
  0
LINE
  8
0
 62
     0
 10
192.439
 20
10.8879
 30
0.0
 11
192.439
 21
17.1579
 31
0.0
  0
LINE
  8
0
 62
     0
 10
192.439
 20
17.1579
 30
0.0
 11
193.263
 21
17.1579
 31
0.0
  0
LINE
  8
0
 62
     0
 10
193.263
 20
17.1579
 30
0.0
 11
193.263
 21
19.9567
 31
0.0
  0
LINE
  8
0
 62
     0
 10
193.263
 20
19.9567
 30
0.0
 11
192.439
 21
19.9567
 31
0.0
  0
LINE
  8
0
 62
     0
 10
192.439
 20
19.9567
 30
0.0
 11
192.439
 21
23.1869
 31
0.0
  0
LINE
  8
0
 62
     0
 10
192.439
 20
23.1869
 30
0.0
 11
185.688
 21
23.1869
 31
0.0
  0
LINE
  8
0
 62
     0
 10
185.688
 20
23.1869
 30
0.0
 11
185.688
 21
19.9567
 31
0.0
  0
LINE
  8
0
 62
     0
 10
185.688
 20
19.9567
 30
0.0
 11
146.064
 21
19.9567
 31
0.0
  0
LINE
  8
0
 62
     0
 10
146.064
 20
19.9567
 30
0.0
 11
146.064
 21
24.6572
 31
0.0
  0
LINE
  8
0
 62
     0
 10
146.064
 20
24.6572
 30
0.0
 11
132.063
 21
24.6572
 31
0.0
  0
LINE
  8
0
 62
     0
 10
315.42
 20
24.6572
 30
0.0
 11
329.42
 21
24.6572
 31
0.0
  0
LINE
  8
0
 62
     0
 10
329.42
 20
24.6572
 30
0.0
 11
329.42
 21
10.6577
 31
0.0
  0
LINE
  8
0
 62
     0
 10
329.42
 20
10.6577
 30
0.0
 11
315.42
 21
10.6577
 31
0.0
  0
LINE
  8
0
 62
     0
 10
315.42
 20
10.6577
 30
0.0
 11
315.42
 21
24.6572
 31
0.0
  0
LINE
  8
0
 62
     0
 10
296.37
 20
24.6572
 30
0.0
 11
310.37
 21
24.6572
 31
0.0
  0
LINE
  8
0
 62
     0
 10
310.37
 20
24.6572
 30
0.0
 11
310.37
 21
10.6577
 31
0.0
  0
LINE
  8
0
 62
     0
 10
310.37
 20
10.6577
 30
0.0
 11
296.37
 21
10.6577
 31
0.0
  0
LINE
  8
0
 62
     0
 10
296.37
 20
10.6577
 30
0.0
 11
296.37
 21
24.6572
 31
0.0
  0
LINE
  8
0
 62
     0
 10
277.32
 20
24.6572
 30
0.0
 11
291.32
 21
24.6572
 31
0.0
  0
LINE
  8
0
 62
     0
 10
291.32
 20
24.6572
 30
0.0
 11
291.32
 21
10.6577
 31
0.0
  0
LINE
  8
0
 62
     0
 10
291.32
 20
10.6577
 30
0.0
 11
277.32
 21
10.6577
 31
0.0
  0
LINE
  8
0
 62
     0
 10
277.32
 20
10.6577
 30
0.0
 11
277.32
 21
24.6572
 31
0.0
  0
LINE
  8
0
 62
     0
 10
258.27
 20
24.6572
 30
0.0
 11
272.27
 21
24.6572
 31
0.0
  0
LINE
  8
0
 62
     0
 10
272.27
 20
24.6572
 30
0.0
 11
272.27
 21
10.6577
 31
0.0
  0
LINE
  8
0
 62
     0
 10
272.27
 20
10.6577
 30
0.0
 11
258.27
 21
10.6577
 31
0.0
  0
LINE
  8
0
 62
     0
 10
258.27
 20
10.6577
 30
0.0
 11
258.27
 21
24.6572
 31
0.0
  0
LINE
  8
0
 62
     0
 10
239.22
 20
24.6572
 30
0.0
 11
253.22
 21
24.6572
 31
0.0
  0
LINE
  8
0
 62
     0
 10
253.22
 20
24.6572
 30
0.0
 11
253.22
 21
10.6577
 31
0.0
  0
LINE
  8
0
 62
     0
 10
253.22
 20
10.6577
 30
0.0
 11
239.22
 21
10.6577
 31
0.0
  0
LINE
  8
0
 62
     0
 10
239.22
 20
10.6577
 30
0.0
 11
239.22
 21
24.6572
 31
0.0
  0
LINE
  8
0
 62
     0
 10
220.17
 20
24.6572
 30
0.0
 11
234.17
 21
24.6572
 31
0.0
  0
LINE
  8
0
 62
     0
 10
234.17
 20
24.6572
 30
0.0
 11
234.17
 21
10.6577
 31
0.0
  0
LINE
  8
0
 62
     0
 10
234.17
 20
10.6577
 30
0.0
 11
220.17
 21
10.6577
 31
0.0
  0
LINE
  8
0
 62
     0
 10
220.17
 20
10.6577
 30
0.0
 11
220.17
 21
24.6572
 31
0.0
  0
LINE
  8
0
 62
     0
 10
201.12
 20
24.6572
 30
0.0
 11
215.12
 21
24.6572
 31
0.0
  0
LINE
  8
0
 62
     0
 10
215.12
 20
24.6572
 30
0.0
 11
215.12
 21
10.6577
 31
0.0
  0
LINE
  8
0
 62
     0
 10
215.12
 20
10.6577
 30
0.0
 11
201.12
 21
10.6577
 31
0.0
  0
LINE
  8
0
 62
     0
 10
201.12
 20
10.6577
 30
0.0
 11
201.12
 21
24.6572
 31
0.0
  0
LINE
  8
0
 62
     0
 10
60.6266
 20
24.6572
 30
0.0
 11
74.6263
 21
24.6572
 31
0.0
  0
LINE
  8
0
 62
     0
 10
74.6263
 20
24.6572
 30
0.0
 11
74.6263
 21
10.6577
 31
0.0
  0
LINE
  8
0
 62
     0
 10
74.6263
 20
10.6577
 30
0.0
 11
60.6266
 21
10.6577
 31
0.0
  0
LINE
  8
0
 62
     0
 10
60.6266
 20
10.6577
 30
0.0
 11
60.6266
 21
24.6572
 31
0.0
  0
LINE
  8
0
 62
     0
 10
36.8131
 20
24.6572
 30
0.0
 11
50.8138
 21
24.6572
 31
0.0
  0
LINE
  8
0
 62
     0
 10
50.8138
 20
24.6572
 30
0.0
 11
50.8138
 21
10.6577
 31
0.0
  0
LINE
  8
0
 62
     0
 10
50.8138
 20
10.6577
 30
0.0
 11
36.8131
 21
10.6577
 31
0.0
  0
LINE
  8
0
 62
     0
 10
36.8131
 20
10.6577
 30
0.0
 11
36.8131
 21
24.6572
 31
0.0
  0
LINE
  8
0
 62
     0
 10
13.0018
 20
24.6572
 30
0.0
 11
27.0013
 21
24.6572
 31
0.0
  0
LINE
  8
0
 62
     0
 10
27.0013
 20
24.6572
 30
0.0
 11
27.0013
 21
10.6577
 31
0.0
  0
LINE
  8
0
 62
     0
 10
27.0013
 20
10.6577
 30
0.0
 11
13.0018
 21
10.6577
 31
0.0
  0
LINE
  8
0
 62
     0
 10
13.0018
 20
10.6577
 30
0.0
 11
13.0018
 21
24.6572
 31
0.0
  0
LINE
  8
0
 62
     0
 10
22.5268
 20
43.7074
 30
0.0
 11
22.5268
 21
39.0066
 31
0.0
  0
LINE
  8
0
 62
     0
 10
22.5268
 20
39.0066
 30
0.0
 11
21.0013
 21
39.0066
 31
0.0
  0
LINE
  8
0
 62
     0
 10
21.0013
 20
39.0066
 30
0.0
 11
21.0013
 21
42.237
 31
0.0
  0
LINE
  8
0
 62
     0
 10
21.0013
 20
42.237
 30
0.0
 11
14.2517
 21
42.237
 31
0.0
  0
LINE
  8
0
 62
     0
 10
14.2517
 20
42.237
 30
0.0
 11
14.2517
 21
39.0066
 31
0.0
  0
LINE
  8
0
 62
     0
 10
14.2517
 20
39.0066
 30
0.0
 11
13.4262
 21
39.0066
 31
0.0
  0
LINE
  8
0
 62
     0
 10
13.4262
 20
39.0066
 30
0.0
 11
13.4262
 21
36.2081
 31
0.0
  0
LINE
  8
0
 62
     0
 10
13.4262
 20
36.2081
 30
0.0
 11
14.2517
 21
36.2081
 31
0.0
  0
LINE
  8
0
 62
     0
 10
14.2517
 20
36.2081
 30
0.0
 11
14.2517
 21
29.9379
 31
0.0
  0
LINE
  8
0
 62
     0
 10
14.2517
 20
29.9379
 30
0.0
 11
15.977
 21
29.9379
 31
0.0
  0
LINE
  8
0
 62
     0
 10
15.977
 20
29.9379
 30
0.0
 11
15.977
 21
28.7376
 31
0.0
  0
LINE
  8
0
 62
     0
 10
15.977
 20
28.7376
 30
0.0
 11
19.276
 21
28.7376
 31
0.0
  0
LINE
  8
0
 62
     0
 10
19.276
 20
28.7376
 30
0.0
 11
19.276
 21
29.9379
 31
0.0
  0
LINE
  8
0
 62
     0
 10
19.276
 20
29.9379
 30
0.0
 11
21.0013
 21
29.9379
 31
0.0
  0
LINE
  8
0
 62
     0
 10
21.0013
 20
29.9379
 30
0.0
 11
21.0013
 21
34.4069
 31
0.0
  0
LINE
  8
0
 62
     0
 10
21.0013
 20
34.4069
 30
0.0
 11
22.5268
 21
34.4069
 31
0.0
  0
LINE
  8
0
 62
     0
 10
22.5268
 20
34.4069
 30
0.0
 11
22.5268
 21
29.7077
 31
0.0
  0
LINE
  8
0
 62
     0
 10
22.5268
 20
29.7077
 30
0.0
 11
36.5263
 21
29.7077
 31
0.0
  0
LINE
  8
0
 62
     0
 10
36.5263
 20
29.7077
 30
0.0
 11
36.5263
 21
34.4069
 31
0.0
  0
LINE
  8
0
 62
     0
 10
36.5263
 20
34.4069
 30
0.0
 11
38.0517
 21
34.4069
 31
0.0
  0
LINE
  8
0
 62
     0
 10
38.0517
 20
34.4069
 30
0.0
 11
38.0517
 21
29.9379
 31
0.0
  0
LINE
  8
0
 62
     0
 10
38.0517
 20
29.9379
 30
0.0
 11
39.7771
 21
29.9379
 31
0.0
  0
LINE
  8
0
 62
     0
 10
39.7771
 20
29.9379
 30
0.0
 11
39.7771
 21
28.7376
 31
0.0
  0
LINE
  8
0
 62
     0
 10
39.7771
 20
28.7376
 30
0.0
 11
43.0759
 21
28.7376
 31
0.0
  0
LINE
  8
0
 62
     0
 10
43.0759
 20
28.7376
 30
0.0
 11
43.0759
 21
29.9379
 31
0.0
  0
LINE
  8
0
 62
     0
 10
43.0759
 20
29.9379
 30
0.0
 11
44.8014
 21
29.9379
 31
0.0
  0
LINE
  8
0
 62
     0
 10
44.8014
 20
29.9379
 30
0.0
 11
44.8014
 21
36.2081
 31
0.0
  0
LINE
  8
0
 62
     0
 10
44.8014
 20
36.2081
 30
0.0
 11
45.6269
 21
36.2081
 31
0.0
  0
LINE
  8
0
 62
     0
 10
45.6269
 20
36.2081
 30
0.0
 11
45.6269
 21
39.0066
 31
0.0
  0
LINE
  8
0
 62
     0
 10
45.6269
 20
39.0066
 30
0.0
 11
44.8014
 21
39.0066
 31
0.0
  0
LINE
  8
0
 62
     0
 10
44.8014
 20
39.0066
 30
0.0
 11
44.8014
 21
42.237
 31
0.0
  0
LINE
  8
0
 62
     0
 10
44.8014
 20
42.237
 30
0.0
 11
38.0517
 21
42.237
 31
0.0
  0
LINE
  8
0
 62
     0
 10
38.0517
 20
42.237
 30
0.0
 11
38.0517
 21
39.0066
 31
0.0
  0
LINE
  8
0
 62
     0
 10
38.0517
 20
39.0066
 30
0.0
 11
36.5263
 21
39.0066
 31
0.0
  0
LINE
  8
0
 62
     0
 10
36.5263
 20
39.0066
 30
0.0
 11
36.5263
 21
43.7074
 31
0.0
  0
LINE
  8
0
 62
     0
 10
36.5263
 20
43.7074
 30
0.0
 11
22.5268
 21
43.7074
 31
0.0
  0
LINE
  8
0
 62
     0
 10
315.42
 20
43.7074
 30
0.0
 11
329.42
 21
43.7074
 31
0.0
  0
LINE
  8
0
 62
     0
 10
329.42
 20
43.7074
 30
0.0
 11
329.42
 21
29.7077
 31
0.0
  0
LINE
  8
0
 62
     0
 10
329.42
 20
29.7077
 30
0.0
 11
315.42
 21
29.7077
 31
0.0
  0
LINE
  8
0
 62
     0
 10
315.42
 20
29.7077
 30
0.0
 11
315.42
 21
43.7074
 31
0.0
  0
LINE
  8
0
 62
     0
 10
296.37
 20
43.7074
 30
0.0
 11
310.37
 21
43.7074
 31
0.0
  0
LINE
  8
0
 62
     0
 10
310.37
 20
43.7074
 30
0.0
 11
310.37
 21
29.7077
 31
0.0
  0
LINE
  8
0
 62
     0
 10
310.37
 20
29.7077
 30
0.0
 11
296.37
 21
29.7077
 31
0.0
  0
LINE
  8
0
 62
     0
 10
296.37
 20
29.7077
 30
0.0
 11
296.37
 21
43.7074
 31
0.0
  0
LINE
  8
0
 62
     0
 10
277.32
 20
43.7074
 30
0.0
 11
291.32
 21
43.7074
 31
0.0
  0
LINE
  8
0
 62
     0
 10
291.32
 20
43.7074
 30
0.0
 11
291.32
 21
29.7077
 31
0.0
  0
LINE
  8
0
 62
     0
 10
291.32
 20
29.7077
 30
0.0
 11
277.32
 21
29.7077
 31
0.0
  0
LINE
  8
0
 62
     0
 10
277.32
 20
29.7077
 30
0.0
 11
277.32
 21
43.7074
 31
0.0
  0
LINE
  8
0
 62
     0
 10
251.127
 20
43.7074
 30
0.0
 11
265.126
 21
43.7074
 31
0.0
  0
LINE
  8
0
 62
     0
 10
265.126
 20
43.7074
 30
0.0
 11
265.126
 21
29.7077
 31
0.0
  0
LINE
  8
0
 62
     0
 10
265.126
 20
29.7077
 30
0.0
 11
251.127
 21
29.7077
 31
0.0
  0
LINE
  8
0
 62
     0
 10
251.127
 20
29.7077
 30
0.0
 11
251.127
 21
43.7074
 31
0.0
  0
LINE
  8
0
 62
     0
 10
224.933
 20
43.7074
 30
0.0
 11
238.933
 21
43.7074
 31
0.0
  0
LINE
  8
0
 62
     0
 10
238.933
 20
43.7074
 30
0.0
 11
238.933
 21
29.7077
 31
0.0
  0
LINE
  8
0
 62
     0
 10
238.933
 20
29.7077
 30
0.0
 11
224.933
 21
29.7077
 31
0.0
  0
LINE
  8
0
 62
     0
 10
224.933
 20
29.7077
 30
0.0
 11
224.933
 21
43.7074
 31
0.0
  0
LINE
  8
0
 62
     0
 10
205.883
 20
43.7074
 30
0.0
 11
219.883
 21
43.7074
 31
0.0
  0
LINE
  8
0
 62
     0
 10
219.883
 20
43.7074
 30
0.0
 11
219.883
 21
29.7077
 31
0.0
  0
LINE
  8
0
 62
     0
 10
219.883
 20
29.7077
 30
0.0
 11
205.883
 21
29.7077
 31
0.0
  0
LINE
  8
0
 62
     0
 10
205.883
 20
29.7077
 30
0.0
 11
205.883
 21
43.7074
 31
0.0
  0
LINE
  8
0
 62
     0
 10
186.833
 20
43.7074
 30
0.0
 11
200.833
 21
43.7074
 31
0.0
  0
LINE
  8
0
 62
     0
 10
200.833
 20
43.7074
 30
0.0
 11
200.833
 21
29.7077
 31
0.0
  0
LINE
  8
0
 62
     0
 10
200.833
 20
29.7077
 30
0.0
 11
186.833
 21
29.7077
 31
0.0
  0
LINE
  8
0
 62
     0
 10
186.833
 20
29.7077
 30
0.0
 11
186.833
 21
43.7074
 31
0.0
  0
LINE
  8
0
 62
     0
 10
167.783
 20
43.7074
 30
0.0
 11
181.783
 21
43.7074
 31
0.0
  0
LINE
  8
0
 62
     0
 10
181.783
 20
43.7074
 30
0.0
 11
181.783
 21
29.7077
 31
0.0
  0
LINE
  8
0
 62
     0
 10
181.783
 20
29.7077
 30
0.0
 11
167.783
 21
29.7077
 31
0.0
  0
LINE
  8
0
 62
     0
 10
167.783
 20
29.7077
 30
0.0
 11
167.783
 21
43.7074
 31
0.0
  0
LINE
  8
0
 62
     0
 10
148.733
 20
43.7074
 30
0.0
 11
162.733
 21
43.7074
 31
0.0
  0
LINE
  8
0
 62
     0
 10
162.733
 20
43.7074
 30
0.0
 11
162.733
 21
29.7077
 31
0.0
  0
LINE
  8
0
 62
     0
 10
162.733
 20
29.7077
 30
0.0
 11
148.733
 21
29.7077
 31
0.0
  0
LINE
  8
0
 62
     0
 10
148.733
 20
29.7077
 30
0.0
 11
148.733
 21
43.7074
 31
0.0
  0
LINE
  8
0
 62
     0
 10
129.683
 20
43.7074
 30
0.0
 11
143.683
 21
43.7074
 31
0.0
  0
LINE
  8
0
 62
     0
 10
143.683
 20
43.7074
 30
0.0
 11
143.683
 21
29.7077
 31
0.0
  0
LINE
  8
0
 62
     0
 10
143.683
 20
29.7077
 30
0.0
 11
129.683
 21
29.7077
 31
0.0
  0
LINE
  8
0
 62
     0
 10
129.683
 20
29.7077
 30
0.0
 11
129.683
 21
43.7074
 31
0.0
  0
LINE
  8
0
 62
     0
 10
110.633
 20
43.7074
 30
0.0
 11
124.633
 21
43.7074
 31
0.0
  0
LINE
  8
0
 62
     0
 10
124.633
 20
43.7074
 30
0.0
 11
124.633
 21
29.7077
 31
0.0
  0
LINE
  8
0
 62
     0
 10
124.633
 20
29.7077
 30
0.0
 11
110.633
 21
29.7077
 31
0.0
  0
LINE
  8
0
 62
     0
 10
110.633
 20
29.7077
 30
0.0
 11
110.633
 21
43.7074
 31
0.0
  0
LINE
  8
0
 62
     0
 10
91.5829
 20
43.7074
 30
0.0
 11
105.583
 21
43.7074
 31
0.0
  0
LINE
  8
0
 62
     0
 10
105.583
 20
43.7074
 30
0.0
 11
105.583
 21
29.7077
 31
0.0
  0
LINE
  8
0
 62
     0
 10
105.583
 20
29.7077
 30
0.0
 11
91.5829
 21
29.7077
 31
0.0
  0
LINE
  8
0
 62
     0
 10
91.5829
 20
29.7077
 30
0.0
 11
91.5829
 21
43.7074
 31
0.0
  0
LINE
  8
0
 62
     0
 10
72.5329
 20
43.7074
 30
0.0
 11
86.5325
 21
43.7074
 31
0.0
  0
LINE
  8
0
 62
     0
 10
86.5325
 20
43.7074
 30
0.0
 11
86.5325
 21
29.7077
 31
0.0
  0
LINE
  8
0
 62
     0
 10
86.5325
 20
29.7077
 30
0.0
 11
72.5329
 21
29.7077
 31
0.0
  0
LINE
  8
0
 62
     0
 10
72.5329
 20
29.7077
 30
0.0
 11
72.5329
 21
43.7074
 31
0.0
  0
LINE
  8
0
 62
     0
 10
53.4829
 20
43.7074
 30
0.0
 11
67.4825
 21
43.7074
 31
0.0
  0
LINE
  8
0
 62
     0
 10
67.4825
 20
43.7074
 30
0.0
 11
67.4825
 21
29.7077
 31
0.0
  0
LINE
  8
0
 62
     0
 10
67.4825
 20
29.7077
 30
0.0
 11
53.4829
 21
29.7077
 31
0.0
  0
LINE
  8
0
 62
     0
 10
53.4829
 20
29.7077
 30
0.0
 11
53.4829
 21
43.7074
 31
0.0
  0
LINE
  8
0
 62
     0
 10
265.413
 20
62.7574
 30
0.0
 11
265.413
 21
58.0566
 31
0.0
  0
LINE
  8
0
 62
     0
 10
265.413
 20
58.0566
 30
0.0
 11
263.889
 21
58.0566
 31
0.0
  0
LINE
  8
0
 62
     0
 10
263.889
 20
58.0566
 30
0.0
 11
263.889
 21
61.287
 31
0.0
  0
LINE
  8
0
 62
     0
 10
263.889
 20
61.287
 30
0.0
 11
257.139
 21
61.287
 31
0.0
  0
LINE
  8
0
 62
     0
 10
257.139
 20
61.287
 30
0.0
 11
257.139
 21
58.0566
 31
0.0
  0
LINE
  8
0
 62
     0
 10
257.139
 20
58.0566
 30
0.0
 11
256.314
 21
58.0566
 31
0.0
  0
LINE
  8
0
 62
     0
 10
256.314
 20
58.0566
 30
0.0
 11
256.314
 21
55.2581
 31
0.0
  0
LINE
  8
0
 62
     0
 10
256.314
 20
55.2581
 30
0.0
 11
257.139
 21
55.2581
 31
0.0
  0
LINE
  8
0
 62
     0
 10
257.139
 20
55.2581
 30
0.0
 11
257.139
 21
48.9878
 31
0.0
  0
LINE
  8
0
 62
     0
 10
257.139
 20
48.9878
 30
0.0
 11
258.863
 21
48.9878
 31
0.0
  0
LINE
  8
0
 62
     0
 10
258.863
 20
48.9878
 30
0.0
 11
258.863
 21
47.7876
 31
0.0
  0
LINE
  8
0
 62
     0
 10
258.863
 20
47.7876
 30
0.0
 11
262.164
 21
47.7876
 31
0.0
  0
LINE
  8
0
 62
     0
 10
262.164
 20
47.7876
 30
0.0
 11
262.164
 21
48.9878
 31
0.0
  0
LINE
  8
0
 62
     0
 10
262.164
 20
48.9878
 30
0.0
 11
263.889
 21
48.9878
 31
0.0
  0
LINE
  8
0
 62
     0
 10
263.889
 20
48.9878
 30
0.0
 11
263.889
 21
53.4568
 31
0.0
  0
LINE
  8
0
 62
     0
 10
263.889
 20
53.4568
 30
0.0
 11
265.413
 21
53.4568
 31
0.0
  0
LINE
  8
0
 62
     0
 10
265.413
 20
53.4568
 30
0.0
 11
265.413
 21
48.7578
 31
0.0
  0
LINE
  8
0
 62
     0
 10
265.413
 20
48.7578
 30
0.0
 11
279.414
 21
48.7578
 31
0.0
  0
LINE
  8
0
 62
     0
 10
279.414
 20
48.7578
 30
0.0
 11
279.414
 21
53.4568
 31
0.0
  0
LINE
  8
0
 62
     0
 10
279.414
 20
53.4568
 30
0.0
 11
280.938
 21
53.4568
 31
0.0
  0
LINE
  8
0
 62
     0
 10
280.938
 20
53.4568
 30
0.0
 11
280.938
 21
48.9878
 31
0.0
  0
LINE
  8
0
 62
     0
 10
280.938
 20
48.9878
 30
0.0
 11
282.663
 21
48.9878
 31
0.0
  0
LINE
  8
0
 62
     0
 10
282.663
 20
48.9878
 30
0.0
 11
282.663
 21
47.7876
 31
0.0
  0
LINE
  8
0
 62
     0
 10
282.663
 20
47.7876
 30
0.0
 11
285.963
 21
47.7876
 31
0.0
  0
LINE
  8
0
 62
     0
 10
285.963
 20
47.7876
 30
0.0
 11
285.963
 21
48.9878
 31
0.0
  0
LINE
  8
0
 62
     0
 10
285.963
 20
48.9878
 30
0.0
 11
287.689
 21
48.9878
 31
0.0
  0
LINE
  8
0
 62
     0
 10
287.689
 20
48.9878
 30
0.0
 11
287.689
 21
55.2581
 31
0.0
  0
LINE
  8
0
 62
     0
 10
287.689
 20
55.2581
 30
0.0
 11
288.513
 21
55.2581
 31
0.0
  0
LINE
  8
0
 62
     0
 10
288.513
 20
55.2581
 30
0.0
 11
288.513
 21
58.0566
 31
0.0
  0
LINE
  8
0
 62
     0
 10
288.513
 20
58.0566
 30
0.0
 11
287.689
 21
58.0566
 31
0.0
  0
LINE
  8
0
 62
     0
 10
287.689
 20
58.0566
 30
0.0
 11
287.689
 21
61.287
 31
0.0
  0
LINE
  8
0
 62
     0
 10
287.689
 20
61.287
 30
0.0
 11
280.938
 21
61.287
 31
0.0
  0
LINE
  8
0
 62
     0
 10
280.938
 20
61.287
 30
0.0
 11
280.938
 21
58.0566
 31
0.0
  0
LINE
  8
0
 62
     0
 10
280.938
 20
58.0566
 30
0.0
 11
279.414
 21
58.0566
 31
0.0
  0
LINE
  8
0
 62
     0
 10
279.414
 20
58.0566
 30
0.0
 11
279.414
 21
62.7574
 31
0.0
  0
LINE
  8
0
 62
     0
 10
279.414
 20
62.7574
 30
0.0
 11
265.413
 21
62.7574
 31
0.0
  0
LINE
  8
0
 62
     0
 10
315.42
 20
62.7574
 30
0.0
 11
329.42
 21
62.7574
 31
0.0
  0
LINE
  8
0
 62
     0
 10
329.42
 20
62.7574
 30
0.0
 11
329.42
 21
48.7578
 31
0.0
  0
LINE
  8
0
 62
     0
 10
329.42
 20
48.7578
 30
0.0
 11
315.42
 21
48.7578
 31
0.0
  0
LINE
  8
0
 62
     0
 10
315.42
 20
48.7578
 30
0.0
 11
315.42
 21
62.7574
 31
0.0
  0
LINE
  8
0
 62
     0
 10
296.37
 20
62.7574
 30
0.0
 11
310.37
 21
62.7574
 31
0.0
  0
LINE
  8
0
 62
     0
 10
310.37
 20
62.7574
 30
0.0
 11
310.37
 21
48.7578
 31
0.0
  0
LINE
  8
0
 62
     0
 10
310.37
 20
48.7578
 30
0.0
 11
296.37
 21
48.7578
 31
0.0
  0
LINE
  8
0
 62
     0
 10
296.37
 20
48.7578
 30
0.0
 11
296.37
 21
62.7574
 31
0.0
  0
LINE
  8
0
 62
     0
 10
234.458
 20
62.7574
 30
0.0
 11
248.458
 21
62.7574
 31
0.0
  0
LINE
  8
0
 62
     0
 10
248.458
 20
62.7574
 30
0.0
 11
248.458
 21
48.7578
 31
0.0
  0
LINE
  8
0
 62
     0
 10
248.458
 20
48.7578
 30
0.0
 11
234.458
 21
48.7578
 31
0.0
  0
LINE
  8
0
 62
     0
 10
234.458
 20
48.7578
 30
0.0
 11
234.458
 21
62.7574
 31
0.0
  0
LINE
  8
0
 62
     0
 10
215.408
 20
62.7574
 30
0.0
 11
229.408
 21
62.7574
 31
0.0
  0
LINE
  8
0
 62
     0
 10
229.408
 20
62.7574
 30
0.0
 11
229.408
 21
48.7578
 31
0.0
  0
LINE
  8
0
 62
     0
 10
229.408
 20
48.7578
 30
0.0
 11
215.408
 21
48.7578
 31
0.0
  0
LINE
  8
0
 62
     0
 10
215.408
 20
48.7578
 30
0.0
 11
215.408
 21
62.7574
 31
0.0
  0
LINE
  8
0
 62
     0
 10
196.358
 20
62.7574
 30
0.0
 11
210.358
 21
62.7574
 31
0.0
  0
LINE
  8
0
 62
     0
 10
210.358
 20
62.7574
 30
0.0
 11
210.358
 21
48.7578
 31
0.0
  0
LINE
  8
0
 62
     0
 10
210.358
 20
48.7578
 30
0.0
 11
196.358
 21
48.7578
 31
0.0
  0
LINE
  8
0
 62
     0
 10
196.358
 20
48.7578
 30
0.0
 11
196.358
 21
62.7574
 31
0.0
  0
LINE
  8
0
 62
     0
 10
177.308
 20
62.7574
 30
0.0
 11
191.308
 21
62.7574
 31
0.0
  0
LINE
  8
0
 62
     0
 10
191.308
 20
62.7574
 30
0.0
 11
191.308
 21
48.7578
 31
0.0
  0
LINE
  8
0
 62
     0
 10
191.308
 20
48.7578
 30
0.0
 11
177.308
 21
48.7578
 31
0.0
  0
LINE
  8
0
 62
     0
 10
177.308
 20
48.7578
 30
0.0
 11
177.308
 21
62.7574
 31
0.0
  0
LINE
  8
0
 62
     0
 10
158.258
 20
62.7574
 30
0.0
 11
172.258
 21
62.7574
 31
0.0
  0
LINE
  8
0
 62
     0
 10
172.258
 20
62.7574
 30
0.0
 11
172.258
 21
48.7578
 31
0.0
  0
LINE
  8
0
 62
     0
 10
172.258
 20
48.7578
 30
0.0
 11
158.258
 21
48.7578
 31
0.0
  0
LINE
  8
0
 62
     0
 10
158.258
 20
48.7578
 30
0.0
 11
158.258
 21
62.7574
 31
0.0
  0
LINE
  8
0
 62
     0
 10
139.208
 20
62.7574
 30
0.0
 11
153.208
 21
62.7574
 31
0.0
  0
LINE
  8
0
 62
     0
 10
153.208
 20
62.7574
 30
0.0
 11
153.208
 21
48.7578
 31
0.0
  0
LINE
  8
0
 62
     0
 10
153.208
 20
48.7578
 30
0.0
 11
139.208
 21
48.7578
 31
0.0
  0
LINE
  8
0
 62
     0
 10
139.208
 20
48.7578
 30
0.0
 11
139.208
 21
62.7574
 31
0.0
  0
LINE
  8
0
 62
     0
 10
120.158
 20
62.7574
 30
0.0
 11
134.158
 21
62.7574
 31
0.0
  0
LINE
  8
0
 62
     0
 10
134.158
 20
62.7574
 30
0.0
 11
134.158
 21
48.7578
 31
0.0
  0
LINE
  8
0
 62
     0
 10
134.158
 20
48.7578
 30
0.0
 11
120.158
 21
48.7578
 31
0.0
  0
LINE
  8
0
 62
     0
 10
120.158
 20
48.7578
 30
0.0
 11
120.158
 21
62.7574
 31
0.0
  0
LINE
  8
0
 62
     0
 10
101.108
 20
62.7574
 30
0.0
 11
115.108
 21
62.7574
 31
0.0
  0
LINE
  8
0
 62
     0
 10
115.108
 20
62.7574
 30
0.0
 11
115.108
 21
48.7578
 31
0.0
  0
LINE
  8
0
 62
     0
 10
115.108
 20
48.7578
 30
0.0
 11
101.108
 21
48.7578
 31
0.0
  0
LINE
  8
0
 62
     0
 10
101.108
 20
48.7578
 30
0.0
 11
101.108
 21
62.7574
 31
0.0
  0
LINE
  8
0
 62
     0
 10
82.0579
 20
62.7574
 30
0.0
 11
96.0575
 21
62.7574
 31
0.0
  0
LINE
  8
0
 62
     0
 10
96.0575
 20
62.7574
 30
0.0
 11
96.0575
 21
48.7578
 31
0.0
  0
LINE
  8
0
 62
     0
 10
96.0575
 20
48.7578
 30
0.0
 11
82.0579
 21
48.7578
 31
0.0
  0
LINE
  8
0
 62
     0
 10
82.0579
 20
48.7578
 30
0.0
 11
82.0579
 21
62.7574
 31
0.0
  0
LINE
  8
0
 62
     0
 10
63.0079
 20
62.7574
 30
0.0
 11
77.0075
 21
62.7574
 31
0.0
  0
LINE
  8
0
 62
     0
 10
77.0075
 20
62.7574
 30
0.0
 11
77.0075
 21
48.7578
 31
0.0
  0
LINE
  8
0
 62
     0
 10
77.0075
 20
48.7578
 30
0.0
 11
63.0079
 21
48.7578
 31
0.0
  0
LINE
  8
0
 62
     0
 10
63.0079
 20
48.7578
 30
0.0
 11
63.0079
 21
62.7574
 31
0.0
  0
LINE
  8
0
 62
     0
 10
43.9579
 20
62.7574
 30
0.0
 11
57.9575
 21
62.7574
 31
0.0
  0
LINE
  8
0
 62
     0
 10
57.9575
 20
62.7574
 30
0.0
 11
57.9575
 21
48.7578
 31
0.0
  0
LINE
  8
0
 62
     0
 10
57.9575
 20
48.7578
 30
0.0
 11
43.9579
 21
48.7578
 31
0.0
  0
LINE
  8
0
 62
     0
 10
43.9579
 20
48.7578
 30
0.0
 11
43.9579
 21
62.7574
 31
0.0
  0
LINE
  8
0
 62
     0
 10
13.0018
 20
62.7574
 30
0.0
 11
27.0013
 21
62.7574
 31
0.0
  0
LINE
  8
0
 62
     0
 10
27.0013
 20
62.7574
 30
0.0
 11
27.0013
 21
48.7578
 31
0.0
  0
LINE
  8
0
 62
     0
 10
27.0013
 20
48.7578
 30
0.0
 11
13.0018
 21
48.7578
 31
0.0
  0
LINE
  8
0
 62
     0
 10
13.0018
 20
48.7578
 30
0.0
 11
13.0018
 21
62.7574
 31
0.0
  0
LINE
  8
0
 62
     0
 10
315.42
 20
81.8074
 30
0.0
 11
329.42
 21
81.8074
 31
0.0
  0
LINE
  8
0
 62
     0
 10
329.42
 20
81.8074
 30
0.0
 11
329.42
 21
67.8078
 31
0.0
  0
LINE
  8
0
 62
     0
 10
329.42
 20
67.8078
 30
0.0
 11
315.42
 21
67.8078
 31
0.0
  0
LINE
  8
0
 62
     0
 10
315.42
 20
67.8078
 30
0.0
 11
315.42
 21
81.8074
 31
0.0
  0
LINE
  8
0
 62
     0
 10
296.37
 20
81.8074
 30
0.0
 11
310.37
 21
81.8074
 31
0.0
  0
LINE
  8
0
 62
     0
 10
310.37
 20
81.8074
 30
0.0
 11
310.37
 21
67.8078
 31
0.0
  0
LINE
  8
0
 62
     0
 10
310.37
 20
67.8078
 30
0.0
 11
296.37
 21
67.8078
 31
0.0
  0
LINE
  8
0
 62
     0
 10
296.37
 20
67.8078
 30
0.0
 11
296.37
 21
81.8074
 31
0.0
  0
LINE
  8
0
 62
     0
 10
272.558
 20
81.8074
 30
0.0
 11
286.558
 21
81.8074
 31
0.0
  0
LINE
  8
0
 62
     0
 10
286.558
 20
81.8074
 30
0.0
 11
286.558
 21
67.8078
 31
0.0
  0
LINE
  8
0
 62
     0
 10
286.558
 20
67.8078
 30
0.0
 11
272.558
 21
67.8078
 31
0.0
  0
LINE
  8
0
 62
     0
 10
272.558
 20
67.8078
 30
0.0
 11
272.558
 21
81.8074
 31
0.0
  0
LINE
  8
0
 62
     0
 10
248.745
 20
81.8074
 30
0.0
 11
262.745
 21
81.8074
 31
0.0
  0
LINE
  8
0
 62
     0
 10
262.745
 20
81.8074
 30
0.0
 11
262.745
 21
67.8078
 31
0.0
  0
LINE
  8
0
 62
     0
 10
262.745
 20
67.8078
 30
0.0
 11
248.745
 21
67.8078
 31
0.0
  0
LINE
  8
0
 62
     0
 10
248.745
 20
67.8078
 30
0.0
 11
248.745
 21
81.8074
 31
0.0
  0
LINE
  8
0
 62
     0
 10
229.695
 20
81.8074
 30
0.0
 11
243.695
 21
81.8074
 31
0.0
  0
LINE
  8
0
 62
     0
 10
243.695
 20
81.8074
 30
0.0
 11
243.695
 21
67.8078
 31
0.0
  0
LINE
  8
0
 62
     0
 10
243.695
 20
67.8078
 30
0.0
 11
229.695
 21
67.8078
 31
0.0
  0
LINE
  8
0
 62
     0
 10
229.695
 20
67.8078
 30
0.0
 11
229.695
 21
81.8074
 31
0.0
  0
LINE
  8
0
 62
     0
 10
210.645
 20
81.8074
 30
0.0
 11
224.645
 21
81.8074
 31
0.0
  0
LINE
  8
0
 62
     0
 10
224.645
 20
81.8074
 30
0.0
 11
224.645
 21
67.8078
 31
0.0
  0
LINE
  8
0
 62
     0
 10
224.645
 20
67.8078
 30
0.0
 11
210.645
 21
67.8078
 31
0.0
  0
LINE
  8
0
 62
     0
 10
210.645
 20
67.8078
 30
0.0
 11
210.645
 21
81.8074
 31
0.0
  0
LINE
  8
0
 62
     0
 10
191.595
 20
81.8074
 30
0.0
 11
205.595
 21
81.8074
 31
0.0
  0
LINE
  8
0
 62
     0
 10
205.595
 20
81.8074
 30
0.0
 11
205.595
 21
67.8078
 31
0.0
  0
LINE
  8
0
 62
     0
 10
205.595
 20
67.8078
 30
0.0
 11
191.595
 21
67.8078
 31
0.0
  0
LINE
  8
0
 62
     0
 10
191.595
 20
67.8078
 30
0.0
 11
191.595
 21
81.8074
 31
0.0
  0
LINE
  8
0
 62
     0
 10
172.545
 20
81.8074
 30
0.0
 11
186.545
 21
81.8074
 31
0.0
  0
LINE
  8
0
 62
     0
 10
186.545
 20
81.8074
 30
0.0
 11
186.545
 21
67.8078
 31
0.0
  0
LINE
  8
0
 62
     0
 10
186.545
 20
67.8078
 30
0.0
 11
172.545
 21
67.8078
 31
0.0
  0
LINE
  8
0
 62
     0
 10
172.545
 20
67.8078
 30
0.0
 11
172.545
 21
81.8074
 31
0.0
  0
LINE
  8
0
 62
     0
 10
153.495
 20
81.8074
 30
0.0
 11
167.495
 21
81.8074
 31
0.0
  0
LINE
  8
0
 62
     0
 10
167.495
 20
81.8074
 30
0.0
 11
167.495
 21
67.8078
 31
0.0
  0
LINE
  8
0
 62
     0
 10
167.495
 20
67.8078
 30
0.0
 11
153.495
 21
67.8078
 31
0.0
  0
LINE
  8
0
 62
     0
 10
153.495
 20
67.8078
 30
0.0
 11
153.495
 21
81.8074
 31
0.0
  0
LINE
  8
0
 62
     0
 10
134.445
 20
81.8074
 30
0.0
 11
148.445
 21
81.8074
 31
0.0
  0
LINE
  8
0
 62
     0
 10
148.445
 20
81.8074
 30
0.0
 11
148.445
 21
67.8078
 31
0.0
  0
LINE
  8
0
 62
     0
 10
148.445
 20
67.8078
 30
0.0
 11
134.445
 21
67.8078
 31
0.0
  0
LINE
  8
0
 62
     0
 10
134.445
 20
67.8078
 30
0.0
 11
134.445
 21
81.8074
 31
0.0
  0
LINE
  8
0
 62
     0
 10
115.395
 20
81.8074
 30
0.0
 11
129.395
 21
81.8074
 31
0.0
  0
LINE
  8
0
 62
     0
 10
129.395
 20
81.8074
 30
0.0
 11
129.395
 21
67.8078
 31
0.0
  0
LINE
  8
0
 62
     0
 10
129.395
 20
67.8078
 30
0.0
 11
115.395
 21
67.8078
 31
0.0
  0
LINE
  8
0
 62
     0
 10
115.395
 20
67.8078
 30
0.0
 11
115.395
 21
81.8074
 31
0.0
  0
LINE
  8
0
 62
     0
 10
96.3454
 20
81.8074
 30
0.0
 11
110.345
 21
81.8074
 31
0.0
  0
LINE
  8
0
 62
     0
 10
110.345
 20
81.8074
 30
0.0
 11
110.345
 21
67.8078
 31
0.0
  0
LINE
  8
0
 62
     0
 10
110.345
 20
67.8078
 30
0.0
 11
96.3454
 21
67.8078
 31
0.0
  0
LINE
  8
0
 62
     0
 10
96.3454
 20
67.8078
 30
0.0
 11
96.3454
 21
81.8074
 31
0.0
  0
LINE
  8
0
 62
     0
 10
77.2954
 20
81.8074
 30
0.0
 11
91.295
 21
81.8074
 31
0.0
  0
LINE
  8
0
 62
     0
 10
91.295
 20
81.8074
 30
0.0
 11
91.295
 21
67.8078
 31
0.0
  0
LINE
  8
0
 62
     0
 10
91.295
 20
67.8078
 30
0.0
 11
77.2954
 21
67.8078
 31
0.0
  0
LINE
  8
0
 62
     0
 10
77.2954
 20
67.8078
 30
0.0
 11
77.2954
 21
81.8074
 31
0.0
  0
LINE
  8
0
 62
     0
 10
58.2454
 20
81.8074
 30
0.0
 11
72.245
 21
81.8074
 31
0.0
  0
LINE
  8
0
 62
     0
 10
72.245
 20
81.8074
 30
0.0
 11
72.245
 21
67.8078
 31
0.0
  0
LINE
  8
0
 62
     0
 10
72.245
 20
67.8078
 30
0.0
 11
58.2454
 21
67.8078
 31
0.0
  0
LINE
  8
0
 62
     0
 10
58.2454
 20
67.8078
 30
0.0
 11
58.2454
 21
81.8074
 31
0.0
  0
LINE
  8
0
 62
     0
 10
39.1954
 20
81.8074
 30
0.0
 11
53.195
 21
81.8074
 31
0.0
  0
LINE
  8
0
 62
     0
 10
53.195
 20
81.8074
 30
0.0
 11
53.195
 21
67.8078
 31
0.0
  0
LINE
  8
0
 62
     0
 10
53.195
 20
67.8078
 30
0.0
 11
39.1954
 21
67.8078
 31
0.0
  0
LINE
  8
0
 62
     0
 10
39.1954
 20
67.8078
 30
0.0
 11
39.1954
 21
81.8074
 31
0.0
  0
LINE
  8
0
 62
     0
 10
15.3831
 20
81.8074
 30
0.0
 11
29.3825
 21
81.8074
 31
0.0
  0
LINE
  8
0
 62
     0
 10
29.3825
 20
81.8074
 30
0.0
 11
29.3825
 21
67.8078
 31
0.0
  0
LINE
  8
0
 62
     0
 10
29.3825
 20
67.8078
 30
0.0
 11
15.3831
 21
67.8078
 31
0.0
  0
LINE
  8
0
 62
     0
 10
15.3831
 20
67.8078
 30
0.0
 11
15.3831
 21
81.8074
 31
0.0
  0
LINE
  8
0
 62
     0
 10
3.63114
 20
71.4721
 30
0.0
 11
3.21359
 21
71.2583
 31
0.0
  0
LINE
  8
0
 62
     0
 10
3.21359
 20
71.2583
 30
0.0
 11
2.88148
 21
70.9263
 31
0.0
  0
LINE
  8
0
 62
     0
 10
2.88148
 20
70.9263
 30
0.0
 11
2.66788
 21
70.5086
 31
0.0
  0
LINE
  8
0
 62
     0
 10
2.66788
 20
70.5086
 30
0.0
 11
2.59485
 21
70.0444
 31
0.0
  0
LINE
  8
0
 62
     0
 10
2.59485
 20
70.0444
 30
0.0
 11
2.66788
 21
69.5812
 31
0.0
  0
LINE
  8
0
 62
     0
 10
2.66788
 20
69.5812
 30
0.0
 11
2.88148
 21
69.1638
 31
0.0
  0
LINE
  8
0
 62
     0
 10
2.88148
 20
69.1638
 30
0.0
 11
3.21359
 21
68.8315
 31
0.0
  0
LINE
  8
0
 62
     0
 10
3.21359
 20
68.8315
 30
0.0
 11
3.63114
 21
68.6181
 31
0.0
  0
LINE
  8
0
 62
     0
 10
3.63114
 20
68.6181
 30
0.0
 11
4.09554
 21
68.5437
 31
0.0
  0
LINE
  8
0
 62
     0
 10
4.09554
 20
68.5437
 30
0.0
 11
4.55856
 21
68.6181
 31
0.0
  0
LINE
  8
0
 62
     0
 10
4.55856
 20
68.6181
 30
0.0
 11
4.97611
 21
68.8315
 31
0.0
  0
LINE
  8
0
 62
     0
 10
4.97611
 20
68.8315
 30
0.0
 11
5.30821
 21
69.1638
 31
0.0
  0
LINE
  8
0
 62
     0
 10
5.30821
 20
69.1638
 30
0.0
 11
5.52178
 21
69.5812
 31
0.0
  0
LINE
  8
0
 62
     0
 10
5.52178
 20
69.5812
 30
0.0
 11
5.59484
 21
70.0444
 31
0.0
  0
LINE
  8
0
 62
     0
 10
5.59484
 20
70.0444
 30
0.0
 11
5.52178
 21
70.5086
 31
0.0
  0
LINE
  8
0
 62
     0
 10
5.52178
 20
70.5086
 30
0.0
 11
5.30821
 21
70.9263
 31
0.0
  0
LINE
  8
0
 62
     0
 10
5.30821
 20
70.9263
 30
0.0
 11
4.97611
 21
71.2583
 31
0.0
  0
LINE
  8
0
 62
     0
 10
4.97611
 20
71.2583
 30
0.0
 11
4.55856
 21
71.4721
 31
0.0
  0
LINE
  8
0
 62
     0
 10
4.55856
 20
71.4721
 30
0.0
 11
4.09554
 21
71.5437
 31
0.0
  0
LINE
  8
0
 62
     0
 10
4.09554
 20
71.5437
 30
0.0
 11
3.63114
 21
71.4721
 31
0.0
  0
LINE
  8
0
 62
     0
 10
335.482
 20
71.4721
 30
0.0
 11
335.064
 21
71.2583
 31
0.0
  0
LINE
  8
0
 62
     0
 10
335.064
 20
71.2583
 30
0.0
 11
334.732
 21
70.9263
 31
0.0
  0
LINE
  8
0
 62
     0
 10
334.732
 20
70.9263
 30
0.0
 11
334.52
 21
70.5086
 31
0.0
  0
LINE
  8
0
 62
     0
 10
334.52
 20
70.5086
 30
0.0
 11
334.447
 21
70.0444
 31
0.0
  0
LINE
  8
0
 62
     0
 10
334.447
 20
70.0444
 30
0.0
 11
334.52
 21
69.5812
 31
0.0
  0
LINE
  8
0
 62
     0
 10
334.52
 20
69.5812
 30
0.0
 11
334.732
 21
69.1638
 31
0.0
  0
LINE
  8
0
 62
     0
 10
334.732
 20
69.1638
 30
0.0
 11
335.064
 21
68.8315
 31
0.0
  0
LINE
  8
0
 62
     0
 10
335.064
 20
68.8315
 30
0.0
 11
335.482
 21
68.6181
 31
0.0
  0
LINE
  8
0
 62
     0
 10
335.482
 20
68.6181
 30
0.0
 11
335.946
 21
68.5437
 31
0.0
  0
LINE
  8
0
 62
     0
 10
335.946
 20
68.5437
 30
0.0
 11
336.41
 21
68.6181
 31
0.0
  0
LINE
  8
0
 62
     0
 10
336.41
 20
68.6181
 30
0.0
 11
336.827
 21
68.8315
 31
0.0
  0
LINE
  8
0
 62
     0
 10
336.827
 20
68.8315
 30
0.0
 11
337.159
 21
69.1638
 31
0.0
  0
LINE
  8
0
 62
     0
 10
337.159
 20
69.1638
 30
0.0
 11
337.373
 21
69.5812
 31
0.0
  0
LINE
  8
0
 62
     0
 10
337.373
 20
69.5812
 30
0.0
 11
337.447
 21
70.0444
 31
0.0
  0
LINE
  8
0
 62
     0
 10
337.447
 20
70.0444
 30
0.0
 11
337.373
 21
70.5086
 31
0.0
  0
LINE
  8
0
 62
     0
 10
337.373
 20
70.5086
 30
0.0
 11
337.159
 21
70.9263
 31
0.0
  0
LINE
  8
0
 62
     0
 10
337.159
 20
70.9263
 30
0.0
 11
336.827
 21
71.2583
 31
0.0
  0
LINE
  8
0
 62
     0
 10
336.827
 20
71.2583
 30
0.0
 11
336.41
 21
71.4721
 31
0.0
  0
LINE
  8
0
 62
     0
 10
336.41
 20
71.4721
 30
0.0
 11
335.946
 21
71.5437
 31
0.0
  0
LINE
  8
0
 62
     0
 10
335.946
 20
71.5437
 30
0.0
 11
335.482
 21
71.4721
 31
0.0
  0
LINE
  8
0
 62
     0
 10
267.795
 20
100.857
 30
0.0
 11
267.795
 21
96.1566
 31
0.0
  0
LINE
  8
0
 62
     0
 10
267.795
 20
96.1566
 30
0.0
 11
266.27
 21
96.1566
 31
0.0
  0
LINE
  8
0
 62
     0
 10
266.27
 20
96.1566
 30
0.0
 11
266.27
 21
99.387
 31
0.0
  0
LINE
  8
0
 62
     0
 10
266.27
 20
99.387
 30
0.0
 11
259.52
 21
99.387
 31
0.0
  0
LINE
  8
0
 62
     0
 10
259.52
 20
99.387
 30
0.0
 11
259.52
 21
96.1566
 31
0.0
  0
LINE
  8
0
 62
     0
 10
259.52
 20
96.1566
 30
0.0
 11
258.695
 21
96.1566
 31
0.0
  0
LINE
  8
0
 62
     0
 10
258.695
 20
96.1566
 30
0.0
 11
258.695
 21
93.3581
 31
0.0
  0
LINE
  8
0
 62
     0
 10
258.695
 20
93.3581
 30
0.0
 11
259.52
 21
93.3581
 31
0.0
  0
LINE
  8
0
 62
     0
 10
259.52
 20
93.3581
 30
0.0
 11
259.52
 21
87.0878
 31
0.0
  0
LINE
  8
0
 62
     0
 10
259.52
 20
87.0878
 30
0.0
 11
261.246
 21
87.0878
 31
0.0
  0
LINE
  8
0
 62
     0
 10
261.246
 20
87.0878
 30
0.0
 11
261.246
 21
85.8876
 31
0.0
  0
LINE
  8
0
 62
     0
 10
261.246
 20
85.8876
 30
0.0
 11
264.546
 21
85.8876
 31
0.0
  0
LINE
  8
0
 62
     0
 10
264.546
 20
85.8876
 30
0.0
 11
264.546
 21
87.0878
 31
0.0
  0
LINE
  8
0
 62
     0
 10
264.546
 20
87.0878
 30
0.0
 11
266.27
 21
87.0878
 31
0.0
  0
LINE
  8
0
 62
     0
 10
266.27
 20
87.0878
 30
0.0
 11
266.27
 21
91.5568
 31
0.0
  0
LINE
  8
0
 62
     0
 10
266.27
 20
91.5568
 30
0.0
 11
267.795
 21
91.5568
 31
0.0
  0
LINE
  8
0
 62
     0
 10
267.795
 20
91.5568
 30
0.0
 11
267.795
 21
86.8578
 31
0.0
  0
LINE
  8
0
 62
     0
 10
267.795
 20
86.8578
 30
0.0
 11
281.795
 21
86.8578
 31
0.0
  0
LINE
  8
0
 62
     0
 10
281.795
 20
86.8578
 30
0.0
 11
281.795
 21
91.5568
 31
0.0
  0
LINE
  8
0
 62
     0
 10
281.795
 20
91.5568
 30
0.0
 11
283.32
 21
91.5568
 31
0.0
  0
LINE
  8
0
 62
     0
 10
283.32
 20
91.5568
 30
0.0
 11
283.32
 21
87.0878
 31
0.0
  0
LINE
  8
0
 62
     0
 10
283.32
 20
87.0878
 30
0.0
 11
285.046
 21
87.0878
 31
0.0
  0
LINE
  8
0
 62
     0
 10
285.046
 20
87.0878
 30
0.0
 11
285.046
 21
85.8876
 31
0.0
  0
LINE
  8
0
 62
     0
 10
285.046
 20
85.8876
 30
0.0
 11
288.345
 21
85.8876
 31
0.0
  0
LINE
  8
0
 62
     0
 10
288.345
 20
85.8876
 30
0.0
 11
288.345
 21
87.0878
 31
0.0
  0
LINE
  8
0
 62
     0
 10
288.345
 20
87.0878
 30
0.0
 11
290.07
 21
87.0878
 31
0.0
  0
LINE
  8
0
 62
     0
 10
290.07
 20
87.0878
 30
0.0
 11
290.07
 21
93.3581
 31
0.0
  0
LINE
  8
0
 62
     0
 10
290.07
 20
93.3581
 30
0.0
 11
290.896
 21
93.3581
 31
0.0
  0
LINE
  8
0
 62
     0
 10
290.896
 20
93.3581
 30
0.0
 11
290.896
 21
96.1566
 31
0.0
  0
LINE
  8
0
 62
     0
 10
290.896
 20
96.1566
 30
0.0
 11
290.07
 21
96.1566
 31
0.0
  0
LINE
  8
0
 62
     0
 10
290.07
 20
96.1566
 30
0.0
 11
290.07
 21
99.387
 31
0.0
  0
LINE
  8
0
 62
     0
 10
290.07
 20
99.387
 30
0.0
 11
283.32
 21
99.387
 31
0.0
  0
LINE
  8
0
 62
     0
 10
283.32
 20
99.387
 30
0.0
 11
283.32
 21
96.1566
 31
0.0
  0
LINE
  8
0
 62
     0
 10
283.32
 20
96.1566
 30
0.0
 11
281.795
 21
96.1566
 31
0.0
  0
LINE
  8
0
 62
     0
 10
281.795
 20
96.1566
 30
0.0
 11
281.795
 21
100.857
 31
0.0
  0
LINE
  8
0
 62
     0
 10
281.795
 20
100.857
 30
0.0
 11
267.795
 21
100.857
 31
0.0
  0
LINE
  8
0
 62
     0
 10
315.42
 20
100.857
 30
0.0
 11
329.42
 21
100.857
 31
0.0
  0
LINE
  8
0
 62
     0
 10
329.42
 20
100.857
 30
0.0
 11
329.42
 21
86.8578
 31
0.0
  0
LINE
  8
0
 62
     0
 10
329.42
 20
86.8578
 30
0.0
 11
315.42
 21
86.8578
 31
0.0
  0
LINE
  8
0
 62
     0
 10
315.42
 20
86.8578
 30
0.0
 11
315.42
 21
100.857
 31
0.0
  0
LINE
  8
0
 62
     0
 10
296.37
 20
100.857
 30
0.0
 11
310.37
 21
100.857
 31
0.0
  0
LINE
  8
0
 62
     0
 10
310.37
 20
100.857
 30
0.0
 11
310.37
 21
86.8578
 31
0.0
  0
LINE
  8
0
 62
     0
 10
310.37
 20
86.8578
 30
0.0
 11
296.37
 21
86.8578
 31
0.0
  0
LINE
  8
0
 62
     0
 10
296.37
 20
86.8578
 30
0.0
 11
296.37
 21
100.857
 31
0.0
  0
LINE
  8
0
 62
     0
 10
239.22
 20
100.857
 30
0.0
 11
253.22
 21
100.857
 31
0.0
  0
LINE
  8
0
 62
     0
 10
253.22
 20
100.857
 30
0.0
 11
253.22
 21
86.8578
 31
0.0
  0
LINE
  8
0
 62
     0
 10
253.22
 20
86.8578
 30
0.0
 11
239.22
 21
86.8578
 31
0.0
  0
LINE
  8
0
 62
     0
 10
239.22
 20
86.8578
 30
0.0
 11
239.22
 21
100.857
 31
0.0
  0
LINE
  8
0
 62
     0
 10
220.17
 20
100.857
 30
0.0
 11
234.17
 21
100.857
 31
0.0
  0
LINE
  8
0
 62
     0
 10
234.17
 20
100.857
 30
0.0
 11
234.17
 21
86.8578
 31
0.0
  0
LINE
  8
0
 62
     0
 10
234.17
 20
86.8578
 30
0.0
 11
220.17
 21
86.8578
 31
0.0
  0
LINE
  8
0
 62
     0
 10
220.17
 20
86.8578
 30
0.0
 11
220.17
 21
100.857
 31
0.0
  0
LINE
  8
0
 62
     0
 10
201.12
 20
100.857
 30
0.0
 11
215.12
 21
100.857
 31
0.0
  0
LINE
  8
0
 62
     0
 10
215.12
 20
100.857
 30
0.0
 11
215.12
 21
86.8578
 31
0.0
  0
LINE
  8
0
 62
     0
 10
215.12
 20
86.8578
 30
0.0
 11
201.12
 21
86.8578
 31
0.0
  0
LINE
  8
0
 62
     0
 10
201.12
 20
86.8578
 30
0.0
 11
201.12
 21
100.857
 31
0.0
  0
LINE
  8
0
 62
     0
 10
182.07
 20
100.857
 30
0.0
 11
196.07
 21
100.857
 31
0.0
  0
LINE
  8
0
 62
     0
 10
196.07
 20
100.857
 30
0.0
 11
196.07
 21
86.8578
 31
0.0
  0
LINE
  8
0
 62
     0
 10
196.07
 20
86.8578
 30
0.0
 11
182.07
 21
86.8578
 31
0.0
  0
LINE
  8
0
 62
     0
 10
182.07
 20
86.8578
 30
0.0
 11
182.07
 21
100.857
 31
0.0
  0
LINE
  8
0
 62
     0
 10
163.02
 20
100.857
 30
0.0
 11
177.02
 21
100.857
 31
0.0
  0
LINE
  8
0
 62
     0
 10
177.02
 20
100.857
 30
0.0
 11
177.02
 21
86.8578
 31
0.0
  0
LINE
  8
0
 62
     0
 10
177.02
 20
86.8578
 30
0.0
 11
163.02
 21
86.8578
 31
0.0
  0
LINE
  8
0
 62
     0
 10
163.02
 20
86.8578
 30
0.0
 11
163.02
 21
100.857
 31
0.0
  0
LINE
  8
0
 62
     0
 10
143.97
 20
100.857
 30
0.0
 11
157.97
 21
100.857
 31
0.0
  0
LINE
  8
0
 62
     0
 10
157.97
 20
100.857
 30
0.0
 11
157.97
 21
86.8578
 31
0.0
  0
LINE
  8
0
 62
     0
 10
157.97
 20
86.8578
 30
0.0
 11
143.97
 21
86.8578
 31
0.0
  0
LINE
  8
0
 62
     0
 10
143.97
 20
86.8578
 30
0.0
 11
143.97
 21
100.857
 31
0.0
  0
LINE
  8
0
 62
     0
 10
124.919
 20
100.857
 30
0.0
 11
138.92
 21
100.857
 31
0.0
  0
LINE
  8
0
 62
     0
 10
138.92
 20
100.857
 30
0.0
 11
138.92
 21
86.8578
 31
0.0
  0
LINE
  8
0
 62
     0
 10
138.92
 20
86.8578
 30
0.0
 11
124.919
 21
86.8578
 31
0.0
  0
LINE
  8
0
 62
     0
 10
124.919
 20
86.8578
 30
0.0
 11
124.919
 21
100.857
 31
0.0
  0
LINE
  8
0
 62
     0
 10
105.869
 20
100.857
 30
0.0
 11
119.87
 21
100.857
 31
0.0
  0
LINE
  8
0
 62
     0
 10
119.87
 20
100.857
 30
0.0
 11
119.87
 21
86.8578
 31
0.0
  0
LINE
  8
0
 62
     0
 10
119.87
 20
86.8578
 30
0.0
 11
105.869
 21
86.8578
 31
0.0
  0
LINE
  8
0
 62
     0
 10
105.869
 20
86.8578
 30
0.0
 11
105.869
 21
100.857
 31
0.0
  0
LINE
  8
0
 62
     0
 10
86.8204
 20
100.857
 30
0.0
 11
100.82
 21
100.857
 31
0.0
  0
LINE
  8
0
 62
     0
 10
100.82
 20
100.857
 30
0.0
 11
100.82
 21
86.8578
 31
0.0
  0
LINE
  8
0
 62
     0
 10
100.82
 20
86.8578
 30
0.0
 11
86.8204
 21
86.8578
 31
0.0
  0
LINE
  8
0
 62
     0
 10
86.8204
 20
86.8578
 30
0.0
 11
86.8204
 21
100.857
 31
0.0
  0
LINE
  8
0
 62
     0
 10
67.7704
 20
100.857
 30
0.0
 11
81.77
 21
100.857
 31
0.0
  0
LINE
  8
0
 62
     0
 10
81.77
 20
100.857
 30
0.0
 11
81.77
 21
86.8578
 31
0.0
  0
LINE
  8
0
 62
     0
 10
81.77
 20
86.8578
 30
0.0
 11
67.7704
 21
86.8578
 31
0.0
  0
LINE
  8
0
 62
     0
 10
67.7704
 20
86.8578
 30
0.0
 11
67.7704
 21
100.857
 31
0.0
  0
LINE
  8
0
 62
     0
 10
48.7204
 20
100.857
 30
0.0
 11
62.72
 21
100.857
 31
0.0
  0
LINE
  8
0
 62
     0
 10
62.72
 20
100.857
 30
0.0
 11
62.72
 21
86.8578
 31
0.0
  0
LINE
  8
0
 62
     0
 10
62.72
 20
86.8578
 30
0.0
 11
48.7204
 21
86.8578
 31
0.0
  0
LINE
  8
0
 62
     0
 10
48.7204
 20
86.8578
 30
0.0
 11
48.7204
 21
100.857
 31
0.0
  0
LINE
  8
0
 62
     0
 10
29.6706
 20
100.857
 30
0.0
 11
43.67
 21
100.857
 31
0.0
  0
LINE
  8
0
 62
     0
 10
43.67
 20
100.857
 30
0.0
 11
43.67
 21
86.8578
 31
0.0
  0
LINE
  8
0
 62
     0
 10
43.67
 20
86.8578
 30
0.0
 11
29.6706
 21
86.8578
 31
0.0
  0
LINE
  8
0
 62
     0
 10
29.6706
 20
86.8578
 30
0.0
 11
29.6706
 21
100.857
 31
0.0
  0
LINE
  8
0
 62
     0
 10
10.6192
 20
100.857
 30
0.0
 11
24.62
 21
100.857
 31
0.0
  0
LINE
  8
0
 62
     0
 10
24.62
 20
100.857
 30
0.0
 11
24.62
 21
86.8578
 31
0.0
  0
LINE
  8
0
 62
     0
 10
24.62
 20
86.8578
 30
0.0
 11
10.6192
 21
86.8578
 31
0.0
  0
LINE
  8
0
 62
     0
 10
10.6192
 20
86.8578
 30
0.0
 11
10.6192
 21
100.857
 31
0.0
  0
LINE
  8
0
 62
     0
 10
315.42
 20
124.67
 30
0.0
 11
329.42
 21
124.67
 31
0.0
  0
LINE
  8
0
 62
     0
 10
329.42
 20
124.67
 30
0.0
 11
329.42
 21
110.67
 31
0.0
  0
LINE
  8
0
 62
     0
 10
329.42
 20
110.67
 30
0.0
 11
315.42
 21
110.67
 31
0.0
  0
LINE
  8
0
 62
     0
 10
315.42
 20
110.67
 30
0.0
 11
315.42
 21
124.67
 31
0.0
  0
LINE
  8
0
 62
     0
 10
296.37
 20
124.67
 30
0.0
 11
310.37
 21
124.67
 31
0.0
  0
LINE
  8
0
 62
     0
 10
310.37
 20
124.67
 30
0.0
 11
310.37
 21
110.67
 31
0.0
  0
LINE
  8
0
 62
     0
 10
310.37
 20
110.67
 30
0.0
 11
296.37
 21
110.67
 31
0.0
  0
LINE
  8
0
 62
     0
 10
296.37
 20
110.67
 30
0.0
 11
296.37
 21
124.67
 31
0.0
  0
LINE
  8
0
 62
     0
 10
277.32
 20
124.67
 30
0.0
 11
291.32
 21
124.67
 31
0.0
  0
LINE
  8
0
 62
     0
 10
291.32
 20
124.67
 30
0.0
 11
291.32
 21
110.67
 31
0.0
  0
LINE
  8
0
 62
     0
 10
291.32
 20
110.67
 30
0.0
 11
277.32
 21
110.67
 31
0.0
  0
LINE
  8
0
 62
     0
 10
277.32
 20
110.67
 30
0.0
 11
277.32
 21
124.67
 31
0.0
  0
LINE
  8
0
 62
     0
 10
253.507
 20
124.67
 30
0.0
 11
267.508
 21
124.67
 31
0.0
  0
LINE
  8
0
 62
     0
 10
267.508
 20
124.67
 30
0.0
 11
267.508
 21
110.67
 31
0.0
  0
LINE
  8
0
 62
     0
 10
267.508
 20
110.67
 30
0.0
 11
253.507
 21
110.67
 31
0.0
  0
LINE
  8
0
 62
     0
 10
253.507
 20
110.67
 30
0.0
 11
253.507
 21
124.67
 31
0.0
  0
LINE
  8
0
 62
     0
 10
234.458
 20
124.67
 30
0.0
 11
248.458
 21
124.67
 31
0.0
  0
LINE
  8
0
 62
     0
 10
248.458
 20
124.67
 30
0.0
 11
248.458
 21
110.67
 31
0.0
  0
LINE
  8
0
 62
     0
 10
248.458
 20
110.67
 30
0.0
 11
234.458
 21
110.67
 31
0.0
  0
LINE
  8
0
 62
     0
 10
234.458
 20
110.67
 30
0.0
 11
234.458
 21
124.67
 31
0.0
  0
LINE
  8
0
 62
     0
 10
215.408
 20
124.67
 30
0.0
 11
229.408
 21
124.67
 31
0.0
  0
LINE
  8
0
 62
     0
 10
229.408
 20
124.67
 30
0.0
 11
229.408
 21
110.67
 31
0.0
  0
LINE
  8
0
 62
     0
 10
229.408
 20
110.67
 30
0.0
 11
215.408
 21
110.67
 31
0.0
  0
LINE
  8
0
 62
     0
 10
215.408
 20
110.67
 30
0.0
 11
215.408
 21
124.67
 31
0.0
  0
LINE
  8
0
 62
     0
 10
196.358
 20
124.67
 30
0.0
 11
210.358
 21
124.67
 31
0.0
  0
LINE
  8
0
 62
     0
 10
210.358
 20
124.67
 30
0.0
 11
210.358
 21
110.67
 31
0.0
  0
LINE
  8
0
 62
     0
 10
210.358
 20
110.67
 30
0.0
 11
196.358
 21
110.67
 31
0.0
  0
LINE
  8
0
 62
     0
 10
196.358
 20
110.67
 30
0.0
 11
196.358
 21
124.67
 31
0.0
  0
LINE
  8
0
 62
     0
 10
172.545
 20
124.67
 30
0.0
 11
186.545
 21
124.67
 31
0.0
  0
LINE
  8
0
 62
     0
 10
186.545
 20
124.67
 30
0.0
 11
186.545
 21
110.67
 31
0.0
  0
LINE
  8
0
 62
     0
 10
186.545
 20
110.67
 30
0.0
 11
172.545
 21
110.67
 31
0.0
  0
LINE
  8
0
 62
     0
 10
172.545
 20
110.67
 30
0.0
 11
172.545
 21
124.67
 31
0.0
  0
LINE
  8
0
 62
     0
 10
153.495
 20
124.67
 30
0.0
 11
167.495
 21
124.67
 31
0.0
  0
LINE
  8
0
 62
     0
 10
167.495
 20
124.67
 30
0.0
 11
167.495
 21
110.67
 31
0.0
  0
LINE
  8
0
 62
     0
 10
167.495
 20
110.67
 30
0.0
 11
153.495
 21
110.67
 31
0.0
  0
LINE
  8
0
 62
     0
 10
153.495
 20
110.67
 30
0.0
 11
153.495
 21
124.67
 31
0.0
  0
LINE
  8
0
 62
     0
 10
134.445
 20
124.67
 30
0.0
 11
148.445
 21
124.67
 31
0.0
  0
LINE
  8
0
 62
     0
 10
148.445
 20
124.67
 30
0.0
 11
148.445
 21
110.67
 31
0.0
  0
LINE
  8
0
 62
     0
 10
148.445
 20
110.67
 30
0.0
 11
134.445
 21
110.67
 31
0.0
  0
LINE
  8
0
 62
     0
 10
134.445
 20
110.67
 30
0.0
 11
134.445
 21
124.67
 31
0.0
  0
LINE
  8
0
 62
     0
 10
115.395
 20
124.67
 30
0.0
 11
129.395
 21
124.67
 31
0.0
  0
LINE
  8
0
 62
     0
 10
129.395
 20
124.67
 30
0.0
 11
129.395
 21
110.67
 31
0.0
  0
LINE
  8
0
 62
     0
 10
129.395
 20
110.67
 30
0.0
 11
115.395
 21
110.67
 31
0.0
  0
LINE
  8
0
 62
     0
 10
115.395
 20
110.67
 30
0.0
 11
115.395
 21
124.67
 31
0.0
  0
LINE
  8
0
 62
     0
 10
91.5829
 20
124.67
 30
0.0
 11
105.583
 21
124.67
 31
0.0
  0
LINE
  8
0
 62
     0
 10
105.583
 20
124.67
 30
0.0
 11
105.583
 21
110.67
 31
0.0
  0
LINE
  8
0
 62
     0
 10
105.583
 20
110.67
 30
0.0
 11
91.5829
 21
110.67
 31
0.0
  0
LINE
  8
0
 62
     0
 10
91.5829
 20
110.67
 30
0.0
 11
91.5829
 21
124.67
 31
0.0
  0
LINE
  8
0
 62
     0
 10
72.5329
 20
124.67
 30
0.0
 11
86.5325
 21
124.67
 31
0.0
  0
LINE
  8
0
 62
     0
 10
86.5325
 20
124.67
 30
0.0
 11
86.5325
 21
110.67
 31
0.0
  0
LINE
  8
0
 62
     0
 10
86.5325
 20
110.67
 30
0.0
 11
72.5329
 21
110.67
 31
0.0
  0
LINE
  8
0
 62
     0
 10
72.5329
 20
110.67
 30
0.0
 11
72.5329
 21
124.67
 31
0.0
  0
LINE
  8
0
 62
     0
 10
53.4829
 20
124.67
 30
0.0
 11
67.4825
 21
124.67
 31
0.0
  0
LINE
  8
0
 62
     0
 10
67.4825
 20
124.67
 30
0.0
 11
67.4825
 21
110.67
 31
0.0
  0
LINE
  8
0
 62
     0
 10
67.4825
 20
110.67
 30
0.0
 11
53.4829
 21
110.67
 31
0.0
  0
LINE
  8
0
 62
     0
 10
53.4829
 20
110.67
 30
0.0
 11
53.4829
 21
124.67
 31
0.0
  0
LINE
  8
0
 62
     0
 10
34.4331
 20
124.67
 30
0.0
 11
48.4325
 21
124.67
 31
0.0
  0
LINE
  8
0
 62
     0
 10
48.4325
 20
124.67
 30
0.0
 11
48.4325
 21
110.67
 31
0.0
  0
LINE
  8
0
 62
     0
 10
48.4325
 20
110.67
 30
0.0
 11
34.4331
 21
110.67
 31
0.0
  0
LINE
  8
0
 62
     0
 10
34.4331
 20
110.67
 30
0.0
 11
34.4331
 21
124.67
 31
0.0
  0
LINE
  8
0
 62
     0
 10
10.6192
 20
124.67
 30
0.0
 11
24.62
 21
124.67
 31
0.0
  0
LINE
  8
0
 62
     0
 10
24.62
 20
124.67
 30
0.0
 11
24.62
 21
110.67
 31
0.0
  0
LINE
  8
0
 62
     0
 10
24.62
 20
110.67
 30
0.0
 11
10.6192
 21
110.67
 31
0.0
  0
LINE
  8
0
 62
     0
 10
10.6192
 20
110.67
 30
0.0
 11
10.6192
 21
124.67
 31
0.0
  0
LINE
  8
0
 62
     0
 10
3.63114
 20
137.385
 30
0.0
 11
3.21359
 21
137.171
 31
0.0
  0
LINE
  8
0
 62
     0
 10
3.21359
 20
137.171
 30
0.0
 11
2.88148
 21
136.839
 31
0.0
  0
LINE
  8
0
 62
     0
 10
2.88148
 20
136.839
 30
0.0
 11
2.66788
 21
136.422
 31
0.0
  0
LINE
  8
0
 62
     0
 10
2.66788
 20
136.422
 30
0.0
 11
2.59485
 21
135.957
 31
0.0
  0
LINE
  8
0
 62
     0
 10
2.59485
 20
135.957
 30
0.0
 11
2.66788
 21
135.494
 31
0.0
  0
LINE
  8
0
 62
     0
 10
2.66788
 20
135.494
 30
0.0
 11
2.88148
 21
135.077
 31
0.0
  0
LINE
  8
0
 62
     0
 10
2.88148
 20
135.077
 30
0.0
 11
3.21359
 21
134.745
 31
0.0
  0
LINE
  8
0
 62
     0
 10
3.21359
 20
134.745
 30
0.0
 11
3.63114
 21
134.531
 31
0.0
  0
LINE
  8
0
 62
     0
 10
3.63114
 20
134.531
 30
0.0
 11
4.09554
 21
134.458
 31
0.0
  0
LINE
  8
0
 62
     0
 10
4.09554
 20
134.458
 30
0.0
 11
4.55856
 21
134.531
 31
0.0
  0
LINE
  8
0
 62
     0
 10
4.55856
 20
134.531
 30
0.0
 11
4.97611
 21
134.745
 31
0.0
  0
LINE
  8
0
 62
     0
 10
4.97611
 20
134.745
 30
0.0
 11
5.30821
 21
135.077
 31
0.0
  0
LINE
  8
0
 62
     0
 10
5.30821
 20
135.077
 30
0.0
 11
5.52178
 21
135.494
 31
0.0
  0
LINE
  8
0
 62
     0
 10
5.52178
 20
135.494
 30
0.0
 11
5.59484
 21
135.957
 31
0.0
  0
LINE
  8
0
 62
     0
 10
5.59484
 20
135.957
 30
0.0
 11
5.52178
 21
136.422
 31
0.0
  0
LINE
  8
0
 62
     0
 10
5.52178
 20
136.422
 30
0.0
 11
5.30821
 21
136.839
 31
0.0
  0
LINE
  8
0
 62
     0
 10
5.30821
 20
136.839
 30
0.0
 11
4.97611
 21
137.171
 31
0.0
  0
LINE
  8
0
 62
     0
 10
4.97611
 20
137.171
 30
0.0
 11
4.55856
 21
137.385
 31
0.0
  0
LINE
  8
0
 62
     0
 10
4.55856
 20
137.385
 30
0.0
 11
4.09554
 21
137.458
 31
0.0
  0
LINE
  8
0
 62
     0
 10
4.09554
 20
137.458
 30
0.0
 11
3.63114
 21
137.385
 31
0.0
  0
LINE
  8
0
 62
     0
 10
335.482
 20
137.385
 30
0.0
 11
335.064
 21
137.171
 31
0.0
  0
LINE
  8
0
 62
     0
 10
335.064
 20
137.171
 30
0.0
 11
334.732
 21
136.839
 31
0.0
  0
LINE
  8
0
 62
     0
 10
334.732
 20
136.839
 30
0.0
 11
334.52
 21
136.422
 31
0.0
  0
LINE
  8
0
 62
     0
 10
334.52
 20
136.422
 30
0.0
 11
334.447
 21
135.957
 31
0.0
  0
LINE
  8
0
 62
     0
 10
334.447
 20
135.957
 30
0.0
 11
334.52
 21
135.494
 31
0.0
  0
LINE
  8
0
 62
     0
 10
334.52
 20
135.494
 30
0.0
 11
334.732
 21
135.077
 31
0.0
  0
LINE
  8
0
 62
     0
 10
334.732
 20
135.077
 30
0.0
 11
335.064
 21
134.745
 31
0.0
  0
LINE
  8
0
 62
     0
 10
335.064
 20
134.745
 30
0.0
 11
335.482
 21
134.531
 31
0.0
  0
LINE
  8
0
 62
     0
 10
335.482
 20
134.531
 30
0.0
 11
335.946
 21
134.458
 31
0.0
  0
LINE
  8
0
 62
     0
 10
335.946
 20
134.458
 30
0.0
 11
336.41
 21
134.531
 31
0.0
  0
LINE
  8
0
 62
     0
 10
336.41
 20
134.531
 30
0.0
 11
336.827
 21
134.745
 31
0.0
  0
LINE
  8
0
 62
     0
 10
336.827
 20
134.745
 30
0.0
 11
337.159
 21
135.077
 31
0.0
  0
LINE
  8
0
 62
     0
 10
337.159
 20
135.077
 30
0.0
 11
337.373
 21
135.494
 31
0.0
  0
LINE
  8
0
 62
     0
 10
337.373
 20
135.494
 30
0.0
 11
337.447
 21
135.957
 31
0.0
  0
LINE
  8
0
 62
     0
 10
337.447
 20
135.957
 30
0.0
 11
337.373
 21
136.422
 31
0.0
  0
LINE
  8
0
 62
     0
 10
337.373
 20
136.422
 30
0.0
 11
337.159
 21
136.839
 31
0.0
  0
LINE
  8
0
 62
     0
 10
337.159
 20
136.839
 30
0.0
 11
336.827
 21
137.171
 31
0.0
  0
LINE
  8
0
 62
     0
 10
336.827
 20
137.171
 30
0.0
 11
336.41
 21
137.385
 31
0.0
  0
LINE
  8
0
 62
     0
 10
336.41
 20
137.385
 30
0.0
 11
335.946
 21
137.458
 31
0.0
  0
LINE
  8
0
 62
     0
 10
335.946
 20
137.458
 30
0.0
 11
335.482
 21
137.385
 31
0.0
  0
LINE
  8
0
 62
     0
 10
224.865
 20
137.385
 30
0.0
 11
224.448
 21
137.171
 31
0.0
  0
LINE
  8
0
 62
     0
 10
224.448
 20
137.171
 30
0.0
 11
224.116
 21
136.839
 31
0.0
  0
LINE
  8
0
 62
     0
 10
224.116
 20
136.839
 30
0.0
 11
223.902
 21
136.422
 31
0.0
  0
LINE
  8
0
 62
     0
 10
223.902
 20
136.422
 30
0.0
 11
223.829
 21
135.957
 31
0.0
  0
LINE
  8
0
 62
     0
 10
223.829
 20
135.957
 30
0.0
 11
223.902
 21
135.494
 31
0.0
  0
LINE
  8
0
 62
     0
 10
223.902
 20
135.494
 30
0.0
 11
224.116
 21
135.077
 31
0.0
  0
LINE
  8
0
 62
     0
 10
224.116
 20
135.077
 30
0.0
 11
224.448
 21
134.745
 31
0.0
  0
LINE
  8
0
 62
     0
 10
224.448
 20
134.745
 30
0.0
 11
224.865
 21
134.531
 31
0.0
  0
LINE
  8
0
 62
     0
 10
224.865
 20
134.531
 30
0.0
 11
225.33
 21
134.458
 31
0.0
  0
LINE
  8
0
 62
     0
 10
225.33
 20
134.458
 30
0.0
 11
225.793
 21
134.531
 31
0.0
  0
LINE
  8
0
 62
     0
 10
225.793
 20
134.531
 30
0.0
 11
226.211
 21
134.745
 31
0.0
  0
LINE
  8
0
 62
     0
 10
226.211
 20
134.745
 30
0.0
 11
226.543
 21
135.077
 31
0.0
  0
LINE
  8
0
 62
     0
 10
226.543
 20
135.077
 30
0.0
 11
226.755
 21
135.494
 31
0.0
  0
LINE
  8
0
 62
     0
 10
226.755
 20
135.494
 30
0.0
 11
226.829
 21
135.957
 31
0.0
  0
LINE
  8
0
 62
     0
 10
226.829
 20
135.957
 30
0.0
 11
226.755
 21
136.422
 31
0.0
  0
LINE
  8
0
 62
     0
 10
226.755
 20
136.422
 30
0.0
 11
226.543
 21
136.839
 31
0.0
  0
LINE
  8
0
 62
     0
 10
226.543
 20
136.839
 30
0.0
 11
226.211
 21
137.171
 31
0.0
  0
LINE
  8
0
 62
     0
 10
226.211
 20
137.171
 30
0.0
 11
225.793
 21
137.385
 31
0.0
  0
LINE
  8
0
 62
     0
 10
225.793
 20
137.385
 30
0.0
 11
225.33
 21
137.458
 31
0.0
  0
LINE
  8
0
 62
     0
 10
225.33
 20
137.458
 30
0.0
 11
224.865
 21
137.385
 31
0.0
  0
LINE
  8
0
 62
     0
 10
114.249
 20
137.385
 30
0.0
 11
113.83
 21
137.171
 31
0.0
  0
LINE
  8
0
 62
     0
 10
113.83
 20
137.171
 30
0.0
 11
113.498
 21
136.839
 31
0.0
  0
LINE
  8
0
 62
     0
 10
113.498
 20
136.839
 30
0.0
 11
113.286
 21
136.422
 31
0.0
  0
LINE
  8
0
 62
     0
 10
113.286
 20
136.422
 30
0.0
 11
113.213
 21
135.957
 31
0.0
  0
LINE
  8
0
 62
     0
 10
113.213
 20
135.957
 30
0.0
 11
113.286
 21
135.494
 31
0.0
  0
LINE
  8
0
 62
     0
 10
113.286
 20
135.494
 30
0.0
 11
113.498
 21
135.077
 31
0.0
  0
LINE
  8
0
 62
     0
 10
113.498
 20
135.077
 30
0.0
 11
113.83
 21
134.745
 31
0.0
  0
LINE
  8
0
 62
     0
 10
113.83
 20
134.745
 30
0.0
 11
114.249
 21
134.531
 31
0.0
  0
LINE
  8
0
 62
     0
 10
114.249
 20
134.531
 30
0.0
 11
114.712
 21
134.458
 31
0.0
  0
LINE
  8
0
 62
     0
 10
114.712
 20
134.458
 30
0.0
 11
115.175
 21
134.531
 31
0.0
  0
LINE
  8
0
 62
     0
 10
115.175
 20
134.531
 30
0.0
 11
115.594
 21
134.745
 31
0.0
  0
LINE
  8
0
 62
     0
 10
115.594
 20
134.745
 30
0.0
 11
115.926
 21
135.077
 31
0.0
  0
LINE
  8
0
 62
     0
 10
115.926
 20
135.077
 30
0.0
 11
116.138
 21
135.494
 31
0.0
  0
LINE
  8
0
 62
     0
 10
116.138
 20
135.494
 30
0.0
 11
116.213
 21
135.957
 31
0.0
  0
LINE
  8
0
 62
     0
 10
116.213
 20
135.957
 30
0.0
 11
116.138
 21
136.422
 31
0.0
  0
LINE
  8
0
 62
     0
 10
116.138
 20
136.422
 30
0.0
 11
115.926
 21
136.839
 31
0.0
  0
LINE
  8
0
 62
     0
 10
115.926
 20
136.839
 30
0.0
 11
115.594
 21
137.171
 31
0.0
  0
LINE
  8
0
 62
     0
 10
115.594
 20
137.171
 30
0.0
 11
115.175
 21
137.385
 31
0.0
  0
LINE
  8
0
 62
     0
 10
115.175
 20
137.385
 30
0.0
 11
114.712
 21
137.458
 31
0.0
  0
LINE
  8
0
 62
     0
 10
114.712
 20
137.458
 30
0.0
 11
114.249
 21
137.385
 31
0.0
  0
ENDSEC
  0
EOF
