  0
SECTION
  2
HEADER
  9
$ACADVER
  1
AC1009
  9
$EXTMIN
 10
0.0
 20
0.0
 30
0.0
  9
$EXTMAX
 10
1000.0
 20
1000.0
 30
0.0
  9
$FILLMODE
 70
 0
  9
$SPLFRAME
 70
 1
  0
ENDSEC
  0
SECTION
  2
TABLES
  0
TABLE
  2
LAYER
 70
1
  0
LAYER
  2
0
 70
     0
 62
     7
  6
CONTINUOUS
  0
ENDTAB
  0
ENDSEC
  0
SECTION
  2
ENTITIES
  0
LINE
  8
0
 62
     0
 10
337.946
 20
139.958
 30
0.0
 11
338.103
 21
139.951
 31
0.0
  0
LINE
  8
0
 62
     0
 10
338.103
 20
139.951
 30
0.0
 11
338.259
 21
139.933
 31
0.0
  0
LINE
  8
0
 62
     0
 10
338.259
 20
139.933
 30
0.0
 11
338.413
 21
139.902
 31
0.0
  0
LINE
  8
0
 62
     0
 10
338.413
 20
139.902
 30
0.0
 11
338.565
 21
139.86
 31
0.0
  0
LINE
  8
0
 62
     0
 10
338.565
 20
139.86
 30
0.0
 11
338.712
 21
139.805
 31
0.0
  0
LINE
  8
0
 62
     0
 10
338.712
 20
139.805
 30
0.0
 11
338.854
 21
139.74
 31
0.0
  0
LINE
  8
0
 62
     0
 10
338.854
 20
139.74
 30
0.0
 11
338.991
 21
139.663
 31
0.0
  0
LINE
  8
0
 62
     0
 10
338.991
 20
139.663
 30
0.0
 11
339.121
 21
139.576
 31
0.0
  0
LINE
  8
0
 62
     0
 10
339.121
 20
139.576
 30
0.0
 11
339.244
 21
139.478
 31
0.0
  0
LINE
  8
0
 62
     0
 10
339.244
 20
139.478
 30
0.0
 11
339.36
 21
139.372
 31
0.0
  0
LINE
  8
0
 62
     0
 10
339.36
 20
139.372
 30
0.0
 11
339.466
 21
139.256
 31
0.0
  0
LINE
  8
0
 62
     0
 10
339.466
 20
139.256
 30
0.0
 11
339.565
 21
139.134
 31
0.0
  0
LINE
  8
0
 62
     0
 10
339.565
 20
139.134
 30
0.0
 11
339.652
 21
139.003
 31
0.0
  0
LINE
  8
0
 62
     0
 10
339.652
 20
139.003
 30
0.0
 11
339.729
 21
138.865
 31
0.0
  0
LINE
  8
0
 62
     0
 10
339.729
 20
138.865
 30
0.0
 11
339.794
 21
138.723
 31
0.0
  0
LINE
  8
0
 62
     0
 10
339.794
 20
138.723
 30
0.0
 11
339.849
 21
138.577
 31
0.0
  0
LINE
  8
0
 62
     0
 10
339.849
 20
138.577
 30
0.0
 11
339.89
 21
138.424
 31
0.0
  0
LINE
  8
0
 62
     0
 10
339.89
 20
138.424
 30
0.0
 11
339.922
 21
138.271
 31
0.0
  0
LINE
  8
0
 62
     0
 10
339.922
 20
138.271
 30
0.0
 11
339.94
 21
138.114
 31
0.0
  0
LINE
  8
0
 62
     0
 10
339.94
 20
138.114
 30
0.0
 11
339.947
 21
137.957
 31
0.0
  0
LINE
  8
0
 62
     0
 10
339.947
 20
137.957
 30
0.0
 11
339.947
 21
2.13183
 31
0.0
  0
LINE
  8
0
 62
     0
 10
339.947
 20
2.13183
 30
0.0
 11
339.94
 21
1.97473
 31
0.0
  0
LINE
  8
0
 62
     0
 10
339.94
 20
1.97473
 30
0.0
 11
339.922
 21
1.81901
 31
0.0
  0
LINE
  8
0
 62
     0
 10
339.922
 20
1.81901
 30
0.0
 11
339.89
 21
1.66467
 31
0.0
  0
LINE
  8
0
 62
     0
 10
339.89
 20
1.66467
 30
0.0
 11
339.849
 21
1.51309
 31
0.0
  0
LINE
  8
0
 62
     0
 10
339.849
 20
1.51309
 30
0.0
 11
339.794
 21
1.36563
 31
0.0
  0
LINE
  8
0
 62
     0
 10
339.794
 20
1.36563
 30
0.0
 11
339.729
 21
1.2237
 31
0.0
  0
LINE
  8
0
 62
     0
 10
339.729
 20
1.2237
 30
0.0
 11
339.652
 21
1.08727
 31
0.0
  0
LINE
  8
0
 62
     0
 10
339.652
 20
1.08727
 30
0.0
 11
339.565
 21
0.956359
 31
0.0
  0
LINE
  8
0
 62
     0
 10
339.565
 20
0.956359
 30
0.0
 11
339.466
 21
0.833713
 31
0.0
  0
LINE
  8
0
 62
     0
 10
339.466
 20
0.833713
 30
0.0
 11
339.36
 21
0.717959
 31
0.0
  0
LINE
  8
0
 62
     0
 10
339.36
 20
0.717959
 30
0.0
 11
339.244
 21
0.611851
 31
0.0
  0
LINE
  8
0
 62
     0
 10
339.244
 20
0.611851
 30
0.0
 11
339.121
 21
0.512632
 31
0.0
  0
LINE
  8
0
 62
     0
 10
339.121
 20
0.512632
 30
0.0
 11
338.991
 21
0.425813
 31
0.0
  0
LINE
  8
0
 62
     0
 10
338.991
 20
0.425813
 30
0.0
 11
338.854
 21
0.348644
 31
0.0
  0
LINE
  8
0
 62
     0
 10
338.854
 20
0.348644
 30
0.0
 11
338.712
 21
0.283876
 31
0.0
  0
LINE
  8
0
 62
     0
 10
338.712
 20
0.283876
 30
0.0
 11
338.565
 21
0.228755
 31
0.0
  0
LINE
  8
0
 62
     0
 10
338.565
 20
0.228755
 30
0.0
 11
338.413
 21
0.187413
 31
0.0
  0
LINE
  8
0
 62
     0
 10
338.413
 20
0.187413
 30
0.0
 11
338.259
 21
0.155718
 31
0.0
  0
LINE
  8
0
 62
     0
 10
338.259
 20
0.155718
 30
0.0
 11
338.103
 21
0.137804
 31
0.0
  0
LINE
  8
0
 62
     0
 10
338.103
 20
0.137804
 30
0.0
 11
337.946
 21
0.130914
 31
0.0
  0
LINE
  8
0
 62
     0
 10
337.946
 20
0.130914
 30
0.0
 11
2.096
 21
0.130914
 31
0.0
  0
LINE
  8
0
 62
     0
 10
2.096
 20
0.130914
 30
0.0
 11
1.9389
 21
0.137804
 31
0.0
  0
LINE
  8
0
 62
     0
 10
1.9389
 20
0.137804
 30
0.0
 11
1.7818
 21
0.155718
 31
0.0
  0
LINE
  8
0
 62
     0
 10
1.7818
 20
0.155718
 30
0.0
 11
1.62884
 21
0.187413
 31
0.0
  0
LINE
  8
0
 62
     0
 10
1.62884
 20
0.187413
 30
0.0
 11
1.47588
 21
0.228755
 31
0.0
  0
LINE
  8
0
 62
     0
 10
1.47588
 20
0.228755
 30
0.0
 11
1.32981
 21
0.283876
 31
0.0
  0
LINE
  8
0
 62
     0
 10
1.32981
 20
0.283876
 30
0.0
 11
1.18787
 21
0.348644
 31
0.0
  0
LINE
  8
0
 62
     0
 10
1.18787
 20
0.348644
 30
0.0
 11
1.05006
 21
0.425813
 31
0.0
  0
LINE
  8
0
 62
     0
 10
1.05006
 20
0.425813
 30
0.0
 11
0.919152
 21
0.512632
 31
0.0
  0
LINE
  8
0
 62
     0
 10
0.919152
 20
0.512632
 30
0.0
 11
0.796505
 21
0.611851
 31
0.0
  0
LINE
  8
0
 62
     0
 10
0.796505
 20
0.611851
 30
0.0
 11
0.680752
 21
0.717959
 31
0.0
  0
LINE
  8
0
 62
     0
 10
0.680752
 20
0.717959
 30
0.0
 11
0.574643
 21
0.833713
 31
0.0
  0
LINE
  8
0
 62
     0
 10
0.574643
 20
0.833713
 30
0.0
 11
0.4768
 21
0.956359
 31
0.0
  0
LINE
  8
0
 62
     0
 10
0.4768
 20
0.956359
 30
0.0
 11
0.389985
 21
1.08727
 31
0.0
  0
LINE
  8
0
 62
     0
 10
0.389985
 20
1.08727
 30
0.0
 11
0.312815
 21
1.2237
 31
0.0
  0
LINE
  8
0
 62
     0
 10
0.312815
 20
1.2237
 30
0.0
 11
0.248047
 21
1.36563
 31
0.0
  0
LINE
  8
0
 62
     0
 10
0.248047
 20
1.36563
 30
0.0
 11
0.192925
 21
1.51309
 31
0.0
  0
LINE
  8
0
 62
     0
 10
0.192925
 20
1.51309
 30
0.0
 11
0.150206
 21
1.66467
 31
0.0
  0
LINE
  8
0
 62
     0
 10
0.150206
 20
1.66467
 30
0.0
 11
0.119889
 21
1.81901
 31
0.0
  0
LINE
  8
0
 62
     0
 10
0.119889
 20
1.81901
 30
0.0
 11
0.101975
 21
1.97473
 31
0.0
  0
LINE
  8
0
 62
     0
 10
0.101975
 20
1.97473
 30
0.0
 11
0.0950846
 21
2.13183
 31
0.0
  0
LINE
  8
0
 62
     0
 10
0.0950846
 20
2.13183
 30
0.0
 11
0.0950846
 21
137.957
 31
0.0
  0
LINE
  8
0
 62
     0
 10
0.0950846
 20
137.957
 30
0.0
 11
0.101975
 21
138.114
 31
0.0
  0
LINE
  8
0
 62
     0
 10
0.101975
 20
138.114
 30
0.0
 11
0.119889
 21
138.271
 31
0.0
  0
LINE
  8
0
 62
     0
 10
0.119889
 20
138.271
 30
0.0
 11
0.150206
 21
138.424
 31
0.0
  0
LINE
  8
0
 62
     0
 10
0.150206
 20
138.424
 30
0.0
 11
0.192925
 21
138.577
 31
0.0
  0
LINE
  8
0
 62
     0
 10
0.192925
 20
138.577
 30
0.0
 11
0.248047
 21
138.723
 31
0.0
  0
LINE
  8
0
 62
     0
 10
0.248047
 20
138.723
 30
0.0
 11
0.312815
 21
138.865
 31
0.0
  0
LINE
  8
0
 62
     0
 10
0.312815
 20
138.865
 30
0.0
 11
0.389985
 21
139.003
 31
0.0
  0
LINE
  8
0
 62
     0
 10
0.389985
 20
139.003
 30
0.0
 11
0.4768
 21
139.134
 31
0.0
  0
LINE
  8
0
 62
     0
 10
0.4768
 20
139.134
 30
0.0
 11
0.574643
 21
139.256
 31
0.0
  0
LINE
  8
0
 62
     0
 10
0.574643
 20
139.256
 30
0.0
 11
0.680752
 21
139.372
 31
0.0
  0
LINE
  8
0
 62
     0
 10
0.680752
 20
139.372
 30
0.0
 11
0.796505
 21
139.478
 31
0.0
  0
LINE
  8
0
 62
     0
 10
0.796505
 20
139.478
 30
0.0
 11
0.919152
 21
139.576
 31
0.0
  0
LINE
  8
0
 62
     0
 10
0.919152
 20
139.576
 30
0.0
 11
1.05006
 21
139.663
 31
0.0
  0
LINE
  8
0
 62
     0
 10
1.05006
 20
139.663
 30
0.0
 11
1.18787
 21
139.74
 31
0.0
  0
LINE
  8
0
 62
     0
 10
1.18787
 20
139.74
 30
0.0
 11
1.32981
 21
139.805
 31
0.0
  0
LINE
  8
0
 62
     0
 10
1.32981
 20
139.805
 30
0.0
 11
1.47588
 21
139.86
 31
0.0
  0
LINE
  8
0
 62
     0
 10
1.47588
 20
139.86
 30
0.0
 11
1.62884
 21
139.902
 31
0.0
  0
LINE
  8
0
 62
     0
 10
1.62884
 20
139.902
 30
0.0
 11
1.7818
 21
139.933
 31
0.0
  0
LINE
  8
0
 62
     0
 10
1.7818
 20
139.933
 30
0.0
 11
1.9389
 21
139.951
 31
0.0
  0
LINE
  8
0
 62
     0
 10
1.9389
 20
139.951
 30
0.0
 11
2.096
 21
139.958
 31
0.0
  0
LINE
  8
0
 62
     0
 10
2.096
 20
139.958
 30
0.0
 11
337.946
 21
139.958
 31
0.0
  0
LINE
  8
0
 62
     0
 10
3.63114
 20
5.55763
 30
0.0
 11
3.21359
 21
5.34539
 31
0.0
  0
LINE
  8
0
 62
     0
 10
3.21359
 20
5.34539
 30
0.0
 11
2.88148
 21
5.01329
 31
0.0
  0
LINE
  8
0
 62
     0
 10
2.88148
 20
5.01329
 30
0.0
 11
2.66788
 21
4.59574
 31
0.0
  0
LINE
  8
0
 62
     0
 10
2.66788
 20
4.59574
 30
0.0
 11
2.59485
 21
4.13135
 31
0.0
  0
LINE
  8
0
 62
     0
 10
2.59485
 20
4.13135
 30
0.0
 11
2.66788
 21
3.66832
 31
0.0
  0
LINE
  8
0
 62
     0
 10
2.66788
 20
3.66832
 30
0.0
 11
2.88148
 21
3.25079
 31
0.0
  0
LINE
  8
0
 62
     0
 10
2.88148
 20
3.25079
 30
0.0
 11
3.21359
 21
2.91869
 31
0.0
  0
LINE
  8
0
 62
     0
 10
3.21359
 20
2.91869
 30
0.0
 11
3.63114
 21
2.70509
 31
0.0
  0
LINE
  8
0
 62
     0
 10
3.63114
 20
2.70509
 30
0.0
 11
4.09554
 21
2.63067
 31
0.0
  0
LINE
  8
0
 62
     0
 10
4.09554
 20
2.63067
 30
0.0
 11
4.55856
 21
2.70509
 31
0.0
  0
LINE
  8
0
 62
     0
 10
4.55856
 20
2.70509
 30
0.0
 11
4.97611
 21
2.91869
 31
0.0
  0
LINE
  8
0
 62
     0
 10
4.97611
 20
2.91869
 30
0.0
 11
5.30821
 21
3.25079
 31
0.0
  0
LINE
  8
0
 62
     0
 10
5.30821
 20
3.25079
 30
0.0
 11
5.52178
 21
3.66832
 31
0.0
  0
LINE
  8
0
 62
     0
 10
5.52178
 20
3.66832
 30
0.0
 11
5.59484
 21
4.13135
 31
0.0
  0
LINE
  8
0
 62
     0
 10
5.59484
 20
4.13135
 30
0.0
 11
5.52178
 21
4.59574
 31
0.0
  0
LINE
  8
0
 62
     0
 10
5.52178
 20
4.59574
 30
0.0
 11
5.30821
 21
5.01329
 31
0.0
  0
LINE
  8
0
 62
     0
 10
5.30821
 20
5.01329
 30
0.0
 11
4.97611
 21
5.34539
 31
0.0
  0
LINE
  8
0
 62
     0
 10
4.97611
 20
5.34539
 30
0.0
 11
4.55856
 21
5.55763
 31
0.0
  0
LINE
  8
0
 62
     0
 10
4.55856
 20
5.55763
 30
0.0
 11
4.09554
 21
5.63065
 31
0.0
  0
LINE
  8
0
 62
     0
 10
4.09554
 20
5.63065
 30
0.0
 11
3.63114
 21
5.55763
 31
0.0
  0
LINE
  8
0
 62
     0
 10
114.249
 20
5.55763
 30
0.0
 11
113.83
 21
5.34539
 31
0.0
  0
LINE
  8
0
 62
     0
 10
113.83
 20
5.34539
 30
0.0
 11
113.498
 21
5.01329
 31
0.0
  0
LINE
  8
0
 62
     0
 10
113.498
 20
5.01329
 30
0.0
 11
113.286
 21
4.59574
 31
0.0
  0
LINE
  8
0
 62
     0
 10
113.286
 20
4.59574
 30
0.0
 11
113.213
 21
4.13135
 31
0.0
  0
LINE
  8
0
 62
     0
 10
113.213
 20
4.13135
 30
0.0
 11
113.286
 21
3.66832
 31
0.0
  0
LINE
  8
0
 62
     0
 10
113.286
 20
3.66832
 30
0.0
 11
113.498
 21
3.25079
 31
0.0
  0
LINE
  8
0
 62
     0
 10
113.498
 20
3.25079
 30
0.0
 11
113.83
 21
2.91869
 31
0.0
  0
LINE
  8
0
 62
     0
 10
113.83
 20
2.91869
 30
0.0
 11
114.249
 21
2.70509
 31
0.0
  0
LINE
  8
0
 62
     0
 10
114.249
 20
2.70509
 30
0.0
 11
114.712
 21
2.63067
 31
0.0
  0
LINE
  8
0
 62
     0
 10
114.712
 20
2.63067
 30
0.0
 11
115.175
 21
2.70509
 31
0.0
  0
LINE
  8
0
 62
     0
 10
115.175
 20
2.70509
 30
0.0
 11
115.594
 21
2.91869
 31
0.0
  0
LINE
  8
0
 62
     0
 10
115.594
 20
2.91869
 30
0.0
 11
115.926
 21
3.25079
 31
0.0
  0
LINE
  8
0
 62
     0
 10
115.926
 20
3.25079
 30
0.0
 11
116.138
 21
3.66832
 31
0.0
  0
LINE
  8
0
 62
     0
 10
116.138
 20
3.66832
 30
0.0
 11
116.213
 21
4.13135
 31
0.0
  0
LINE
  8
0
 62
     0
 10
116.213
 20
4.13135
 30
0.0
 11
116.138
 21
4.59574
 31
0.0
  0
LINE
  8
0
 62
     0
 10
116.138
 20
4.59574
 30
0.0
 11
115.926
 21
5.01329
 31
0.0
  0
LINE
  8
0
 62
     0
 10
115.926
 20
5.01329
 30
0.0
 11
115.594
 21
5.34539
 31
0.0
  0
LINE
  8
0
 62
     0
 10
115.594
 20
5.34539
 30
0.0
 11
115.175
 21
5.55763
 31
0.0
  0
LINE
  8
0
 62
     0
 10
115.175
 20
5.55763
 30
0.0
 11
114.712
 21
5.63065
 31
0.0
  0
LINE
  8
0
 62
     0
 10
114.712
 20
5.63065
 30
0.0
 11
114.249
 21
5.55763
 31
0.0
  0
LINE
  8
0
 62
     0
 10
224.865
 20
5.55763
 30
0.0
 11
224.448
 21
5.34539
 31
0.0
  0
LINE
  8
0
 62
     0
 10
224.448
 20
5.34539
 30
0.0
 11
224.116
 21
5.01329
 31
0.0
  0
LINE
  8
0
 62
     0
 10
224.116
 20
5.01329
 30
0.0
 11
223.902
 21
4.59574
 31
0.0
  0
LINE
  8
0
 62
     0
 10
223.902
 20
4.59574
 30
0.0
 11
223.829
 21
4.13135
 31
0.0
  0
LINE
  8
0
 62
     0
 10
223.829
 20
4.13135
 30
0.0
 11
223.902
 21
3.66832
 31
0.0
  0
LINE
  8
0
 62
     0
 10
223.902
 20
3.66832
 30
0.0
 11
224.116
 21
3.25079
 31
0.0
  0
LINE
  8
0
 62
     0
 10
224.116
 20
3.25079
 30
0.0
 11
224.448
 21
2.91869
 31
0.0
  0
LINE
  8
0
 62
     0
 10
224.448
 20
2.91869
 30
0.0
 11
224.865
 21
2.70509
 31
0.0
  0
LINE
  8
0
 62
     0
 10
224.865
 20
2.70509
 30
0.0
 11
225.33
 21
2.63067
 31
0.0
  0
LINE
  8
0
 62
     0
 10
225.33
 20
2.63067
 30
0.0
 11
225.793
 21
2.70509
 31
0.0
  0
LINE
  8
0
 62
     0
 10
225.793
 20
2.70509
 30
0.0
 11
226.211
 21
2.91869
 31
0.0
  0
LINE
  8
0
 62
     0
 10
226.211
 20
2.91869
 30
0.0
 11
226.543
 21
3.25079
 31
0.0
  0
LINE
  8
0
 62
     0
 10
226.543
 20
3.25079
 30
0.0
 11
226.755
 21
3.66832
 31
0.0
  0
LINE
  8
0
 62
     0
 10
226.755
 20
3.66832
 30
0.0
 11
226.829
 21
4.13135
 31
0.0
  0
LINE
  8
0
 62
     0
 10
226.829
 20
4.13135
 30
0.0
 11
226.755
 21
4.59574
 31
0.0
  0
LINE
  8
0
 62
     0
 10
226.755
 20
4.59574
 30
0.0
 11
226.543
 21
5.01329
 31
0.0
  0
LINE
  8
0
 62
     0
 10
226.543
 20
5.01329
 30
0.0
 11
226.211
 21
5.34539
 31
0.0
  0
LINE
  8
0
 62
     0
 10
226.211
 20
5.34539
 30
0.0
 11
225.793
 21
5.55763
 31
0.0
  0
LINE
  8
0
 62
     0
 10
225.793
 20
5.55763
 30
0.0
 11
225.33
 21
5.63065
 31
0.0
  0
LINE
  8
0
 62
     0
 10
225.33
 20
5.63065
 30
0.0
 11
224.865
 21
5.55763
 31
0.0
  0
LINE
  8
0
 62
     0
 10
335.482
 20
5.55763
 30
0.0
 11
335.064
 21
5.34539
 31
0.0
  0
LINE
  8
0
 62
     0
 10
335.064
 20
5.34539
 30
0.0
 11
334.732
 21
5.01329
 31
0.0
  0
LINE
  8
0
 62
     0
 10
334.732
 20
5.01329
 30
0.0
 11
334.52
 21
4.59574
 31
0.0
  0
LINE
  8
0
 62
     0
 10
334.52
 20
4.59574
 30
0.0
 11
334.447
 21
4.13135
 31
0.0
  0
LINE
  8
0
 62
     0
 10
334.447
 20
4.13135
 30
0.0
 11
334.52
 21
3.66832
 31
0.0
  0
LINE
  8
0
 62
     0
 10
334.52
 20
3.66832
 30
0.0
 11
334.732
 21
3.25079
 31
0.0
  0
LINE
  8
0
 62
     0
 10
334.732
 20
3.25079
 30
0.0
 11
335.064
 21
2.91869
 31
0.0
  0
LINE
  8
0
 62
     0
 10
335.064
 20
2.91869
 30
0.0
 11
335.482
 21
2.70509
 31
0.0
  0
LINE
  8
0
 62
     0
 10
335.482
 20
2.70509
 30
0.0
 11
335.946
 21
2.63067
 31
0.0
  0
LINE
  8
0
 62
     0
 10
335.946
 20
2.63067
 30
0.0
 11
336.41
 21
2.70509
 31
0.0
  0
LINE
  8
0
 62
     0
 10
336.41
 20
2.70509
 30
0.0
 11
336.827
 21
2.91869
 31
0.0
  0
LINE
  8
0
 62
     0
 10
336.827
 20
2.91869
 30
0.0
 11
337.159
 21
3.25079
 31
0.0
  0
LINE
  8
0
 62
     0
 10
337.159
 20
3.25079
 30
0.0
 11
337.373
 21
3.66832
 31
0.0
  0
LINE
  8
0
 62
     0
 10
337.373
 20
3.66832
 30
0.0
 11
337.447
 21
4.13135
 31
0.0
  0
LINE
  8
0
 62
     0
 10
337.447
 20
4.13135
 30
0.0
 11
337.373
 21
4.59574
 31
0.0
  0
LINE
  8
0
 62
     0
 10
337.373
 20
4.59574
 30
0.0
 11
337.159
 21
5.01329
 31
0.0
  0
LINE
  8
0
 62
     0
 10
337.159
 20
5.01329
 30
0.0
 11
336.827
 21
5.34539
 31
0.0
  0
LINE
  8
0
 62
     0
 10
336.827
 20
5.34539
 30
0.0
 11
336.41
 21
5.55763
 31
0.0
  0
LINE
  8
0
 62
     0
 10
336.41
 20
5.55763
 30
0.0
 11
335.946
 21
5.63065
 31
0.0
  0
LINE
  8
0
 62
     0
 10
335.946
 20
5.63065
 30
0.0
 11
335.482
 21
5.55763
 31
0.0
  0
LINE
  8
0
 62
     0
 10
8.09322
 20
103.383
 30
0.0
 11
8.09322
 21
84.3319
 31
0.0
  0
LINE
  8
0
 62
     0
 10
8.09322
 20
84.3319
 30
0.0
 11
8.09459
 21
84.3319
 31
0.0
  0
LINE
  8
0
 62
     0
 10
8.09459
 20
84.3319
 30
0.0
 11
8.09459
 21
65.2833
 31
0.0
  0
LINE
  8
0
 62
     0
 10
8.09459
 20
65.2833
 30
0.0
 11
8.09322
 21
65.2833
 31
0.0
  0
LINE
  8
0
 62
     0
 10
8.09322
 20
65.2833
 30
0.0
 11
8.09322
 21
46.2319
 31
0.0
  0
LINE
  8
0
 62
     0
 10
8.09322
 20
46.2319
 30
0.0
 11
8.09459
 21
46.2319
 31
0.0
  0
LINE
  8
0
 62
     0
 10
8.09459
 20
46.2319
 30
0.0
 11
8.09459
 21
8.13181
 31
0.0
  0
LINE
  8
0
 62
     0
 10
8.09459
 20
8.13181
 30
0.0
 11
331.946
 21
8.13181
 31
0.0
  0
LINE
  8
0
 62
     0
 10
331.946
 20
8.13181
 30
0.0
 11
331.946
 21
103.383
 31
0.0
  0
LINE
  8
0
 62
     0
 10
331.946
 20
103.383
 30
0.0
 11
8.09322
 21
103.383
 31
0.0
  0
LINE
  8
0
 62
     0
 10
3.63114
 20
71.4721
 30
0.0
 11
3.21359
 21
71.2583
 31
0.0
  0
LINE
  8
0
 62
     0
 10
3.21359
 20
71.2583
 30
0.0
 11
2.88148
 21
70.9263
 31
0.0
  0
LINE
  8
0
 62
     0
 10
2.88148
 20
70.9263
 30
0.0
 11
2.66788
 21
70.5086
 31
0.0
  0
LINE
  8
0
 62
     0
 10
2.66788
 20
70.5086
 30
0.0
 11
2.59485
 21
70.0444
 31
0.0
  0
LINE
  8
0
 62
     0
 10
2.59485
 20
70.0444
 30
0.0
 11
2.66788
 21
69.5812
 31
0.0
  0
LINE
  8
0
 62
     0
 10
2.66788
 20
69.5812
 30
0.0
 11
2.88148
 21
69.1638
 31
0.0
  0
LINE
  8
0
 62
     0
 10
2.88148
 20
69.1638
 30
0.0
 11
3.21359
 21
68.8315
 31
0.0
  0
LINE
  8
0
 62
     0
 10
3.21359
 20
68.8315
 30
0.0
 11
3.63114
 21
68.6181
 31
0.0
  0
LINE
  8
0
 62
     0
 10
3.63114
 20
68.6181
 30
0.0
 11
4.09554
 21
68.5437
 31
0.0
  0
LINE
  8
0
 62
     0
 10
4.09554
 20
68.5437
 30
0.0
 11
4.55856
 21
68.6181
 31
0.0
  0
LINE
  8
0
 62
     0
 10
4.55856
 20
68.6181
 30
0.0
 11
4.97611
 21
68.8315
 31
0.0
  0
LINE
  8
0
 62
     0
 10
4.97611
 20
68.8315
 30
0.0
 11
5.30821
 21
69.1638
 31
0.0
  0
LINE
  8
0
 62
     0
 10
5.30821
 20
69.1638
 30
0.0
 11
5.52178
 21
69.5812
 31
0.0
  0
LINE
  8
0
 62
     0
 10
5.52178
 20
69.5812
 30
0.0
 11
5.59484
 21
70.0444
 31
0.0
  0
LINE
  8
0
 62
     0
 10
5.59484
 20
70.0444
 30
0.0
 11
5.52178
 21
70.5086
 31
0.0
  0
LINE
  8
0
 62
     0
 10
5.52178
 20
70.5086
 30
0.0
 11
5.30821
 21
70.9263
 31
0.0
  0
LINE
  8
0
 62
     0
 10
5.30821
 20
70.9263
 30
0.0
 11
4.97611
 21
71.2583
 31
0.0
  0
LINE
  8
0
 62
     0
 10
4.97611
 20
71.2583
 30
0.0
 11
4.55856
 21
71.4721
 31
0.0
  0
LINE
  8
0
 62
     0
 10
4.55856
 20
71.4721
 30
0.0
 11
4.09554
 21
71.5437
 31
0.0
  0
LINE
  8
0
 62
     0
 10
4.09554
 20
71.5437
 30
0.0
 11
3.63114
 21
71.4721
 31
0.0
  0
LINE
  8
0
 62
     0
 10
335.482
 20
71.4721
 30
0.0
 11
335.064
 21
71.2583
 31
0.0
  0
LINE
  8
0
 62
     0
 10
335.064
 20
71.2583
 30
0.0
 11
334.732
 21
70.9263
 31
0.0
  0
LINE
  8
0
 62
     0
 10
334.732
 20
70.9263
 30
0.0
 11
334.52
 21
70.5086
 31
0.0
  0
LINE
  8
0
 62
     0
 10
334.52
 20
70.5086
 30
0.0
 11
334.447
 21
70.0444
 31
0.0
  0
LINE
  8
0
 62
     0
 10
334.447
 20
70.0444
 30
0.0
 11
334.52
 21
69.5812
 31
0.0
  0
LINE
  8
0
 62
     0
 10
334.52
 20
69.5812
 30
0.0
 11
334.732
 21
69.1638
 31
0.0
  0
LINE
  8
0
 62
     0
 10
334.732
 20
69.1638
 30
0.0
 11
335.064
 21
68.8315
 31
0.0
  0
LINE
  8
0
 62
     0
 10
335.064
 20
68.8315
 30
0.0
 11
335.482
 21
68.6181
 31
0.0
  0
LINE
  8
0
 62
     0
 10
335.482
 20
68.6181
 30
0.0
 11
335.946
 21
68.5437
 31
0.0
  0
LINE
  8
0
 62
     0
 10
335.946
 20
68.5437
 30
0.0
 11
336.41
 21
68.6181
 31
0.0
  0
LINE
  8
0
 62
     0
 10
336.41
 20
68.6181
 30
0.0
 11
336.827
 21
68.8315
 31
0.0
  0
LINE
  8
0
 62
     0
 10
336.827
 20
68.8315
 30
0.0
 11
337.159
 21
69.1638
 31
0.0
  0
LINE
  8
0
 62
     0
 10
337.159
 20
69.1638
 30
0.0
 11
337.373
 21
69.5812
 31
0.0
  0
LINE
  8
0
 62
     0
 10
337.373
 20
69.5812
 30
0.0
 11
337.447
 21
70.0444
 31
0.0
  0
LINE
  8
0
 62
     0
 10
337.447
 20
70.0444
 30
0.0
 11
337.373
 21
70.5086
 31
0.0
  0
LINE
  8
0
 62
     0
 10
337.373
 20
70.5086
 30
0.0
 11
337.159
 21
70.9263
 31
0.0
  0
LINE
  8
0
 62
     0
 10
337.159
 20
70.9263
 30
0.0
 11
336.827
 21
71.2583
 31
0.0
  0
LINE
  8
0
 62
     0
 10
336.827
 20
71.2583
 30
0.0
 11
336.41
 21
71.4721
 31
0.0
  0
LINE
  8
0
 62
     0
 10
336.41
 20
71.4721
 30
0.0
 11
335.946
 21
71.5437
 31
0.0
  0
LINE
  8
0
 62
     0
 10
335.946
 20
71.5437
 30
0.0
 11
335.482
 21
71.4721
 31
0.0
  0
LINE
  8
0
 62
     0
 10
274.794
 20
127.196
 30
0.0
 11
331.946
 21
127.196
 31
0.0
  0
LINE
  8
0
 62
     0
 10
331.946
 20
127.196
 30
0.0
 11
331.946
 21
108.144
 31
0.0
  0
LINE
  8
0
 62
     0
 10
331.946
 20
108.144
 30
0.0
 11
274.794
 21
108.144
 31
0.0
  0
LINE
  8
0
 62
     0
 10
274.794
 20
108.144
 30
0.0
 11
274.794
 21
127.196
 31
0.0
  0
LINE
  8
0
 62
     0
 10
193.832
 20
127.196
 30
0.0
 11
270.033
 21
127.196
 31
0.0
  0
LINE
  8
0
 62
     0
 10
270.033
 20
127.196
 30
0.0
 11
270.033
 21
108.144
 31
0.0
  0
LINE
  8
0
 62
     0
 10
270.033
 20
108.144
 30
0.0
 11
193.832
 21
108.144
 31
0.0
  0
LINE
  8
0
 62
     0
 10
193.832
 20
108.144
 30
0.0
 11
193.832
 21
127.196
 31
0.0
  0
LINE
  8
0
 62
     0
 10
112.869
 20
127.196
 30
0.0
 11
189.071
 21
127.196
 31
0.0
  0
LINE
  8
0
 62
     0
 10
189.071
 20
127.196
 30
0.0
 11
189.071
 21
108.144
 31
0.0
  0
LINE
  8
0
 62
     0
 10
189.071
 20
108.144
 30
0.0
 11
112.869
 21
108.144
 31
0.0
  0
LINE
  8
0
 62
     0
 10
112.869
 20
108.144
 30
0.0
 11
112.869
 21
127.196
 31
0.0
  0
LINE
  8
0
 62
     0
 10
31.9071
 20
127.196
 30
0.0
 11
108.108
 21
127.196
 31
0.0
  0
LINE
  8
0
 62
     0
 10
108.108
 20
127.196
 30
0.0
 11
108.108
 21
108.144
 31
0.0
  0
LINE
  8
0
 62
     0
 10
108.108
 20
108.144
 30
0.0
 11
31.9071
 21
108.144
 31
0.0
  0
LINE
  8
0
 62
     0
 10
31.9071
 20
108.144
 30
0.0
 11
31.9071
 21
127.196
 31
0.0
  0
LINE
  8
0
 62
     0
 10
8.09322
 20
127.196
 30
0.0
 11
27.146
 21
127.196
 31
0.0
  0
LINE
  8
0
 62
     0
 10
27.146
 20
127.196
 30
0.0
 11
27.146
 21
108.144
 31
0.0
  0
LINE
  8
0
 62
     0
 10
27.146
 20
108.144
 30
0.0
 11
8.09322
 21
108.144
 31
0.0
  0
LINE
  8
0
 62
     0
 10
8.09322
 20
108.144
 30
0.0
 11
8.09322
 21
127.196
 31
0.0
  0
LINE
  8
0
 62
     0
 10
3.63114
 20
137.385
 30
0.0
 11
3.21359
 21
137.171
 31
0.0
  0
LINE
  8
0
 62
     0
 10
3.21359
 20
137.171
 30
0.0
 11
2.88148
 21
136.839
 31
0.0
  0
LINE
  8
0
 62
     0
 10
2.88148
 20
136.839
 30
0.0
 11
2.66788
 21
136.422
 31
0.0
  0
LINE
  8
0
 62
     0
 10
2.66788
 20
136.422
 30
0.0
 11
2.59485
 21
135.957
 31
0.0
  0
LINE
  8
0
 62
     0
 10
2.59485
 20
135.957
 30
0.0
 11
2.66788
 21
135.494
 31
0.0
  0
LINE
  8
0
 62
     0
 10
2.66788
 20
135.494
 30
0.0
 11
2.88148
 21
135.077
 31
0.0
  0
LINE
  8
0
 62
     0
 10
2.88148
 20
135.077
 30
0.0
 11
3.21359
 21
134.745
 31
0.0
  0
LINE
  8
0
 62
     0
 10
3.21359
 20
134.745
 30
0.0
 11
3.63114
 21
134.531
 31
0.0
  0
LINE
  8
0
 62
     0
 10
3.63114
 20
134.531
 30
0.0
 11
4.09554
 21
134.458
 31
0.0
  0
LINE
  8
0
 62
     0
 10
4.09554
 20
134.458
 30
0.0
 11
4.55856
 21
134.531
 31
0.0
  0
LINE
  8
0
 62
     0
 10
4.55856
 20
134.531
 30
0.0
 11
4.97611
 21
134.745
 31
0.0
  0
LINE
  8
0
 62
     0
 10
4.97611
 20
134.745
 30
0.0
 11
5.30821
 21
135.077
 31
0.0
  0
LINE
  8
0
 62
     0
 10
5.30821
 20
135.077
 30
0.0
 11
5.52178
 21
135.494
 31
0.0
  0
LINE
  8
0
 62
     0
 10
5.52178
 20
135.494
 30
0.0
 11
5.59484
 21
135.957
 31
0.0
  0
LINE
  8
0
 62
     0
 10
5.59484
 20
135.957
 30
0.0
 11
5.52178
 21
136.422
 31
0.0
  0
LINE
  8
0
 62
     0
 10
5.52178
 20
136.422
 30
0.0
 11
5.30821
 21
136.839
 31
0.0
  0
LINE
  8
0
 62
     0
 10
5.30821
 20
136.839
 30
0.0
 11
4.97611
 21
137.171
 31
0.0
  0
LINE
  8
0
 62
     0
 10
4.97611
 20
137.171
 30
0.0
 11
4.55856
 21
137.385
 31
0.0
  0
LINE
  8
0
 62
     0
 10
4.55856
 20
137.385
 30
0.0
 11
4.09554
 21
137.458
 31
0.0
  0
LINE
  8
0
 62
     0
 10
4.09554
 20
137.458
 30
0.0
 11
3.63114
 21
137.385
 31
0.0
  0
LINE
  8
0
 62
     0
 10
335.482
 20
137.385
 30
0.0
 11
335.064
 21
137.171
 31
0.0
  0
LINE
  8
0
 62
     0
 10
335.064
 20
137.171
 30
0.0
 11
334.732
 21
136.839
 31
0.0
  0
LINE
  8
0
 62
     0
 10
334.732
 20
136.839
 30
0.0
 11
334.52
 21
136.422
 31
0.0
  0
LINE
  8
0
 62
     0
 10
334.52
 20
136.422
 30
0.0
 11
334.447
 21
135.957
 31
0.0
  0
LINE
  8
0
 62
     0
 10
334.447
 20
135.957
 30
0.0
 11
334.52
 21
135.494
 31
0.0
  0
LINE
  8
0
 62
     0
 10
334.52
 20
135.494
 30
0.0
 11
334.732
 21
135.077
 31
0.0
  0
LINE
  8
0
 62
     0
 10
334.732
 20
135.077
 30
0.0
 11
335.064
 21
134.745
 31
0.0
  0
LINE
  8
0
 62
     0
 10
335.064
 20
134.745
 30
0.0
 11
335.482
 21
134.531
 31
0.0
  0
LINE
  8
0
 62
     0
 10
335.482
 20
134.531
 30
0.0
 11
335.946
 21
134.458
 31
0.0
  0
LINE
  8
0
 62
     0
 10
335.946
 20
134.458
 30
0.0
 11
336.41
 21
134.531
 31
0.0
  0
LINE
  8
0
 62
     0
 10
336.41
 20
134.531
 30
0.0
 11
336.827
 21
134.745
 31
0.0
  0
LINE
  8
0
 62
     0
 10
336.827
 20
134.745
 30
0.0
 11
337.159
 21
135.077
 31
0.0
  0
LINE
  8
0
 62
     0
 10
337.159
 20
135.077
 30
0.0
 11
337.373
 21
135.494
 31
0.0
  0
LINE
  8
0
 62
     0
 10
337.373
 20
135.494
 30
0.0
 11
337.447
 21
135.957
 31
0.0
  0
LINE
  8
0
 62
     0
 10
337.447
 20
135.957
 30
0.0
 11
337.373
 21
136.422
 31
0.0
  0
LINE
  8
0
 62
     0
 10
337.373
 20
136.422
 30
0.0
 11
337.159
 21
136.839
 31
0.0
  0
LINE
  8
0
 62
     0
 10
337.159
 20
136.839
 30
0.0
 11
336.827
 21
137.171
 31
0.0
  0
LINE
  8
0
 62
     0
 10
336.827
 20
137.171
 30
0.0
 11
336.41
 21
137.385
 31
0.0
  0
LINE
  8
0
 62
     0
 10
336.41
 20
137.385
 30
0.0
 11
335.946
 21
137.458
 31
0.0
  0
LINE
  8
0
 62
     0
 10
335.946
 20
137.458
 30
0.0
 11
335.482
 21
137.385
 31
0.0
  0
LINE
  8
0
 62
     0
 10
224.865
 20
137.385
 30
0.0
 11
224.448
 21
137.171
 31
0.0
  0
LINE
  8
0
 62
     0
 10
224.448
 20
137.171
 30
0.0
 11
224.116
 21
136.839
 31
0.0
  0
LINE
  8
0
 62
     0
 10
224.116
 20
136.839
 30
0.0
 11
223.902
 21
136.422
 31
0.0
  0
LINE
  8
0
 62
     0
 10
223.902
 20
136.422
 30
0.0
 11
223.829
 21
135.957
 31
0.0
  0
LINE
  8
0
 62
     0
 10
223.829
 20
135.957
 30
0.0
 11
223.902
 21
135.494
 31
0.0
  0
LINE
  8
0
 62
     0
 10
223.902
 20
135.494
 30
0.0
 11
224.116
 21
135.077
 31
0.0
  0
LINE
  8
0
 62
     0
 10
224.116
 20
135.077
 30
0.0
 11
224.448
 21
134.745
 31
0.0
  0
LINE
  8
0
 62
     0
 10
224.448
 20
134.745
 30
0.0
 11
224.865
 21
134.531
 31
0.0
  0
LINE
  8
0
 62
     0
 10
224.865
 20
134.531
 30
0.0
 11
225.33
 21
134.458
 31
0.0
  0
LINE
  8
0
 62
     0
 10
225.33
 20
134.458
 30
0.0
 11
225.793
 21
134.531
 31
0.0
  0
LINE
  8
0
 62
     0
 10
225.793
 20
134.531
 30
0.0
 11
226.211
 21
134.745
 31
0.0
  0
LINE
  8
0
 62
     0
 10
226.211
 20
134.745
 30
0.0
 11
226.543
 21
135.077
 31
0.0
  0
LINE
  8
0
 62
     0
 10
226.543
 20
135.077
 30
0.0
 11
226.755
 21
135.494
 31
0.0
  0
LINE
  8
0
 62
     0
 10
226.755
 20
135.494
 30
0.0
 11
226.829
 21
135.957
 31
0.0
  0
LINE
  8
0
 62
     0
 10
226.829
 20
135.957
 30
0.0
 11
226.755
 21
136.422
 31
0.0
  0
LINE
  8
0
 62
     0
 10
226.755
 20
136.422
 30
0.0
 11
226.543
 21
136.839
 31
0.0
  0
LINE
  8
0
 62
     0
 10
226.543
 20
136.839
 30
0.0
 11
226.211
 21
137.171
 31
0.0
  0
LINE
  8
0
 62
     0
 10
226.211
 20
137.171
 30
0.0
 11
225.793
 21
137.385
 31
0.0
  0
LINE
  8
0
 62
     0
 10
225.793
 20
137.385
 30
0.0
 11
225.33
 21
137.458
 31
0.0
  0
LINE
  8
0
 62
     0
 10
225.33
 20
137.458
 30
0.0
 11
224.865
 21
137.385
 31
0.0
  0
LINE
  8
0
 62
     0
 10
114.249
 20
137.385
 30
0.0
 11
113.83
 21
137.171
 31
0.0
  0
LINE
  8
0
 62
     0
 10
113.83
 20
137.171
 30
0.0
 11
113.498
 21
136.839
 31
0.0
  0
LINE
  8
0
 62
     0
 10
113.498
 20
136.839
 30
0.0
 11
113.286
 21
136.422
 31
0.0
  0
LINE
  8
0
 62
     0
 10
113.286
 20
136.422
 30
0.0
 11
113.213
 21
135.957
 31
0.0
  0
LINE
  8
0
 62
     0
 10
113.213
 20
135.957
 30
0.0
 11
113.286
 21
135.494
 31
0.0
  0
LINE
  8
0
 62
     0
 10
113.286
 20
135.494
 30
0.0
 11
113.498
 21
135.077
 31
0.0
  0
LINE
  8
0
 62
     0
 10
113.498
 20
135.077
 30
0.0
 11
113.83
 21
134.745
 31
0.0
  0
LINE
  8
0
 62
     0
 10
113.83
 20
134.745
 30
0.0
 11
114.249
 21
134.531
 31
0.0
  0
LINE
  8
0
 62
     0
 10
114.249
 20
134.531
 30
0.0
 11
114.712
 21
134.458
 31
0.0
  0
LINE
  8
0
 62
     0
 10
114.712
 20
134.458
 30
0.0
 11
115.175
 21
134.531
 31
0.0
  0
LINE
  8
0
 62
     0
 10
115.175
 20
134.531
 30
0.0
 11
115.594
 21
134.745
 31
0.0
  0
LINE
  8
0
 62
     0
 10
115.594
 20
134.745
 30
0.0
 11
115.926
 21
135.077
 31
0.0
  0
LINE
  8
0
 62
     0
 10
115.926
 20
135.077
 30
0.0
 11
116.138
 21
135.494
 31
0.0
  0
LINE
  8
0
 62
     0
 10
116.138
 20
135.494
 30
0.0
 11
116.213
 21
135.957
 31
0.0
  0
LINE
  8
0
 62
     0
 10
116.213
 20
135.957
 30
0.0
 11
116.138
 21
136.422
 31
0.0
  0
LINE
  8
0
 62
     0
 10
116.138
 20
136.422
 30
0.0
 11
115.926
 21
136.839
 31
0.0
  0
LINE
  8
0
 62
     0
 10
115.926
 20
136.839
 30
0.0
 11
115.594
 21
137.171
 31
0.0
  0
LINE
  8
0
 62
     0
 10
115.594
 20
137.171
 30
0.0
 11
115.175
 21
137.385
 31
0.0
  0
LINE
  8
0
 62
     0
 10
115.175
 20
137.385
 30
0.0
 11
114.712
 21
137.458
 31
0.0
  0
LINE
  8
0
 62
     0
 10
114.712
 20
137.458
 30
0.0
 11
114.249
 21
137.385
 31
0.0
  0
ENDSEC
  0
EOF
